<?xml version="1.0" standalone="no"?>
<!DOCTYPE svg PUBLIC "-//W3C//DTD SVG 20010904//EN"
 "http://www.w3.org/TR/2001/REC-SVG-20010904/DTD/svg10.dtd">
<svg version="1.0" xmlns="http://www.w3.org/2000/svg"
 width="784.000000pt" height="784.000000pt" viewBox="0 0 784.000000 784.000000"
 preserveAspectRatio="xMidYMid meet">
<metadata>
Created by potrace 1.14, written by Peter Selinger 2001-2017
</metadata>
<g transform="translate(0.000000,784.000000) scale(0.100000,-0.100000)"
fill="#000000" stroke="none">
<path d="M1615 7030 c-8 -9 -15 -19 -15 -23 0 -4 -22 -44 -49 -89 -39 -68
-218 -376 -291 -503 -31 -55 -125 -216 -135 -233 -6 -9 -23 -39 -38 -67 -15
-27 -36 -63 -46 -80 -10 -16 -29 -50 -43 -75 -14 -25 -49 -85 -78 -135 -29
-49 -60 -103 -69 -120 -9 -16 -19 -31 -23 -33 -5 -2 -8 -8 -8 -13 0 -4 -23
-47 -51 -95 -28 -48 -47 -89 -43 -93 8 -5 36 -55 83 -146 9 -16 18 -32 21 -35
7 -6 71 -116 90 -155 8 -16 17 -32 20 -35 3 -3 11 -16 19 -30 8 -14 30 -52 49
-85 19 -33 43 -76 54 -95 11 -19 42 -72 69 -118 27 -45 49 -85 49 -88 0 -2 17
-33 39 -67 21 -34 94 -159 161 -277 68 -118 142 -247 166 -286 24 -39 44 -74
44 -78 0 -4 7 -18 16 -31 l16 -25 17 23 c9 12 22 33 30 47 8 14 88 153 178
308 90 156 163 288 163 293 0 5 5 9 10 9 6 0 10 4 10 9 0 5 20 42 45 83 24 40
52 89 62 108 9 19 32 58 50 87 18 29 33 54 33 56 0 3 36 66 80 141 44 76 80
141 80 146 0 4 4 10 8 12 4 2 36 54 71 115 34 62 67 115 71 118 8 5 48 6 115
5 15 0 855 -1 965 -1 8 0 224 0 480 0 256 0 472 0 480 0 8 0 224 0 480 0 256
0 472 0 480 0 8 1 151 1 317 2 l301 1 26 47 c14 25 40 69 56 96 17 28 35 61
41 75 6 13 14 27 18 30 5 3 21 30 36 60 15 30 30 57 34 60 3 3 11 14 17 25 6
11 23 41 37 68 15 26 39 68 53 95 15 26 35 59 45 74 11 14 19 29 19 32 0 3 15
29 32 58 18 29 40 65 48 80 8 16 28 52 44 80 16 29 31 55 35 58 3 3 19 30 35
60 16 30 41 73 55 95 14 22 26 42 26 45 0 5 33 63 56 100 5 8 17 30 26 48 9
17 20 32 25 32 4 0 8 5 8 11 0 6 24 52 54 102 29 51 58 101 64 113 l11 21
-2710 -1 c-2504 0 -2710 -1 -2724 -16z"/>
<path d="M2880 4537 c-52 -89 -100 -175 -109 -192 -8 -16 -17 -32 -20 -35 -7
-6 -21 -30 -64 -110 -16 -30 -35 -62 -41 -70 -6 -8 -17 -26 -24 -39 -59 -105
-107 -187 -298 -518 -52 -89 -94 -166 -94 -171 0 -6 -4 -12 -8 -14 -5 -1 -22
-28 -39 -58 -17 -30 -63 -111 -103 -180 -110 -187 -119 -204 -126 -220 -4 -8
-13 -22 -19 -30 -7 -8 -26 -40 -42 -70 -36 -66 -64 -115 -134 -235 -136 -233
-143 -251 -114 -275 8 -7 15 -17 15 -22 0 -5 16 -34 35 -64 19 -30 35 -57 35
-61 0 -3 14 -29 32 -57 17 -28 40 -67 51 -86 11 -19 28 -48 38 -65 10 -16 24
-41 32 -55 37 -68 232 -406 237 -410 7 -7 48 -80 62 -113 7 -15 16 -27 20 -27
4 0 8 -5 8 -11 0 -6 36 -71 80 -146 44 -74 80 -139 80 -144 0 -5 5 -9 11 -9 5
0 8 -4 5 -9 -3 -5 1 -14 9 -21 8 -7 15 -17 15 -22 0 -5 13 -29 30 -52 16 -24
27 -46 24 -48 -2 -3 2 -11 11 -18 8 -7 15 -19 15 -26 0 -8 4 -14 9 -14 5 0 11
-10 15 -22 6 -25 18 -18 40 21 45 83 141 247 146 251 3 3 11 16 17 30 7 14 25
48 41 75 120 205 297 511 382 660 10 17 36 62 58 100 23 39 80 138 127 220 47
83 90 157 95 165 44 72 90 151 90 155 0 3 18 34 40 70 22 36 40 67 40 70 0 2
25 45 55 96 30 50 55 93 55 96 0 2 16 29 35 59 19 30 35 57 35 60 0 3 12 25
28 48 15 23 38 63 52 89 17 32 31 47 45 47 11 1 419 1 906 1 l887 1 13 26 c8
15 28 50 46 79 18 29 33 54 33 57 0 3 16 30 35 60 19 30 35 59 35 64 0 4 6 14
13 21 6 6 12 15 12 19 0 4 14 30 31 57 17 28 88 149 157 270 69 121 130 225
134 230 5 6 19 31 33 57 21 40 123 217 155 270 5 9 17 29 26 45 8 15 43 76 77
134 34 58 62 111 62 117 0 7 4 12 8 12 5 0 14 11 20 24 l11 24 -1808 1 -1808
0 -93 -162z"/>
</g>
</svg>
