<svg width="53" height="54" viewBox="0 0 53 54" fill="none" xmlns="http://www.w3.org/2000/svg">
<g clip-path="url(#clip0_3623_8395)">
<path d="M36.2392 23.2628C36.5826 24.1127 37.5589 24.5271 38.4088 24.1837L41.4994 22.935C42.3494 22.5916 42.7638 21.6153 42.4204 20.7654C42.077 19.9155 41.1007 19.501 40.2507 19.8444L37.1601 21.0931C36.3102 21.4365 35.8958 22.4128 36.2392 23.2628Z" fill="#FAFAFA"/>
<path d="M37.0696 31.5915C36.8344 32.4774 37.3543 33.3639 38.234 33.5837C39.2966 33.8554 40.4241 34.1548 41.4929 34.4421C42.3789 34.6773 43.2808 34.1511 43.5005 33.2714C43.4943 33.2559 43.5098 33.2497 43.5035 33.2342C43.7388 32.3483 43.2126 31.4464 42.3329 31.2266C41.2641 30.9394 40.1365 30.64 39.0895 30.362C38.2035 30.1267 37.3078 30.6683 37.0726 31.5543C37.0788 31.5698 37.0696 31.5915 37.0696 31.5915Z" fill="#FAFAFA"/>
<path d="M34.5471 11.0219C34.5409 11.0065 34.5254 11.0127 34.5192 10.9973C33.7345 10.5234 32.7203 10.7714 32.2618 11.5498C31.6925 12.4988 31.0739 13.5037 30.5201 14.4465C30.0462 15.2312 30.3097 16.2392 31.0881 16.6977C31.0943 16.7131 31.1098 16.7069 31.116 16.7223C31.9007 17.1962 32.8995 16.9545 33.3734 16.1698C33.9489 15.2362 34.5459 14.2221 35.1151 13.2731C35.5798 12.5101 35.3163 11.5021 34.5471 11.0219Z" fill="#FAFAFA"/>
<path d="M18.9131 24.8703L12.7318 27.3677C11.032 28.0544 10.2031 30.0071 10.8899 31.707L12.1386 34.7976C12.8254 36.4974 14.7781 37.3263 16.4779 36.6395L18.0232 36.0152L19.8963 40.6511C20.2396 41.501 21.216 41.9154 22.0659 41.572C22.9158 41.2287 23.3303 40.2523 22.9869 39.4024L21.1138 34.7665L22.6591 34.1421L32.2587 35.6563L24.7666 17.1126L18.9131 24.8703Z" fill="#FAFAFA"/>
<path d="M32.3759 24.8236C31.5455 22.7684 29.9 21.2761 27.9664 20.5834L32.1433 30.9215C33.0592 29.0954 33.2063 26.8789 32.3759 24.8236Z" fill="#FAFAFA"/>
</g>
<defs>
<clipPath id="clip0_3623_8395">
<rect width="40" height="40" fill="white" transform="translate(0.928711 15.9492) rotate(-22)"/>
</clipPath>
</defs>
</svg>
