<svg width="176" height="48" viewBox="0 0 176 48" fill="none" xmlns="http://www.w3.org/2000/svg">
<path d="M17.5794 16.5963H26.1532H34.7269L39.0138 9.17188H30.44H21.8663H13.2908L9.00391 16.5963L13.2908 24.0226L17.5794 16.5963Z" fill="#FAFAFA"/>
<path d="M36.8319 20.3105L32.545 27.735H23.9713L19.7095 35.1165L19.6826 35.1613L17.567 38.8278L13.2783 31.4033L15.3958 27.735L15.4227 27.6902L19.6826 20.3105H36.8319Z" fill="#44A647"/>
<path d="M59.987 21.0208H52.4191L51.3344 28.6515H46.8359L49.4428 10.041H63.0887L62.5616 13.9191H53.4177L52.9211 17.5157H60.489L59.987 21.0208Z" fill="#FAFAFA"/>
<path d="M69.5406 28.6515H65.0439L67.6491 10.041H72.1457L69.5406 28.6515Z" fill="#FAFAFA"/>
<path d="M91.8103 28.6515H88.3356L80.9237 17.7954L79.4033 28.6515H74.9443L77.5423 10.041H81.0169L88.4611 20.7107L89.9493 10.041H94.4154L91.8103 28.6515Z" fill="#FAFAFA"/>
<path d="M97.207 28.6515L99.8121 10.041H104.311L102.263 24.7734H110.575L110.017 28.6515H97.207Z" fill="#FAFAFA"/>
<path d="M127.476 20.9904H119.91L119.383 24.7734H128.409L127.851 28.6515H114.327L116.932 10.041H130.456L129.929 13.9191H120.904L120.407 17.4852H127.975L127.476 20.9904Z" fill="#FAFAFA"/>
<path d="M133.836 10.041H148.812L148.253 13.9191H143.017L140.939 28.6515H136.441L138.519 13.9191H133.278L133.836 10.041Z" fill="#FAFAFA"/>
<path d="M163.514 20.9904H155.95L155.422 24.7734H164.448L163.89 28.6515H150.368L152.973 10.041H166.495L165.968 13.9191H156.943L156.446 17.4852H164.014L163.514 20.9904Z" fill="#FAFAFA"/>
<path d="M51.4731 37.8533H50.2987L50.1338 37.0411H48.409L48.0181 37.8533H46.8438L49.1925 33.3477H50.3812L51.4731 37.8533ZM48.816 36.1894H49.9598L49.621 34.5202L48.816 36.1894Z" fill="#FAFAFA"/>
<path d="M52.111 33.3477H55.7471L55.6108 34.2871H54.3396L53.8358 37.8622H52.7439L53.2495 34.2782H51.9766L52.111 33.3477Z" fill="#FAFAFA"/>
<path d="M60.1558 37.8604H59.0639L59.3203 36.0245H57.47L57.2136 37.8604H56.1182L56.7546 33.3477H57.8447L57.5901 35.1836H59.4404L59.704 33.3477H60.7798L60.1558 37.8604Z" fill="#FAFAFA"/>
<path d="M61.4648 37.8533L62.0977 33.3477H63.1878L62.6912 36.9209H64.7082L64.572 37.8622L61.4648 37.8533Z" fill="#FAFAFA"/>
<path d="M68.8089 35.994H66.973L66.8457 36.912H69.0276L68.8932 37.8533H65.6211L66.2504 33.3477H69.5314L69.4042 34.2871H67.2132L67.0931 35.1531H68.929L68.8089 35.994Z" fill="#FAFAFA"/>
<path d="M70.3503 33.3477H73.9863L73.8501 34.2871H72.5789L72.0751 37.8533H70.9832L71.487 34.2782H70.2158L70.3503 33.3477Z" fill="#FAFAFA"/>
<path d="M77.5527 35.994H75.7168L75.5895 36.912H77.7786L77.6424 37.8533H74.3613L74.9942 33.3477H78.2753L78.1462 34.2871H75.957L75.8405 35.1406H77.6764L77.5527 35.994Z" fill="#FAFAFA"/>
<path d="M81.7053 37.8533H80.6152L81.2463 33.3477H82.3382L81.7053 37.8533Z" fill="#FAFAFA"/>
<path d="M87.109 37.8533H86.2663L84.4734 35.2195L84.1041 37.8533H83.0283L83.6469 33.3477H84.4895L86.295 35.9348L86.6536 33.3477H87.7294L87.109 37.8533Z" fill="#FAFAFA"/>
<path d="M88.5166 33.3477H89.6892L90.3633 36.6861L91.9769 33.3477H93.1513L90.7954 37.8622H89.6067L88.5166 33.3477Z" fill="#FAFAFA"/>
<path d="M96.4845 35.994H94.6486L94.5213 36.912H96.7104L96.5742 37.8533H93.2949L93.926 33.3477H97.2071L97.0798 34.2871H94.8888L94.7687 35.1531H96.6047L96.4845 35.994Z" fill="#FAFAFA"/>
<path d="M98.177 36.5147C98.2949 36.596 98.4183 36.6691 98.5463 36.7334C98.6683 36.7957 98.7955 36.8473 98.9264 36.8876C99.069 36.9298 99.217 36.9509 99.3657 36.9504C99.5156 36.9634 99.6651 36.9221 99.787 36.8338C99.8321 36.7957 99.8678 36.7478 99.8914 36.6937C99.9151 36.6396 99.926 36.5808 99.9233 36.5219C99.9221 36.4707 99.9084 36.4205 99.8834 36.3758C99.8584 36.3312 99.8229 36.2933 99.7798 36.2655C99.6065 36.1619 99.4194 36.0834 99.224 36.0324C98.8747 35.9362 98.5464 35.7756 98.2559 35.5591C98.1436 35.4677 98.0542 35.3514 97.9947 35.2195C97.9353 35.0875 97.9074 34.9435 97.9134 34.7989C97.912 34.5885 97.9528 34.38 98.0335 34.1857C98.1136 33.996 98.2363 33.8272 98.3921 33.6926C98.5718 33.5434 98.7788 33.4308 99.0017 33.3609C99.2806 33.2764 99.5709 33.2358 99.8623 33.2408C100.122 33.236 100.381 33.2612 100.635 33.3161C100.809 33.3551 100.979 33.411 101.142 33.4829C101.275 33.5414 101.396 33.6228 101.501 33.7231L100.784 34.6106C100.692 34.5408 100.594 34.4807 100.49 34.4313C100.383 34.3769 100.27 34.333 100.155 34.3004C100.014 34.2608 99.8685 34.2414 99.7225 34.2431C99.5722 34.2257 99.4208 34.2647 99.2975 34.3524C99.2627 34.3861 99.235 34.4265 99.2162 34.4712C99.1974 34.5159 99.1879 34.5639 99.1882 34.6124C99.1879 34.6617 99.2016 34.7101 99.2276 34.7519C99.2536 34.7938 99.2909 34.8275 99.3352 34.8491C99.4943 34.9314 99.6621 34.9957 99.8354 35.0409C100.205 35.137 100.554 35.3019 100.863 35.5268C100.98 35.6203 101.074 35.7401 101.136 35.8766C101.198 36.013 101.228 36.1622 101.221 36.3121C101.222 36.5224 101.181 36.7307 101.101 36.9253C101.022 37.1251 100.899 37.305 100.743 37.4524C100.565 37.6155 100.357 37.7411 100.129 37.8217C99.8521 37.9196 99.5593 37.9663 99.2653 37.9598C98.9916 37.9653 98.7184 37.934 98.4531 37.8665C98.2598 37.814 98.0724 37.7419 97.8937 37.6514C97.7351 37.5719 97.5884 37.4705 97.458 37.3502L98.177 36.5147Z" fill="#FAFAFA"/>
<path d="M102.414 33.3477H106.048L105.913 34.2871H104.64L104.137 37.8622H103.045L103.55 34.2871H102.277L102.414 33.3477Z" fill="#FAFAFA"/>
<path d="M110.264 35.3629L109.106 36.6574H108.651L107.86 35.3557L107.502 37.8533H106.426L107.055 33.3477H107.934L109.061 35.2804L110.736 33.3477H111.616L110.991 37.8622H109.915L110.264 35.3629Z" fill="#FAFAFA"/>
<path d="M115.483 35.994H113.647L113.52 36.912H115.709L115.573 37.8533H112.292L112.925 33.3477H116.206L116.077 34.2871H113.888L113.768 35.1531H115.604L115.483 35.994Z" fill="#FAFAFA"/>
<path d="M120.773 37.8533H119.93L118.137 35.2195L117.768 37.8533H116.692L117.313 33.3477H118.154L119.959 35.9348L120.318 33.3477H121.393L120.773 37.8533Z" fill="#FAFAFA"/>
<path d="M122.427 33.3477H126.063L125.927 34.2871H124.656L124.152 37.8622H123.06L123.564 34.2871H122.293L122.427 33.3477Z" fill="#FAFAFA"/>
<path d="M130.766 33.3478C130.983 33.3448 131.199 33.3776 131.405 33.4447C131.584 33.5039 131.749 33.5991 131.89 33.7244C132.022 33.8427 132.127 33.9875 132.199 34.1493C132.273 34.3187 132.311 34.5021 132.308 34.6872C132.312 34.9271 132.262 35.1649 132.161 35.3828C132.066 35.5904 131.926 35.7741 131.751 35.9207C131.567 36.0732 131.357 36.1894 131.13 36.2631C130.877 36.3459 130.612 36.3864 130.345 36.3833H129.448L129.237 37.866H128.14L128.771 33.3478H130.766ZM131.171 34.7822C131.176 34.7112 131.164 34.6401 131.134 34.5753C131.105 34.5105 131.06 34.454 131.003 34.411C130.874 34.3221 130.719 34.278 130.562 34.2855H129.735L129.569 35.4527H130.404C130.597 35.4566 130.786 35.3975 130.942 35.2842C131.018 35.2257 131.079 35.1493 131.119 35.0618C131.159 34.9743 131.177 34.8782 131.171 34.7822Z" fill="#FAFAFA"/>
<path d="M132.864 37.8533L133.497 33.3477H134.589L134.092 36.9209H136.108L135.973 37.8622L132.864 37.8533Z" fill="#FAFAFA"/>
<path d="M141.119 37.8533H139.946L139.779 37.0411H138.054L137.664 37.8533H136.489L138.84 33.3477H140.027L141.119 37.8533ZM138.463 36.1894H139.607L139.268 34.5202L138.463 36.1894Z" fill="#FAFAFA"/>
<path d="M141.758 33.3477H145.393L145.258 34.2871H143.985L143.481 37.8622H142.391L142.895 34.2782H141.624L141.758 33.3477Z" fill="#FAFAFA"/>
<path d="M148.96 36.0012H147.124L146.862 37.8533H145.765L146.403 33.3477H149.709L149.582 34.2871H147.366L147.246 35.1603H149.082L148.96 36.0012Z" fill="#FAFAFA"/>
<path d="M152.127 37.9594C151.842 37.9638 151.559 37.9082 151.297 37.7963C151.057 37.6951 150.841 37.5442 150.664 37.3534C150.489 37.1625 150.354 36.9389 150.266 36.6954C150.171 36.4376 150.124 36.1649 150.126 35.8904C150.124 35.541 150.194 35.1949 150.332 34.8738C150.466 34.5592 150.659 34.2731 150.901 34.0311C151.145 33.789 151.432 33.594 151.747 33.4556C152.076 33.3113 152.431 33.2379 152.79 33.2405C153.079 33.2363 153.366 33.2912 153.633 33.4018C153.873 33.5024 154.089 33.6517 154.269 33.8403C154.448 34.0289 154.586 34.2526 154.675 34.4973C154.769 34.7551 154.816 35.0278 154.815 35.3023C154.816 35.6519 154.745 35.9979 154.607 36.3189C154.337 36.9636 153.827 37.478 153.185 37.7532C152.85 37.8947 152.49 37.9649 152.127 37.9594ZM152.278 36.898C152.462 36.8993 152.646 36.862 152.815 36.7886C152.984 36.7183 153.136 36.6146 153.264 36.4838C153.394 36.3483 153.498 36.1888 153.568 36.0141C153.646 35.8215 153.684 35.6156 153.681 35.4081C153.695 35.1107 153.591 34.8199 153.391 34.5995C153.296 34.4989 153.181 34.4197 153.054 34.3671C152.926 34.3146 152.788 34.2899 152.65 34.2947C152.471 34.2941 152.294 34.3314 152.131 34.4041C151.966 34.4759 151.816 34.5795 151.691 34.7089C151.559 34.8439 151.454 35.0035 151.383 35.1786C151.303 35.3705 151.263 35.5767 151.266 35.7846C151.252 36.081 151.354 36.3712 151.551 36.5932C151.644 36.6926 151.756 36.7712 151.882 36.8237C152.007 36.8763 152.142 36.9016 152.278 36.898Z" fill="#FAFAFA"/>
<path d="M158.148 33.3478C158.365 33.3451 158.581 33.3778 158.788 33.4446C158.966 33.5043 159.131 33.5994 159.272 33.7243C159.404 33.8426 159.509 33.9874 159.58 34.1492C159.655 34.3187 159.692 34.5021 159.69 34.6871C159.696 35.017 159.596 35.3402 159.405 35.6087C159.211 35.8742 158.948 36.0814 158.644 36.2075L158.628 36.29L159.433 37.7871V37.8624H158.261L157.529 36.3796H156.83L156.62 37.8624H155.528L156.163 33.3478H158.148ZM158.553 34.7821C158.558 34.7112 158.545 34.6401 158.516 34.5753C158.486 34.5105 158.441 34.454 158.384 34.411C158.256 34.3224 158.101 34.2783 157.945 34.2855H157.117L156.952 35.4527H157.786C157.978 35.4569 158.167 35.3977 158.323 35.2842C158.4 35.2257 158.461 35.1493 158.501 35.0618C158.541 34.9742 158.559 34.8782 158.553 34.7821Z" fill="#FAFAFA"/>
<path d="M164.249 35.3629L163.091 36.6574H162.632L161.842 35.3557L161.483 37.8533H160.407L161.046 33.3477H161.926L163.054 35.2804L164.725 33.3477H165.605L164.981 37.8622H163.905L164.249 35.3629Z" fill="#FAFAFA"/>
</svg>
