<svg width="448" height="49" viewBox="0 0 448 49" fill="none" xmlns="http://www.w3.org/2000/svg">
<rect y="0.0351562" width="48" height="48" rx="8" fill="#262626"/>
<path d="M24.0027 17.8819C20.5974 17.8819 17.8508 20.6292 17.8508 24.0352C17.8508 27.4412 20.5974 30.1885 24.0027 30.1885C27.4079 30.1885 30.1546 27.4412 30.1546 24.0352C30.1546 20.6292 27.4079 17.8819 24.0027 17.8819ZM24.0027 28.0356C21.8021 28.0356 20.0031 26.2416 20.0031 24.0352C20.0031 21.8288 21.7968 20.0347 24.0027 20.0347C26.2086 20.0347 28.0022 21.8288 28.0022 24.0352C28.0022 26.2416 26.2032 28.0356 24.0027 28.0356ZM31.8412 17.6302C31.8412 18.4281 31.1987 19.0654 30.4062 19.0654C29.6085 19.0654 28.9713 18.4227 28.9713 17.6302C28.9713 16.8376 29.6138 16.1949 30.4062 16.1949C31.1987 16.1949 31.8412 16.8376 31.8412 17.6302ZM35.9157 19.0868C35.8247 17.1642 35.3856 15.4612 33.9775 14.0581C32.5747 12.655 30.8721 12.2159 28.9499 12.1195C26.9689 12.007 21.0311 12.007 19.0501 12.1195C17.1333 12.2105 15.4307 12.6497 14.0225 14.0528C12.6144 15.4559 12.1807 17.1589 12.0843 19.0815C11.9719 21.0629 11.9719 27.002 12.0843 28.9835C12.1753 30.9061 12.6144 32.6091 14.0225 34.0122C15.4307 35.4153 17.1279 35.8544 19.0501 35.9508C21.0311 36.0633 26.9689 36.0633 28.9499 35.9508C30.8721 35.8598 32.5747 35.4206 33.9775 34.0122C35.3803 32.6091 35.8193 30.9061 35.9157 28.9835C36.0281 27.002 36.0281 21.0683 35.9157 19.0868ZM33.3564 31.1096C32.9388 32.1592 32.1303 32.9679 31.0755 33.391C29.496 34.0175 25.7481 33.8729 24.0027 33.8729C22.2572 33.8729 18.504 34.0122 16.9298 33.391C15.8804 32.9732 15.0719 32.1646 14.649 31.1096C14.0225 29.5297 14.1671 25.781 14.1671 24.0352C14.1671 22.2893 14.0279 18.5352 14.649 16.9607C15.0666 15.9111 15.8751 15.1024 16.9298 14.6794C18.5093 14.0528 22.2572 14.1974 24.0027 14.1974C25.7481 14.1974 29.5014 14.0581 31.0755 14.6794C32.1249 15.0971 32.9334 15.9057 33.3564 16.9607C33.9828 18.5406 33.8383 22.2893 33.8383 24.0352C33.8383 25.781 33.9828 29.5351 33.3564 31.1096Z" fill="#FAFAFA"/>
<rect x="80" y="0.0351562" width="48" height="48" rx="8" fill="#262626"/>
<path d="M113.533 19.1469C113.548 19.3601 113.548 19.5733 113.548 19.7865C113.548 26.2891 108.599 33.7815 99.5533 33.7815C96.7665 33.7815 94.1777 32.9744 92 31.5734C92.396 31.6191 92.7766 31.6343 93.1878 31.6343C95.4873 31.6343 97.6041 30.8577 99.2944 29.5328C97.132 29.4871 95.3198 28.0708 94.6954 26.1216C95 26.1672 95.3046 26.1977 95.6244 26.1977C96.066 26.1977 96.5077 26.1368 96.9188 26.0302C94.665 25.5733 92.9746 23.5936 92.9746 21.2028V21.1419C93.6294 21.5074 94.3909 21.7358 95.1979 21.7662C93.873 20.8829 93.0051 19.3753 93.0051 17.6697C93.0051 16.7561 93.2487 15.9185 93.6751 15.1875C96.0964 18.1723 99.736 20.1215 103.817 20.3347C103.741 19.9693 103.695 19.5886 103.695 19.2079C103.695 16.4972 105.888 14.2891 108.614 14.2891C110.03 14.2891 111.31 14.883 112.208 15.8424C113.32 15.6292 114.386 15.218 115.33 14.6545C114.964 15.7967 114.188 16.7561 113.168 17.3652C114.157 17.2587 115.117 16.9845 116 16.6038C115.33 17.5784 114.492 18.4464 113.533 19.1469Z" fill="#FAFAFA"/>
<rect x="160" y="0.0351562" width="48" height="48" rx="8" fill="#262626"/>
<path d="M195.498 18.238C195.222 17.1987 194.409 16.3802 193.377 16.1024C191.505 15.5977 184 15.5977 184 15.5977C184 15.5977 176.495 15.5977 174.623 16.1024C173.591 16.3802 172.778 17.1987 172.502 18.238C172 20.1218 172 24.0522 172 24.0522C172 24.0522 172 27.9826 172.502 29.8664C172.778 30.9057 173.591 31.6901 174.623 31.9679C176.495 32.4726 184 32.4726 184 32.4726C184 32.4726 191.505 32.4726 193.377 31.9679C194.409 31.6901 195.222 30.9057 195.498 29.8664C196 27.9826 196 24.0522 196 24.0522C196 24.0522 196 20.1218 195.498 18.238ZM181.545 27.6207V20.4837L187.818 24.0523L181.545 27.6207Z" fill="#FAFAFA"/>
<rect x="240" y="0.0351562" width="48" height="48" rx="8" fill="#262626"/>
<path d="M257.372 36.0352H252.396V20.0116H257.372V36.0352ZM254.882 17.8258C253.291 17.8258 252 16.5079 252 14.9168C252 14.1526 252.304 13.4196 252.844 12.8792C253.384 12.3388 254.117 12.0352 254.882 12.0352C255.646 12.0352 256.379 12.3388 256.919 12.8792C257.46 13.4196 257.763 14.1526 257.763 14.9168C257.763 16.5079 256.472 17.8258 254.882 17.8258ZM275.995 36.0352H271.03V28.235C271.03 26.376 270.992 23.992 268.443 23.992C265.856 23.992 265.459 26.0117 265.459 28.101V36.0352H260.489V20.0116H265.261V22.1973H265.331C265.995 20.9384 267.618 19.6098 270.039 19.6098C275.074 19.6098 276 22.9259 276 27.2332V36.0352H275.995Z" fill="#FAFAFA"/>
<rect x="320" y="0.0351562" width="48" height="48" rx="8" fill="#262626"/>
<path d="M349.585 25.5352L350.252 21.1917H346.084V18.3731C346.084 17.1848 346.666 16.0266 348.533 16.0266H350.427V12.3286C350.427 12.3286 348.708 12.0352 347.064 12.0352C343.632 12.0352 341.388 14.1155 341.388 17.8814V21.1917H337.573V25.5352H341.388V36.0352H346.084V25.5352H349.585Z" fill="#FAFAFA"/>
<rect x="400" y="0.0351562" width="48" height="48" rx="8" fill="#262626"/>
<path d="M427.432 23.4352C427.432 24.1672 426.892 24.7672 426.208 24.7672C425.536 24.7672 424.984 24.1672 424.984 23.4352C424.984 22.7032 425.524 22.1032 426.208 22.1032C426.892 22.1032 427.432 22.7032 427.432 23.4352ZM421.828 22.1032C421.144 22.1032 420.604 22.7032 420.604 23.4352C420.604 24.1672 421.156 24.7672 421.828 24.7672C422.512 24.7672 423.052 24.1672 423.052 23.4352C423.064 22.7032 422.512 22.1032 421.828 22.1032ZM434.5 14.5072V36.0352C431.477 33.3636 432.444 34.2479 428.932 30.9832L429.568 33.2032H415.96C414.604 33.2032 413.5 32.0992 413.5 30.7312V14.5072C413.5 13.1392 414.604 12.0352 415.96 12.0352H432.04C433.396 12.0352 434.5 13.1392 434.5 14.5072ZM431.08 25.8832C431.08 22.0192 429.352 18.8872 429.352 18.8872C427.624 17.5912 425.98 17.6272 425.98 17.6272L425.812 17.8192C427.852 18.4432 428.8 19.3432 428.8 19.3432C425.949 17.7809 422.601 17.7806 419.836 18.9952C419.392 19.1992 419.128 19.3432 419.128 19.3432C419.128 19.3432 420.124 18.3952 422.284 17.7712L422.164 17.6272C422.164 17.6272 420.52 17.5912 418.792 18.8872C418.792 18.8872 417.064 22.0192 417.064 25.8832C417.064 25.8832 418.072 27.6232 420.724 27.7072C420.724 27.7072 421.168 27.1672 421.528 26.7112C420.004 26.2552 419.428 25.2952 419.428 25.2952C419.605 25.4187 419.896 25.5789 419.92 25.5952C421.945 26.7294 424.823 27.1011 427.408 26.0152C427.828 25.8592 428.296 25.6312 428.788 25.3072C428.788 25.3072 428.188 26.2912 426.616 26.7352C426.976 27.1912 427.408 27.7072 427.408 27.7072C430.06 27.6232 431.08 25.8832 431.08 25.8832Z" fill="#FAFAFA"/>
</svg>
