<svg width="360" height="40" viewBox="0 0 360 40" fill="none" xmlns="http://www.w3.org/2000/svg">
<rect width="40" height="40" rx="8" fill="#317836"/>
<path d="M20.0027 13.8467C16.5974 13.8467 13.8508 16.594 13.8508 20C13.8508 23.406 16.5974 26.1533 20.0027 26.1533C23.4079 26.1533 26.1546 23.406 26.1546 20C26.1546 16.594 23.4079 13.8467 20.0027 13.8467ZM20.0027 24.0004C17.8021 24.0004 16.0031 22.2064 16.0031 20C16.0031 17.7936 17.7968 15.9996 20.0027 15.9996C22.2086 15.9996 24.0022 17.7936 24.0022 20C24.0022 22.2064 22.2032 24.0004 20.0027 24.0004ZM27.8412 13.595C27.8412 14.3929 27.1987 15.0302 26.4062 15.0302C25.6085 15.0302 24.9713 14.3876 24.9713 13.595C24.9713 12.8024 25.6138 12.1598 26.4062 12.1598C27.1987 12.1598 27.8412 12.8024 27.8412 13.595ZM31.9157 15.0517C31.8247 13.1291 31.3856 11.4261 29.9775 10.023C28.5747 8.61988 26.8721 8.18074 24.9499 8.08435C22.9689 7.97188 17.0311 7.97188 15.0501 8.08435C13.1333 8.17539 11.4307 8.61453 10.0225 10.0176C8.61439 11.4207 8.1807 13.1237 8.08433 15.0463C7.97189 17.0278 7.97189 22.9669 8.08433 24.9483C8.17535 26.8709 8.61439 28.5739 10.0225 29.977C11.4307 31.3801 13.1279 31.8193 15.0501 31.9157C17.0311 32.0281 22.9689 32.0281 24.9499 31.9157C26.8721 31.8246 28.5747 31.3855 29.9775 29.977C31.3803 28.5739 31.8193 26.8709 31.9157 24.9483C32.0281 22.9669 32.0281 17.0331 31.9157 15.0517ZM29.3564 27.0744C28.9388 28.1241 28.1303 28.9327 27.0755 29.3558C25.496 29.9824 21.7481 29.8378 20.0027 29.8378C18.2572 29.8378 14.504 29.977 12.9298 29.3558C11.8804 28.9381 11.0719 28.1294 10.649 27.0744C10.0225 25.4946 10.1671 21.7458 10.1671 20C10.1671 18.2542 10.0279 14.5001 10.649 12.9256C11.0666 11.8759 11.8751 11.0673 12.9298 10.6442C14.5093 10.0176 18.2572 10.1622 20.0027 10.1622C21.7481 10.1622 25.5014 10.023 27.0755 10.6442C28.1249 11.0619 28.9334 11.8706 29.3564 12.9256C29.9828 14.5054 29.8383 18.2542 29.8383 20C29.8383 21.7458 29.9828 25.4999 29.3564 27.0744Z" fill="#FAFAFA"/>
<rect x="64" width="40" height="40" rx="8" fill="#317836"/>
<path d="M93.5331 15.1118C93.5483 15.325 93.5483 15.5382 93.5483 15.7514C93.5483 22.2539 88.5991 29.7463 79.5533 29.7463C76.7665 29.7463 74.1777 28.9392 72 27.5382C72.396 27.5839 72.7766 27.5991 73.1878 27.5991C75.4873 27.5991 77.6041 26.8225 79.2944 25.4976C77.132 25.4519 75.3198 24.0357 74.6954 22.0864C75 22.1321 75.3046 22.1625 75.6244 22.1625C76.066 22.1625 76.5077 22.1016 76.9188 21.9951C74.665 21.5382 72.9746 19.5585 72.9746 17.1676V17.1067C73.6294 17.4722 74.3909 17.7006 75.1979 17.7311C73.873 16.8478 73.0051 15.3402 73.0051 13.6346C73.0051 12.7209 73.2487 11.8833 73.6751 11.1524C76.0964 14.1371 79.736 16.0864 83.8172 16.2996C83.7411 15.9341 83.6954 15.5534 83.6954 15.1727C83.6954 12.462 85.8883 10.2539 88.6142 10.2539C90.0304 10.2539 91.3096 10.8478 92.2081 11.8072C93.3198 11.594 94.3858 11.1828 95.33 10.6194C94.9644 11.7616 94.1878 12.7209 93.1675 13.33C94.1574 13.2235 95.1168 12.9493 96 12.5686C95.3301 13.5432 94.4924 14.4112 93.5331 15.1118Z" fill="#FAFAFA"/>
<rect x="128" width="40" height="40" rx="8" fill="#317836"/>
<path d="M159.498 14.2029C159.222 13.1636 158.409 12.345 157.377 12.0673C155.505 11.5625 148 11.5625 148 11.5625C148 11.5625 140.495 11.5625 138.623 12.0673C137.591 12.3451 136.778 13.1636 136.502 14.2029C136 16.0867 136 20.017 136 20.017C136 20.017 136 23.9474 136.502 25.8312C136.778 26.8705 137.591 27.6549 138.623 27.9327C140.495 28.4375 148 28.4375 148 28.4375C148 28.4375 155.505 28.4375 157.377 27.9327C158.409 27.6549 159.222 26.8705 159.498 25.8312C160 23.9474 160 20.017 160 20.017C160 20.017 160 16.0867 159.498 14.2029ZM145.545 23.5855V16.4486L151.818 20.0171L145.545 23.5855Z" fill="#FAFAFA"/>
<rect x="192" width="40" height="40" rx="8" fill="#317836"/>
<path d="M205.372 32H200.396V15.9764H205.372V32ZM202.882 13.7907C201.291 13.7907 200 12.4728 200 10.8817C200 10.1174 200.304 9.38444 200.844 8.84402C201.384 8.3036 202.117 8 202.882 8C203.646 8 204.379 8.3036 204.919 8.84402C205.46 9.38444 205.763 10.1174 205.763 10.8817C205.763 12.4728 204.472 13.7907 202.882 13.7907ZM223.995 32H219.03V24.1998C219.03 22.3409 218.992 19.9569 216.443 19.9569C213.856 19.9569 213.459 21.9766 213.459 24.0659V32H208.489V15.9764H213.261V18.1622H213.331C213.995 16.9032 215.618 15.5746 218.039 15.5746C223.074 15.5746 224 18.8908 224 23.198V32H223.995Z" fill="#FAFAFA"/>
<rect x="256" width="40" height="40" rx="8" fill="#317836"/>
<path d="M281.584 21.5L282.251 17.1566H278.083V14.338C278.083 13.1497 278.665 11.9914 280.532 11.9914H282.426V8.29344C282.426 8.29344 280.707 8 279.063 8C275.631 8 273.387 10.0803 273.387 13.8463V17.1566H269.572V21.5H273.387V32H278.083V21.5H281.584Z" fill="#FAFAFA"/>
<rect x="320" width="40" height="40" rx="8" fill="#317836"/>
<path d="M343.432 19.4C343.432 20.132 342.892 20.732 342.208 20.732C341.536 20.732 340.984 20.132 340.984 19.4C340.984 18.668 341.524 18.068 342.208 18.068C342.892 18.068 343.432 18.668 343.432 19.4ZM337.828 18.068C337.144 18.068 336.604 18.668 336.604 19.4C336.604 20.132 337.156 20.732 337.828 20.732C338.512 20.732 339.052 20.132 339.052 19.4C339.064 18.668 338.512 18.068 337.828 18.068ZM350.5 10.472V32C347.477 29.3284 348.444 30.2127 344.932 26.948L345.568 29.168H331.96C330.604 29.168 329.5 28.064 329.5 26.696V10.472C329.5 9.104 330.604 8 331.96 8H348.04C349.396 8 350.5 9.104 350.5 10.472ZM347.08 21.848C347.08 17.984 345.352 14.852 345.352 14.852C343.624 13.556 341.98 13.592 341.98 13.592L341.812 13.784C343.852 14.408 344.8 15.308 344.8 15.308C341.949 13.7457 338.601 13.7454 335.836 14.96C335.392 15.164 335.128 15.308 335.128 15.308C335.128 15.308 336.124 14.36 338.284 13.736L338.164 13.592C338.164 13.592 336.52 13.556 334.792 14.852C334.792 14.852 333.064 17.984 333.064 21.848C333.064 21.848 334.072 23.588 336.724 23.672C336.724 23.672 337.168 23.132 337.528 22.676C336.004 22.22 335.428 21.26 335.428 21.26C335.605 21.3836 335.896 21.5437 335.92 21.56C337.945 22.6943 340.823 23.0659 343.408 21.98C343.828 21.824 344.296 21.596 344.788 21.272C344.788 21.272 344.188 22.256 342.616 22.7C342.976 23.156 343.408 23.672 343.408 23.672C346.06 23.588 347.08 21.848 347.08 21.848Z" fill="#FAFAFA"/>
</svg>
