<svg width="20" height="21" viewBox="0 0 20 21" fill="none" xmlns="http://www.w3.org/2000/svg">
<path d="M10.0013 1.73633C5.4013 1.73633 1.66797 5.46966 1.66797 10.0697C1.66797 14.6697 5.4013 18.403 10.0013 18.403C14.6013 18.403 18.3346 14.6697 18.3346 10.0697C18.3346 5.46966 14.6013 1.73633 10.0013 1.73633ZM7.74297 13.6447L4.7513 10.653C4.4263 10.328 4.4263 9.80299 4.7513 9.47799C5.0763 9.153 5.6013 9.153 5.9263 9.47799L8.33464 11.878L14.068 6.14466C14.393 5.81966 14.918 5.81966 15.243 6.14466C15.568 6.46966 15.568 6.99466 15.243 7.31966L8.91797 13.6447C8.6013 13.9697 8.06797 13.9697 7.74297 13.6447Z" fill="#388B3E"/>
</svg>
