<svg width="64" height="65" viewBox="0 0 64 65" fill="none" xmlns="http://www.w3.org/2000/svg">
<g id="Christmas gift" clip-path="url(#clip0_4844_10538)">
<g id="Clip path group">
<mask id="mask0_4844_10538" style="mask-type:luminance" maskUnits="userSpaceOnUse" x="0" y="0" width="64" height="65">
<g id="__lottie_element_2096">
<path id="Vector" d="M64 0.666016H0V64.666H64V0.666016Z" fill="white"/>
</g>
</mask>
<g mask="url(#mask0_4844_10538)">
<g id="Group">
<g id="Group_2">
<g id="Group_3">
<path id="Vector_2" d="M42.1638 63.0094H20.2354C19.0634 63.0094 18.1133 62.0593 18.1133 60.8873V44.6094H44.2858V60.8873C44.2858 62.0593 43.3358 63.0094 42.1638 63.0094Z" fill="#A3A3A3"/>
</g>
</g>
<g id="Group_4">
<g id="Group_5">
<path id="Vector_3" d="M28.3867 62.9674L28.4078 44.5684L34.0078 44.5858L33.9867 62.9674C33.9867 63.2162 33.785 63.4178 33.5362 63.4178H28.8373C28.5885 63.4178 28.3867 63.2162 28.3867 62.9674Z" fill="#525252"/>
</g>
</g>
<g id="Group_6">
<g id="Group_7">
<path id="Vector_4" d="M23.227 37.8893C19.787 42.3693 31.2269 43.8895 31.2269 43.8895C31.2269 43.8895 26.6671 33.4094 23.227 37.8893Z" stroke="#A3A3A3" stroke-width="1.55729" stroke-linecap="round" stroke-linejoin="round"/>
</g>
</g>
<g id="Group_8">
<g id="Group_9">
<path id="Vector_5" d="M39.23 37.8893C42.6699 42.3694 31.2299 43.8892 31.2299 43.8892C31.2299 43.8892 35.79 33.4092 39.23 37.8893Z" stroke="#A3A3A3" stroke-width="1.55729" stroke-linecap="round" stroke-linejoin="round"/>
</g>
</g>
<g id="Group_10">
<g id="Group_11">
<path id="Vector_6" d="M26.2671 40.1672C24.1342 42.9448 31.227 43.8873 31.227 43.8873C31.227 43.8873 28.3999 37.3896 26.2671 40.1672Z" stroke="#A3A3A3" stroke-width="0.965523" stroke-linecap="round" stroke-linejoin="round"/>
</g>
</g>
<g id="Group_12">
<g id="Group_13">
<path id="Vector_7" d="M36.1899 40.1691C38.3227 42.9468 31.2299 43.8891 31.2299 43.8891C31.2299 43.8891 34.0572 37.3915 36.1899 40.1691Z" stroke="#A3A3A3" stroke-width="0.965523" stroke-linecap="round" stroke-linejoin="round"/>
</g>
</g>
<g id="Group_14">
<g id="Group_15">
<path id="Vector_8" d="M45.1777 48.0023H17.2787C17.0299 48.0023 16.8281 47.8006 16.8281 47.5518V42.8529C16.8281 42.6041 17.0299 42.4023 17.2787 42.4023H45.1777C45.4265 42.4023 45.6281 42.6041 45.6281 42.8529V47.5518C45.6281 47.8006 45.4265 48.0023 45.1777 48.0023Z" fill="#737373"/>
</g>
</g>
<g id="Group_16">
<g id="Group_17">
<path id="Vector_9" d="M28.3945 47.8718V42.4023H33.9945V47.8718C33.9945 48.1206 33.7928 48.3223 33.544 48.3223H28.8451C28.5963 48.3223 28.3945 48.1206 28.3945 47.8718Z" fill="#525252"/>
</g>
</g>
</g>
</g>
</g>
</g>
<defs>
<clipPath id="clip0_4844_10538">
<rect width="64" height="64" fill="white" transform="translate(0 0.666016)"/>
</clipPath>
</defs>
</svg>
