<svg width="978" height="556" viewBox="0 0 978 556" fill="none" xmlns="http://www.w3.org/2000/svg">
<rect width="978" height="530" transform="translate(0 0.5)" fill="white"/>
<path fill-rule="evenodd" clip-rule="evenodd" d="M415.297 75.6982C507.922 68.9176 598.307 -16.9302 679.167 28.754C765.752 77.673 811.711 192.628 796.097 290.844C781.658 381.678 686.788 430.808 607.77 477.877C552.869 510.58 490.23 513.432 426.371 511.078C368.062 508.929 311.743 499.26 264.354 465.219C208.32 424.97 158.104 374.753 142.902 307.458C124.291 225.074 109.779 120.458 174.106 65.7271C237.816 11.5213 331.871 81.8054 415.297 75.6982Z" fill="#E2F6F1"/>
<g style="mix-blend-mode:multiply" opacity="0.24" filter="url(#filter0_f_1317_13226)">
<path d="M48.9616 381.058L65.1642 309.656L250.774 126.54L315.949 141.329L294.346 236.532L257.103 228.08L156.877 327.687L156.277 330.331L358.454 376.21L342.252 447.612L48.9616 381.058ZM202.559 471.526L219.512 396.818L228.558 366.198L281.366 133.482L367.824 153.101L291.012 491.598L202.559 471.526Z" fill="#02563A"/>
</g>
<g style="mix-blend-mode:multiply" opacity="0.24" filter="url(#filter1_f_1317_13226)">
<path d="M639.579 492.41L623.474 420.986L712.205 175.814L777.401 161.114L798.874 256.345L761.619 264.745L714.019 397.79L714.616 400.435L916.856 354.834L932.96 426.258L639.579 492.41ZM817.159 507.965L800.309 433.235L795.296 401.702L742.807 168.914L829.291 149.413L905.639 488.015L817.159 507.965Z" fill="#02563A"/>
</g>
<g filter="url(#filter2_d_1317_13226)">
<ellipse cx="62.7842" cy="365.386" rx="37.832" ry="39.2436" transform="rotate(1.11795 62.7842 365.386)" fill="#E9A400"/>
<circle cx="62.8117" cy="363.974" r="37.832" transform="rotate(1.11795 62.8117 363.974)" fill="#FAC139"/>
<g style="mix-blend-mode:multiply" opacity="0.24">
<path d="M63.2343 335.086C42.2707 334.677 32.7095 353.378 31.0669 362.79L30.1081 358.865L34.2458 344.592L45.2628 334.735L57.9009 328.628L78.7204 332.564L92.6672 343.802L96.3579 362.088L94.5786 364.03C93.5409 354.503 84.1979 335.495 63.2343 335.086Z" fill="#E9A400"/>
</g>
<g style="mix-blend-mode:multiply" opacity="0.24">
<path fill-rule="evenodd" clip-rule="evenodd" d="M75.1106 361.515C74.9232 361.511 74.7743 361.356 74.778 361.169L74.785 360.808C74.7921 360.447 74.5141 360.147 74.157 360.093C73.6231 360.011 73.1362 359.876 72.6963 359.688C71.9662 359.376 71.4028 358.913 71.0062 358.299C70.7117 357.843 70.5284 357.301 70.4561 356.672C70.4129 356.297 70.7299 355.992 71.1079 356L72.5223 356.027C72.8811 356.034 73.1538 356.328 73.277 356.665C73.3216 356.787 73.3788 356.899 73.4486 357.002C73.6247 357.26 73.8694 357.459 74.1829 357.596C74.2739 357.635 74.369 357.669 74.4683 357.698C74.6644 357.755 74.8477 357.598 74.8517 357.394L74.8899 355.435C74.893 355.277 74.7872 355.138 74.6345 355.099L74.0494 354.95C73.0292 354.695 72.229 354.298 71.6497 353.761C71.0705 353.22 70.7915 352.5 70.813 351.6C70.8234 350.866 71.0325 350.227 71.4402 349.682C71.8479 349.137 72.4053 348.718 73.1128 348.422C73.5125 348.256 73.9423 348.139 74.4025 348.072C74.7562 348.02 75.0402 347.734 75.0471 347.377L75.0542 347.014C75.0579 346.827 75.2127 346.678 75.4001 346.682L75.6697 346.687C75.857 346.691 76.006 346.845 76.0023 347.033L75.9953 347.391C75.9883 347.749 76.2625 348.046 76.6152 348.111C77.0846 348.196 77.5124 348.333 77.8987 348.522C78.2516 348.691 78.5617 348.894 78.8291 349.131C79.0717 349.345 79.2792 349.587 79.4515 349.856C79.6981 350.242 79.8594 350.667 79.9353 351.131C79.9962 351.504 79.6777 351.808 79.3002 351.801L77.8657 351.773C77.5146 351.766 77.2492 351.477 77.0866 351.166C77.005 351.01 76.8931 350.874 76.7509 350.76C76.6285 350.659 76.4837 350.577 76.3165 350.516C76.1219 350.444 75.9326 350.603 75.9286 350.81L75.8985 352.352C75.8923 352.668 76.1059 352.947 76.4131 353.023L76.498 353.044C77.0814 353.183 77.5941 353.364 78.0372 353.585C78.484 353.806 78.8567 354.066 79.1552 354.366C79.458 354.665 79.6843 355.008 79.8351 355.393C79.9855 355.779 80.0579 356.209 80.0526 356.684C80.0425 357.091 79.9787 357.465 79.8611 357.807C79.7617 358.095 79.6243 358.361 79.4486 358.603C79.0644 359.132 78.5186 359.533 77.8115 359.805C77.3892 359.969 76.9153 360.08 76.3903 360.138C76.0306 360.178 75.7401 360.467 75.7331 360.829L75.7261 361.188C75.7224 361.375 75.5676 361.524 75.3802 361.52L75.1106 361.515ZM76.2746 357.677C76.2428 357.689 76.2102 357.7 76.1767 357.71C75.9786 357.77 75.796 357.604 75.8 357.397L75.8296 355.881C75.8341 355.654 76.0577 355.494 76.2669 355.583C76.2798 355.589 76.2925 355.595 76.3051 355.6C76.3162 355.605 76.3272 355.61 76.338 355.615C76.6171 355.736 76.8223 355.879 76.9542 356.044C77.0858 356.205 77.1516 356.398 77.1509 356.622C77.1426 356.862 77.0631 357.072 76.9132 357.255C76.7629 357.437 76.55 357.578 76.2746 357.677ZM74.6056 350.48C74.8023 350.416 74.9846 350.583 74.9805 350.79L74.9482 352.446C74.9463 352.543 74.8515 352.61 74.7609 352.576C74.5916 352.511 74.4415 352.441 74.3108 352.363L74.211 352.298C74.0627 352.191 73.9495 352.069 73.8714 351.932C73.7969 351.795 73.7652 351.638 73.7763 351.461C73.7813 351.332 73.8072 351.212 73.8539 351.102C73.8858 351.027 73.9274 350.957 73.9783 350.891C74.1051 350.723 74.2924 350.594 74.5409 350.502C74.562 350.494 74.5836 350.487 74.6056 350.48ZM52.7418 352.263L51.9109 349.58C51.7175 348.956 50.8403 348.939 50.6228 349.555L49.6879 352.203L46.863 352.143C46.2002 352.129 45.9125 352.976 46.4467 353.368L48.6887 355.015L47.7559 357.624C47.5347 358.243 48.2343 358.784 48.7772 358.413L51.1254 356.812L53.4098 358.504C53.9379 358.895 54.658 358.382 54.461 357.755L53.6306 355.112L55.9351 353.553C56.4843 353.182 56.2298 352.324 55.567 352.313L52.7418 352.263ZM80.2547 378.974C75.6241 383.268 69.3962 385.84 62.5851 385.707C55.7736 385.574 49.6507 382.761 45.1911 378.29C44.6743 377.771 44.7071 376.934 45.2346 376.427L47.924 373.84C48.4812 373.305 49.3699 373.346 49.9225 373.886C53.2288 377.12 57.7251 379.149 62.7111 379.247C67.6968 379.344 72.2688 377.492 75.6987 374.389C76.2721 373.871 77.1617 373.864 77.6976 374.421L80.284 377.111C80.7913 377.638 80.7914 378.476 80.2547 378.974Z" fill="#FDB002"/>
</g>
<path fill-rule="evenodd" clip-rule="evenodd" d="M75.1345 360.292C74.9471 360.288 74.7982 360.133 74.8019 359.946L74.8089 359.585C74.8159 359.223 74.538 358.924 74.1808 358.869C73.6469 358.788 73.16 358.653 72.7201 358.465C71.9901 358.153 71.4267 357.69 71.03 357.076C70.7356 356.62 70.5522 356.078 70.4799 355.449C70.4367 355.073 70.7538 354.769 71.1318 354.777L72.5462 354.804C72.9049 354.811 73.1777 355.105 73.3009 355.442C73.3455 355.564 73.4027 355.676 73.4725 355.779C73.6486 356.037 73.8932 356.235 74.2068 356.373C74.2977 356.412 74.3928 356.446 74.4921 356.475C74.6883 356.532 74.8715 356.375 74.8755 356.171L74.9138 354.211C74.9168 354.054 74.8111 353.915 74.6584 353.876L74.0733 353.727C73.053 353.471 72.2529 353.075 71.6736 352.538C71.0944 351.997 70.8153 351.277 70.8369 350.377C70.8472 349.643 71.0564 349.004 71.4641 348.459C71.8718 347.914 72.4292 347.495 73.1367 347.199C73.5363 347.032 73.9662 346.916 74.4264 346.849C74.7801 346.797 75.064 346.511 75.071 346.154L75.0781 345.791C75.0817 345.604 75.2366 345.455 75.4239 345.458L75.6936 345.464C75.8809 345.467 76.0298 345.622 76.0262 345.81L76.0192 346.168C76.0122 346.526 76.2864 346.823 76.639 346.887C77.1085 346.973 77.5363 347.11 77.9226 347.298C78.2754 347.468 78.5856 347.671 78.853 347.908C79.0955 348.122 79.3031 348.364 79.4754 348.633C79.722 349.018 79.8833 349.443 79.9592 349.908C80.02 350.28 79.7015 350.585 79.3241 350.578L77.8896 350.55C77.5385 350.543 77.273 350.254 77.1105 349.943C77.0289 349.786 76.9169 349.651 76.7747 349.537C76.6524 349.435 76.5076 349.354 76.3403 349.293C76.1458 349.221 75.9565 349.38 75.9524 349.587L75.9224 351.128C75.9162 351.445 76.1297 351.724 76.437 351.8L76.5218 351.821C77.1053 351.96 77.618 352.14 78.0611 352.361C78.5078 352.582 78.8806 352.843 79.1791 353.142C79.4819 353.442 79.7081 353.785 79.8589 354.17C80.0094 354.556 80.0817 354.986 80.0765 355.461C80.0664 355.867 80.0025 356.242 79.885 356.584C79.7856 356.872 79.6481 357.137 79.4724 357.38C79.0882 357.909 78.5424 358.31 77.8354 358.582C77.413 358.746 76.9392 358.857 76.4142 358.915C76.0544 358.955 75.764 359.244 75.7569 359.606L75.7499 359.964C75.7463 360.152 75.5914 360.301 75.4041 360.297L75.1345 360.292ZM76.2985 356.454C76.2666 356.466 76.234 356.477 76.2006 356.487C76.0024 356.547 75.8199 356.381 75.8239 356.174L75.8535 354.658C75.8579 354.43 76.0816 354.27 76.2907 354.36C76.3038 354.366 76.3167 354.372 76.3295 354.377C76.3404 354.382 76.3512 354.387 76.3619 354.392C76.641 354.513 76.8462 354.656 76.9781 354.821C77.1097 354.982 77.1755 355.175 77.1747 355.399C77.1664 355.638 77.087 355.849 76.9371 356.032C76.7868 356.214 76.5739 356.355 76.2985 356.454ZM74.6295 349.257C74.8262 349.193 75.0084 349.36 75.0044 349.566L74.9721 351.223C74.9702 351.32 74.8754 351.387 74.7848 351.353C74.6154 351.288 74.4654 351.217 74.3346 351.139L74.2348 351.075C74.0866 350.968 73.9734 350.846 73.8953 350.709C73.8208 350.572 73.7891 350.415 73.8001 350.238C73.8052 350.109 73.8311 349.989 73.8778 349.879C73.9097 349.804 73.9513 349.734 74.0022 349.668C74.129 349.5 74.3163 349.37 74.5648 349.279C74.5859 349.271 74.6075 349.264 74.6295 349.257ZM52.7665 351.04L51.9356 348.357C51.7423 347.733 50.865 347.716 50.6475 348.332L49.7126 350.98L46.8877 350.92C46.2249 350.906 45.9372 351.753 46.4714 352.145L48.7134 353.792L47.7807 356.401C47.5595 357.02 48.259 357.561 48.8019 357.19L51.1502 355.589L53.4345 357.281C53.9626 357.672 54.6827 357.159 54.4857 356.532L53.6554 353.889L55.9599 352.33C56.509 351.959 56.2545 351.101 55.5917 351.09L52.7665 351.04ZM80.2787 377.751C75.6481 382.045 69.4201 384.617 62.609 384.484C55.7975 384.351 49.6746 381.538 45.2151 377.067C44.6982 376.548 44.731 375.711 45.2586 375.204L47.9479 372.617C48.5051 372.082 49.3938 372.123 49.9465 372.663C53.2527 375.897 57.749 377.927 62.735 378.024C67.7207 378.121 72.2927 376.269 75.7226 373.166C76.296 372.648 77.1856 372.641 77.7215 373.198L80.3079 375.888C80.8152 376.415 80.8153 377.253 80.2787 377.751Z" fill="#F9F8E4"/>
<path fill-rule="evenodd" clip-rule="evenodd" d="M62.0736 401.799C82.9637 402.207 100.229 385.603 100.637 364.713C101.044 343.822 84.4399 326.557 63.5499 326.15C42.6598 325.742 25.3946 342.346 24.987 363.236C24.5793 384.127 41.1836 401.392 62.0736 401.799ZM62.1911 395.777C44.627 395.434 30.6666 380.918 31.0094 363.354C31.3521 345.79 45.8682 331.829 63.4323 332.172C80.9965 332.515 94.9569 347.031 94.6141 364.595C94.2714 382.159 79.7553 396.12 62.1911 395.777Z" fill="#F5D268"/>
<g clip-path="url(#clip0_1317_13226)">
<g style="mix-blend-mode:lighten" opacity="0.36" filter="url(#filter3_f_1317_13226)">
<path fill-rule="evenodd" clip-rule="evenodd" d="M72.4193 319.565L109.057 305.19L117.105 325.703C112.691 324.517 108.063 323.843 103.288 323.75C93.6406 323.562 84.5027 325.765 76.4403 329.814L72.4193 319.565ZM69.3506 334.038L64.839 322.54L49.5206 328.55L56.5034 346.347C60.1219 341.607 64.4598 337.451 69.3506 334.038ZM92.356 437.725C95.186 438.213 98.0885 438.493 101.048 438.551C104.139 438.611 107.178 438.426 110.146 438.014L121.719 467.512L106.401 473.522L92.356 437.725ZM118.216 436.289C131.846 432.326 143.416 423.437 150.823 411.641L165.937 450.162L129.3 464.537L118.216 436.289Z" fill="white"/>
</g>
</g>
</g>
<g filter="url(#filter4_d_1317_13226)">
<ellipse cx="854.197" cy="293.986" rx="37.832" ry="39.2436" transform="rotate(3.99923 854.197 293.986)" fill="#E9A400"/>
<circle cx="854.296" cy="292.578" r="37.832" transform="rotate(3.99923 854.296 292.578)" fill="#FAC139"/>
<g style="mix-blend-mode:multiply" opacity="0.24">
<path d="M856.17 263.747C835.254 262.285 824.764 280.482 822.651 289.8L821.89 285.831L826.74 271.784L838.239 262.493L851.168 257.029L871.763 262.007L885.128 273.932L887.894 292.38L886.02 294.23C885.462 284.663 877.087 265.209 856.17 263.747Z" fill="#E9A400"/>
</g>
<g style="mix-blend-mode:multiply" opacity="0.24">
<path fill-rule="evenodd" clip-rule="evenodd" d="M866.702 290.74C866.515 290.727 866.374 290.565 866.388 290.378L866.413 290.017C866.438 289.657 866.175 289.344 865.821 289.271C865.292 289.163 864.813 289.004 864.383 288.794C863.669 288.446 863.13 287.955 862.765 287.322C862.494 286.852 862.338 286.301 862.297 285.669C862.273 285.292 862.605 285.004 862.982 285.031L864.393 285.129C864.751 285.154 865.009 285.461 865.115 285.804C865.153 285.928 865.205 286.043 865.269 286.149C865.432 286.416 865.667 286.626 865.973 286.779C866.062 286.823 866.155 286.862 866.253 286.896C866.446 286.962 866.637 286.815 866.651 286.611L866.788 284.656C866.799 284.499 866.7 284.355 866.549 284.308L865.973 284.13C864.966 283.824 864.187 283.387 863.636 282.822C863.084 282.253 862.842 281.52 862.909 280.622C862.956 279.889 863.197 279.261 863.631 278.738C864.066 278.214 864.644 277.823 865.365 277.563C865.773 277.417 866.208 277.322 866.671 277.278C867.027 277.245 867.325 276.973 867.35 276.617L867.375 276.255C867.388 276.068 867.55 275.927 867.737 275.94L868.006 275.959C868.193 275.972 868.334 276.134 868.321 276.321L868.296 276.678C868.271 277.036 868.53 277.346 868.879 277.428C869.343 277.537 869.764 277.695 870.14 277.903C870.484 278.09 870.784 278.308 871.039 278.559C871.27 278.785 871.465 279.036 871.624 279.314C871.851 279.711 871.99 280.144 872.043 280.612C872.085 280.987 871.752 281.275 871.375 281.249L869.944 281.149C869.593 281.124 869.343 280.822 869.196 280.503C869.122 280.343 869.017 280.202 868.881 280.081C868.764 279.974 868.624 279.885 868.46 279.815C868.269 279.734 868.072 279.883 868.057 280.09L867.95 281.628C867.928 281.944 868.127 282.233 868.43 282.325L868.514 282.35C869.089 282.518 869.593 282.724 870.024 282.967C870.459 283.21 870.818 283.489 871.101 283.803C871.389 284.117 871.597 284.471 871.729 284.864C871.859 285.256 871.91 285.69 871.881 286.164C871.85 286.569 871.768 286.94 871.633 287.276C871.519 287.558 871.369 287.816 871.181 288.05C870.771 288.559 870.206 288.932 869.486 289.168C869.056 289.311 868.577 289.398 868.05 289.429C867.688 289.451 867.384 289.725 867.359 290.086L867.334 290.444C867.32 290.631 867.158 290.772 866.971 290.759L866.702 290.74ZM868.058 286.966C868.025 286.976 867.992 286.985 867.958 286.993C867.757 287.044 867.583 286.869 867.598 286.662L867.704 285.149C867.72 284.922 867.951 284.774 868.155 284.874C868.179 284.886 868.202 284.897 868.225 284.909C868.497 285.044 868.695 285.198 868.819 285.369C868.942 285.537 868.998 285.732 868.986 285.956C868.966 286.195 868.876 286.401 868.717 286.576C868.558 286.751 868.338 286.881 868.058 286.966ZM866.753 279.693C866.952 279.64 867.126 279.815 867.112 280.022L866.996 281.675C866.989 281.771 866.891 281.833 866.802 281.795C866.637 281.721 866.49 281.643 866.364 281.559L866.267 281.49C866.124 281.375 866.018 281.248 865.946 281.107C865.879 280.967 865.855 280.808 865.875 280.632C865.887 280.503 865.918 280.385 865.971 280.277C866.006 280.204 866.051 280.136 866.106 280.073C866.241 279.911 866.434 279.791 866.687 279.712C866.708 279.706 866.73 279.699 866.753 279.693ZM844.827 280.375L844.132 277.654C843.97 277.021 843.095 276.96 842.847 277.564L841.78 280.162L838.962 279.96C838.3 279.912 837.97 280.744 838.484 281.163L840.641 282.92L839.578 285.479C839.326 286.086 839.997 286.661 840.558 286.319L842.984 284.838L845.18 286.642C845.688 287.059 846.433 286.583 846.268 285.947L845.571 283.265L847.951 281.824C848.518 281.481 848.307 280.612 847.646 280.567L844.827 280.375ZM870.962 308.435C866.122 312.491 859.772 314.747 852.977 314.271C846.18 313.796 840.207 310.679 835.978 305.989C835.487 305.446 835.562 304.611 836.115 304.131L838.931 301.683C839.514 301.176 840.399 301.262 840.924 301.829C844.064 305.225 848.452 307.478 853.427 307.826C858.402 308.174 863.061 306.554 866.643 303.627C867.241 303.138 868.13 303.177 868.637 303.76L871.085 306.576C871.565 307.129 871.523 307.965 870.962 308.435Z" fill="#FDB002"/>
</g>
<path fill-rule="evenodd" clip-rule="evenodd" d="M866.788 289.519C866.601 289.506 866.46 289.344 866.473 289.157L866.498 288.797C866.523 288.437 866.261 288.123 865.907 288.051C865.378 287.943 864.898 287.783 864.468 287.574C863.755 287.225 863.215 286.735 862.85 286.101C862.579 285.631 862.423 285.08 862.383 284.449C862.358 284.072 862.69 283.784 863.067 283.81L864.479 283.909C864.837 283.934 865.094 284.241 865.2 284.584C865.239 284.708 865.29 284.823 865.355 284.929C865.518 285.196 865.752 285.406 866.058 285.559C866.147 285.603 866.24 285.641 866.338 285.675C866.531 285.742 866.722 285.595 866.736 285.391L866.873 283.436C866.884 283.279 866.785 283.135 866.635 283.088L866.058 282.91C865.052 282.603 864.273 282.167 863.721 281.602C863.17 281.032 862.927 280.299 862.994 279.401C863.041 278.669 863.282 278.041 863.717 277.517C864.151 276.994 864.729 276.603 865.451 276.343C865.858 276.197 866.293 276.102 866.756 276.058C867.112 276.024 867.41 275.753 867.435 275.396L867.46 275.034C867.473 274.847 867.636 274.706 867.822 274.72L868.091 274.738C868.278 274.751 868.419 274.914 868.406 275.1L868.381 275.458C868.356 275.815 868.615 276.126 868.964 276.208C869.429 276.317 869.849 276.475 870.226 276.683C870.569 276.869 870.869 277.088 871.124 277.338C871.356 277.564 871.551 277.816 871.709 278.094C871.936 278.491 872.076 278.924 872.128 279.391C872.17 279.766 871.837 280.054 871.46 280.028L870.029 279.928C869.679 279.904 869.428 279.602 869.281 279.283C869.208 279.123 869.103 278.982 868.967 278.86C868.849 278.753 868.709 278.664 868.545 278.595C868.354 278.514 868.157 278.663 868.143 278.87L868.035 280.407C868.013 280.723 868.212 281.012 868.515 281.104L868.599 281.129C869.175 281.297 869.678 281.503 870.109 281.746C870.544 281.989 870.904 282.269 871.187 282.583C871.474 282.897 871.683 283.251 871.814 283.643C871.945 284.036 871.995 284.469 871.966 284.943C871.936 285.349 871.853 285.72 871.719 286.055C871.605 286.338 871.454 286.596 871.267 286.829C870.856 287.339 870.291 287.711 869.571 287.948C869.141 288.09 868.662 288.177 868.135 288.209C867.774 288.231 867.469 288.504 867.444 288.865L867.419 289.223C867.406 289.41 867.244 289.551 867.057 289.538L866.788 289.519ZM868.143 285.745C868.111 285.755 868.078 285.764 868.044 285.773C867.843 285.823 867.669 285.648 867.683 285.442L867.789 283.929C867.805 283.702 868.036 283.553 868.241 283.654C868.264 283.665 868.288 283.677 868.31 283.689C868.583 283.824 868.781 283.977 868.904 284.148C869.027 284.316 869.083 284.512 869.071 284.735C869.051 284.974 868.961 285.181 868.802 285.355C868.643 285.53 868.423 285.66 868.143 285.745ZM866.838 278.473C867.038 278.419 867.211 278.595 867.197 278.801L867.081 280.454C867.075 280.551 866.977 280.613 866.888 280.574C866.722 280.501 866.576 280.423 866.449 280.339L866.353 280.269C866.21 280.155 866.103 280.028 866.032 279.887C865.964 279.746 865.941 279.588 865.96 279.411C865.972 279.283 866.004 279.164 866.056 279.056C866.092 278.983 866.137 278.915 866.191 278.852C866.326 278.691 866.52 278.571 866.772 278.492C866.785 278.488 866.797 278.484 866.809 278.481C866.819 278.478 866.828 278.476 866.838 278.473ZM844.913 279.155L844.218 276.434C844.056 275.801 843.181 275.74 842.933 276.344L841.866 278.942L839.048 278.74C838.387 278.692 838.057 279.523 838.57 279.942L840.727 281.7L839.664 284.259C839.412 284.866 840.084 285.441 840.644 285.098L843.07 283.617L845.267 285.422C845.774 285.839 846.519 285.363 846.354 284.727L845.658 282.045L848.038 280.604C848.605 280.261 848.394 279.392 847.732 279.347L844.913 279.155ZM871.048 307.215C866.207 311.271 859.858 313.526 853.062 313.051C846.266 312.576 840.292 309.459 836.063 304.769C835.573 304.226 835.648 303.391 836.2 302.911L839.016 300.463C839.599 299.956 840.485 300.041 841.01 300.609C844.149 304.005 848.538 306.258 853.513 306.606C858.487 306.954 863.147 305.333 866.728 302.407C867.327 301.918 868.216 301.957 868.723 302.54L871.171 305.356C871.651 305.908 871.609 306.745 871.048 307.215Z" fill="#F9F8E4"/>
<path fill-rule="evenodd" clip-rule="evenodd" d="M851.657 330.318C872.5 331.775 890.578 316.06 892.036 295.217C893.493 274.373 877.777 256.295 856.934 254.838C836.091 253.381 818.013 269.096 816.556 289.94C815.099 310.783 830.814 328.861 851.657 330.318ZM852.077 324.309C834.553 323.084 821.339 307.884 822.565 290.36C823.79 272.835 838.989 259.622 856.514 260.847C874.039 262.072 887.252 277.272 886.027 294.797C884.801 312.321 869.602 325.534 852.077 324.309Z" fill="#F5D268"/>
<g clip-path="url(#clip1_1317_13226)">
<g style="mix-blend-mode:lighten" opacity="0.36" filter="url(#filter5_f_1317_13226)">
<path fill-rule="evenodd" clip-rule="evenodd" d="M866.123 248.708L903.437 236.193L910.444 257.084C906.095 255.678 901.507 254.773 896.742 254.439C887.117 253.766 877.88 255.507 869.624 259.146L866.123 248.708ZM862.331 263.009L858.403 251.298L842.802 256.53L848.881 274.656C852.733 270.104 857.275 266.171 862.331 263.009ZM880.095 367.721C882.897 368.35 885.782 368.776 888.734 368.982C891.818 369.198 894.863 369.166 897.848 368.903L907.924 398.946L892.323 404.178L880.095 367.721ZM905.995 367.587C919.807 364.314 931.809 356.017 939.8 344.609L952.958 383.841L915.644 396.356L905.995 367.587Z" fill="white"/>
</g>
</g>
</g>
<path d="M37.2487 362.195L53.4513 290.793L239.061 107.677L304.236 122.467L282.633 217.669L245.39 209.218L145.164 308.824L144.564 311.469L346.742 357.347L330.539 428.749L37.2487 362.195ZM190.846 452.663L207.799 377.956L216.845 347.335L269.654 114.619L356.111 134.238L279.299 472.735L190.846 452.663Z" fill="#059C69"/>
<path d="M624.734 475.333L608.629 403.909L697.36 158.737L762.556 144.037L784.028 239.268L746.774 247.669L699.174 380.713L699.77 383.359L902.011 337.758L918.115 409.181L624.734 475.333ZM802.314 490.889L785.464 416.158L780.451 384.625L727.962 151.837L814.446 132.336L890.794 470.938L802.314 490.889Z" fill="#059C69"/>
<g filter="url(#filter6_d_1317_13226)">
<ellipse cx="506.196" cy="272.977" rx="177.417" ry="184.037" transform="rotate(-12.0008 506.196 272.977)" fill="#E9A400"/>
<circle cx="504.82" cy="266.502" r="177.417" transform="rotate(-12.0008 504.82 266.502)" fill="#FAC139"/>
<g style="mix-blend-mode:multiply" opacity="0.24">
<path d="M476.001 134.111C379.82 154.556 356.058 250.147 358.574 294.883L350.017 277.977L353.722 208.382L393.548 151.638L444.768 110.294L544.045 106.111L619.705 142.592L656.024 222.178L649.965 232.942C635.085 190.534 572.181 113.666 476.001 134.111Z" fill="#E9A400"/>
</g>
<g style="mix-blend-mode:multiply" opacity="0.24">
<path fill-rule="evenodd" clip-rule="evenodd" d="M558.375 242.177C557.515 242.36 556.67 241.811 556.488 240.951L556.135 239.294C555.783 237.637 554.195 236.565 552.505 236.696C549.98 236.891 547.613 236.794 545.404 236.404C541.737 235.756 538.671 234.241 536.206 231.858C534.376 230.089 532.961 227.807 531.962 225.013C531.365 223.344 532.489 221.617 534.223 221.248L540.713 219.869C542.359 219.519 543.917 220.571 544.839 221.979C545.172 222.489 545.553 222.94 545.98 223.334C547.06 224.327 548.388 224.972 549.967 225.265C550.424 225.348 550.894 225.402 551.379 225.428C552.335 225.48 553.005 224.57 552.806 223.633L550.895 214.642C550.741 213.919 550.11 213.397 549.372 213.382L546.541 213.323C541.609 213.243 537.532 212.282 534.315 210.448C531.094 208.594 529.053 205.603 528.194 201.469C527.46 198.107 527.735 194.964 529.017 192.041C530.299 189.119 532.398 186.61 535.315 184.507C536.963 183.32 538.802 182.329 540.832 181.533C542.393 180.922 543.385 179.313 543.036 177.673L542.683 176.009C542.5 175.15 543.049 174.305 543.908 174.122L545.145 173.859C546.005 173.676 546.85 174.225 547.033 175.085L547.382 176.727C547.731 178.371 549.3 179.437 550.979 179.355C553.214 179.246 555.314 179.415 557.279 179.866C559.07 180.263 560.703 180.86 562.177 181.658C563.512 182.378 564.718 183.261 565.791 184.308C567.328 185.806 568.517 187.575 569.358 189.616C570.032 191.253 568.902 192.982 567.17 193.35L560.588 194.749C558.978 195.092 557.458 194.055 556.384 192.807C555.845 192.181 555.19 191.682 554.418 191.31C553.752 190.978 553.004 190.76 552.175 190.657C551.21 190.538 550.515 191.466 550.717 192.416L552.22 199.487C552.529 200.94 553.801 201.985 555.285 202.007L555.695 202.013C558.508 202.027 561.041 202.304 563.3 202.842C565.576 203.376 567.556 204.171 569.238 205.22C570.939 206.265 572.338 207.589 573.437 209.189C574.534 210.79 575.323 212.678 575.804 214.854C576.191 216.721 576.298 218.501 576.125 220.187C575.977 221.608 575.632 222.966 575.088 224.259C573.896 227.086 571.83 229.498 568.891 231.495C567.136 232.692 565.09 233.703 562.754 234.528C561.154 235.093 560.134 236.72 560.487 238.38L560.837 240.027C561.02 240.886 560.471 241.731 559.612 241.914L558.375 242.177ZM559.606 223.41C559.473 223.497 559.336 223.582 559.194 223.664C558.353 224.15 557.343 223.587 557.141 222.636L555.662 215.681C555.44 214.637 556.291 213.668 557.342 213.856C557.464 213.878 557.584 213.9 557.701 213.924C559.105 214.181 560.194 214.616 560.972 215.229C561.745 215.825 562.25 216.635 562.485 217.658C562.702 218.761 562.564 219.809 562.073 220.802C561.581 221.796 560.759 222.665 559.606 223.41ZM544.323 192.314C545.154 191.815 546.163 192.382 546.365 193.33L547.98 200.931C548.075 201.375 547.713 201.781 547.263 201.722C546.42 201.606 545.66 201.445 544.98 201.228L544.456 201.041C543.665 200.709 543.018 200.273 542.516 199.73C542.03 199.184 541.717 198.5 541.579 197.679C541.465 197.085 541.456 196.51 541.552 195.955C541.618 195.58 541.733 195.215 541.895 194.861C542.296 193.96 543.013 193.168 544.051 192.486C544.139 192.427 544.23 192.37 544.323 192.314ZM446.364 223.73L439.714 212.362C438.167 209.717 434.142 210.573 433.804 213.618L432.353 226.708L419.387 229.439C416.345 230.08 415.932 234.254 418.79 235.478L430.783 240.616L429.3 253.524C428.948 256.586 432.718 258.31 434.804 256.041L443.825 246.229L456.059 251.523C458.887 252.747 461.63 249.639 460.063 246.985L453.457 235.796L462.323 226.225C464.435 223.944 462.36 220.299 459.321 220.951L446.364 223.73ZM600.451 316.442C583.873 340.982 558.166 359.357 526.916 365.999C495.665 372.642 464.707 366.313 439.58 350.638C436.667 348.822 435.926 344.963 437.796 342.084L447.325 327.409C449.3 324.369 453.402 323.61 456.502 325.49C475.045 336.741 497.74 341.224 520.616 336.362C543.49 331.499 562.4 318.172 574.763 300.352C576.83 297.373 580.886 296.397 583.927 298.372L598.602 307.902C601.48 309.771 602.373 313.598 600.451 316.442Z" fill="#FDB002"/>
</g>
<path fill-rule="evenodd" clip-rule="evenodd" d="M557.181 236.565C556.321 236.748 555.476 236.199 555.294 235.34L554.941 233.682C554.589 232.025 553.001 230.953 551.312 231.084C548.786 231.279 546.419 231.182 544.21 230.792C540.543 230.144 537.477 228.629 535.012 226.246C533.182 224.477 531.767 222.195 530.768 219.402C530.171 217.732 531.295 216.005 533.029 215.637L539.519 214.257C541.165 213.907 542.723 214.959 543.645 216.367C543.978 216.877 544.359 217.328 544.786 217.722C545.866 218.715 547.194 219.36 548.773 219.653C549.23 219.736 549.7 219.791 550.185 219.817C551.141 219.868 551.811 218.958 551.612 218.021L549.701 209.03C549.547 208.308 548.917 207.786 548.178 207.77L545.347 207.711C540.415 207.631 536.338 206.671 533.121 204.836C529.9 202.982 527.86 199.992 527 195.857C526.266 192.495 526.541 189.352 527.823 186.43C529.105 183.507 531.204 180.998 534.121 178.895C535.769 177.708 537.608 176.717 539.638 175.921C541.199 175.31 542.191 173.701 541.843 172.061L541.489 170.397C541.306 169.538 541.855 168.693 542.714 168.51L543.952 168.247C544.811 168.065 545.656 168.613 545.839 169.473L546.188 171.115C546.537 172.759 548.106 173.825 549.785 173.743C552.02 173.634 554.12 173.803 556.085 174.254C557.876 174.651 559.509 175.249 560.983 176.047C562.318 176.767 563.524 177.649 564.597 178.696C566.134 180.194 567.323 181.964 568.164 184.005C568.839 185.641 567.708 187.371 565.976 187.739L559.394 189.138C557.784 189.48 556.264 188.444 555.19 187.195C554.651 186.569 553.996 186.07 553.225 185.698C552.558 185.366 551.81 185.148 550.981 185.046C550.016 184.927 549.321 185.854 549.523 186.804L551.026 193.875C551.335 195.328 552.607 196.374 554.091 196.396L554.501 196.402C557.314 196.415 559.848 196.693 562.106 197.23C564.382 197.764 566.362 198.559 568.044 199.608C569.746 200.653 571.144 201.978 572.243 203.578C573.34 205.178 574.129 207.067 574.611 209.243C574.997 211.109 575.104 212.889 574.931 214.575C574.784 215.996 574.438 217.354 573.894 218.648C572.702 221.474 570.636 223.886 567.697 225.883C565.943 227.081 563.896 228.092 561.56 228.916C559.96 229.481 558.941 231.108 559.294 232.768L559.644 234.415C559.826 235.275 559.278 236.119 558.418 236.302L557.181 236.565ZM558.412 217.798C558.279 217.886 558.142 217.97 558 218.052C557.159 218.539 556.149 217.975 555.947 217.025L554.468 210.069C554.246 209.025 555.098 208.056 556.148 208.244C556.27 208.266 556.39 208.289 556.507 208.312C557.911 208.569 559 209.005 559.778 209.617C560.551 210.213 561.056 211.023 561.291 212.046C561.508 213.15 561.37 214.197 560.879 215.19C560.387 216.184 559.565 217.053 558.412 217.798ZM543.129 186.703C543.96 186.204 544.969 186.77 545.171 187.719L546.787 195.319C546.881 195.763 546.519 196.169 546.069 196.11C545.226 195.994 544.466 195.833 543.786 195.616L543.262 195.429C542.471 195.097 541.824 194.661 541.322 194.119C540.836 193.572 540.524 192.889 540.385 192.067C540.271 191.473 540.262 190.899 540.358 190.343C540.424 189.968 540.539 189.603 540.702 189.249C541.102 188.348 541.82 187.556 542.857 186.874C542.945 186.816 543.036 186.759 543.129 186.703ZM445.173 218.118L438.522 206.75C436.975 204.105 432.95 204.961 432.613 208.006L431.162 221.097L418.195 223.828C415.153 224.468 414.741 228.643 417.598 229.867L429.591 235.004L428.108 247.912C427.757 250.974 431.527 252.698 433.612 250.429L442.633 240.617L454.867 245.912C457.695 247.136 460.438 244.027 458.871 241.373L452.265 230.184L461.131 220.613C463.244 218.332 461.169 214.687 458.129 215.339L445.173 218.118ZM599.258 310.83C582.68 335.371 556.973 353.745 525.723 360.388C494.473 367.031 463.514 360.702 438.387 345.027C435.475 343.21 434.733 339.352 436.603 336.473L446.133 321.798C448.107 318.757 452.21 317.998 455.309 319.879C473.852 331.13 496.547 335.613 519.423 330.75C542.298 325.888 561.207 312.56 573.57 294.74C575.637 291.761 579.693 290.786 582.734 292.76L597.409 302.29C600.288 304.16 601.18 307.986 599.258 310.83Z" fill="#F9F8E4"/>
<path fill-rule="evenodd" clip-rule="evenodd" d="M541.709 440.042C637.553 419.668 698.734 325.458 678.36 229.613C657.986 133.768 563.774 72.5888 467.93 92.9622C372.087 113.336 310.906 207.547 331.28 303.392C351.654 399.237 445.866 460.415 541.709 440.042ZM535.836 412.411C455.252 429.541 376.04 378.101 358.911 297.518C341.781 216.936 393.22 137.723 473.804 120.593C554.388 103.463 633.6 154.904 650.729 235.486C667.859 316.069 616.42 395.281 535.836 412.411Z" fill="#F5D268"/>
<g clip-path="url(#clip2_1317_13226)">
<g style="mix-blend-mode:lighten" opacity="0.36" filter="url(#filter7_f_1317_13226)">
<path fill-rule="evenodd" clip-rule="evenodd" d="M501.433 53.4482L653.465 -51.2029L712.056 33.9153C690.633 33.1992 668.78 35.0482 646.871 39.7055C602.609 49.1142 563.219 68.8999 530.706 95.9746L501.433 53.4482ZM502.823 122.816L469.978 75.101L406.413 118.856L457.248 192.708C468.73 167.209 484.118 143.609 502.823 122.816ZM718.258 571.891C731.702 571.104 745.256 569.297 758.833 566.411C773.015 563.396 786.697 559.316 799.813 554.272L884.071 676.678L820.506 720.433L718.258 571.891ZM834.839 537.806C892.873 505.199 936.252 452.282 957.527 390.525L1067.56 550.374L915.526 655.025L834.839 537.806Z" fill="white"/>
</g>
</g>
</g>
<g filter="url(#filter8_df_1317_13226)">
<ellipse cx="129.169" cy="196.061" rx="26.3367" ry="27.3194" transform="rotate(54.2572 129.169 196.061)" fill="#E9A400"/>
<circle cx="129.966" cy="195.487" r="26.3367" transform="rotate(54.2572 129.966 195.487)" fill="#FAC139"/>
<g style="mix-blend-mode:multiply" opacity="0.24">
<path d="M146.234 183.659C137.707 171.812 123.298 174.296 117.37 177.312L119.155 175.139L128.834 171.483L138.924 173.503L147.603 177.992L154.105 191.232L153.67 203.693L145.027 213.384L143.202 213.204C148.075 208.648 154.76 195.506 146.234 183.659Z" fill="#E9A400"/>
</g>
<g style="mix-blend-mode:multiply" opacity="0.24">
<path fill-rule="evenodd" clip-rule="evenodd" d="M136.473 201.311C136.396 201.205 136.42 201.058 136.526 200.981L136.73 200.835C136.934 200.688 136.985 200.408 136.867 200.186C136.689 199.855 136.561 199.527 136.482 199.204C136.351 198.667 136.373 198.159 136.55 197.682C136.681 197.328 136.906 196.999 137.226 196.696C137.417 196.515 137.719 196.565 137.873 196.779L138.448 197.578C138.594 197.781 138.544 198.055 138.408 198.265C138.359 198.34 138.32 198.419 138.292 198.501C138.222 198.707 138.214 198.926 138.268 199.158C138.284 199.225 138.305 199.292 138.33 199.359C138.38 199.493 138.544 199.529 138.66 199.446L139.767 198.649C139.856 198.585 139.889 198.468 139.847 198.367L139.686 197.979C139.402 197.304 139.289 196.692 139.346 196.146C139.405 195.597 139.69 195.141 140.2 194.777C140.613 194.476 141.057 194.326 141.53 194.326C142.004 194.325 142.471 194.46 142.931 194.731C143.19 194.884 143.435 195.075 143.664 195.303C143.841 195.478 144.119 195.517 144.321 195.372L144.526 195.224C144.631 195.148 144.779 195.172 144.855 195.278L144.965 195.43C145.041 195.536 145.017 195.684 144.911 195.76L144.709 195.906C144.506 196.051 144.455 196.328 144.567 196.552C144.715 196.849 144.818 197.144 144.874 197.438C144.927 197.705 144.943 197.963 144.923 198.211C144.905 198.435 144.857 198.652 144.779 198.86C144.667 199.159 144.498 199.426 144.271 199.662C144.089 199.852 143.786 199.801 143.633 199.588L143.049 198.777C142.907 198.579 142.957 198.31 143.062 198.09C143.115 197.979 143.144 197.86 143.148 197.733C143.153 197.623 143.138 197.508 143.102 197.39C143.061 197.251 142.893 197.212 142.776 197.297L141.905 197.923C141.726 198.052 141.66 198.287 141.746 198.491L141.77 198.547C141.936 198.93 142.05 199.29 142.112 199.63C142.175 199.971 142.186 200.287 142.144 200.578C142.103 200.872 142.007 201.141 141.855 201.386C141.703 201.631 141.494 201.851 141.227 202.047C140.996 202.211 140.761 202.332 140.521 202.409C140.32 202.474 140.114 202.508 139.906 202.511C139.451 202.518 139 202.382 138.553 202.102C138.285 201.935 138.025 201.717 137.774 201.449C137.601 201.265 137.319 201.224 137.115 201.371L136.912 201.517C136.806 201.593 136.658 201.569 136.582 201.464L136.473 201.311ZM139.096 200.357C139.076 200.344 139.057 200.33 139.037 200.316C138.921 200.231 138.937 200.06 139.054 199.976L139.911 199.359C140.039 199.266 140.222 199.324 140.259 199.478C140.263 199.496 140.267 199.514 140.271 199.531C140.32 199.737 140.326 199.911 140.289 200.053C140.255 200.194 140.175 200.311 140.05 200.404C139.913 200.5 139.762 200.543 139.598 200.536C139.434 200.529 139.266 200.469 139.096 200.357ZM142.408 196.422C142.526 196.505 142.509 196.676 142.392 196.76L141.456 197.434C141.401 197.473 141.324 197.448 141.305 197.383C141.271 197.262 141.247 197.149 141.236 197.044L141.23 196.961C141.228 196.834 141.249 196.72 141.292 196.619C141.338 196.521 141.412 196.437 141.515 196.369C141.589 196.318 141.667 196.283 141.748 196.263C141.803 196.249 141.859 196.243 141.917 196.244C142.063 196.245 142.214 196.295 142.369 196.395C142.376 196.4 142.383 196.405 142.391 196.41C142.397 196.414 142.402 196.418 142.408 196.422ZM132.285 184.988L133.432 183.405C133.699 183.037 133.342 182.541 132.908 182.677L131.042 183.262L129.896 181.664C129.628 181.289 129.036 181.482 129.04 181.944L129.059 183.88L127.216 184.45C126.779 184.585 126.77 185.201 127.203 185.349L129.076 185.988L129.087 187.967C129.09 188.424 129.676 188.611 129.943 188.239L131.069 186.673L132.899 187.306C133.336 187.457 133.707 186.957 133.437 186.583L132.285 184.988ZM128.896 211.467C124.571 210.681 120.538 208.286 117.767 204.437C114.997 200.588 114.007 196.003 114.635 191.652C114.708 191.147 115.188 190.816 115.691 190.898L118.254 191.316C118.785 191.402 119.134 191.914 119.063 192.448C118.643 195.64 119.39 198.992 121.418 201.81C123.446 204.627 126.387 206.4 129.547 207.015C130.076 207.118 130.451 207.611 130.364 208.142L129.946 210.706C129.864 211.208 129.398 211.558 128.896 211.467Z" fill="#FDB002"/>
</g>
<path fill-rule="evenodd" clip-rule="evenodd" d="M137.163 200.813C137.087 200.707 137.111 200.559 137.217 200.483L137.421 200.336C137.625 200.189 137.676 199.91 137.557 199.688C137.38 199.356 137.252 199.029 137.173 198.705C137.042 198.168 137.064 197.661 137.241 197.184C137.372 196.829 137.597 196.501 137.917 196.198C138.108 196.017 138.41 196.067 138.564 196.28L139.139 197.08C139.285 197.282 139.235 197.557 139.099 197.766C139.05 197.842 139.011 197.921 138.983 198.003C138.913 198.209 138.904 198.428 138.959 198.66C138.975 198.727 138.996 198.794 139.021 198.861C139.071 198.994 139.235 199.031 139.35 198.948L140.458 198.151C140.547 198.087 140.58 197.97 140.538 197.869L140.377 197.48C140.093 196.805 139.98 196.194 140.037 195.647C140.096 195.099 140.381 194.643 140.891 194.279C141.304 193.978 141.748 193.828 142.221 193.827C142.695 193.827 143.161 193.962 143.622 194.233C143.881 194.386 144.126 194.576 144.355 194.805C144.532 194.98 144.81 195.019 145.012 194.874L145.217 194.726C145.322 194.65 145.47 194.674 145.546 194.78L145.656 194.932C145.732 195.038 145.708 195.186 145.602 195.262L145.4 195.407C145.197 195.553 145.146 195.83 145.258 196.053C145.406 196.351 145.509 196.646 145.565 196.94C145.618 197.207 145.634 197.465 145.614 197.713C145.596 197.937 145.548 198.154 145.47 198.362C145.358 198.66 145.189 198.928 144.962 199.164C144.78 199.353 144.477 199.303 144.324 199.09L143.74 198.279C143.597 198.081 143.647 197.812 143.753 197.592C143.806 197.481 143.834 197.362 143.839 197.235C143.844 197.125 143.829 197.01 143.793 196.891C143.752 196.753 143.584 196.714 143.467 196.798L142.596 197.425C142.417 197.554 142.351 197.789 142.437 197.992L142.461 198.048C142.627 198.431 142.741 198.792 142.803 199.131C142.866 199.472 142.877 199.789 142.834 200.08C142.794 200.374 142.698 200.643 142.546 200.888C142.394 201.133 142.185 201.353 141.918 201.548C141.687 201.712 141.452 201.833 141.212 201.911C141.01 201.975 140.805 202.01 140.597 202.013C140.142 202.02 139.69 201.884 139.243 201.603C138.976 201.437 138.716 201.219 138.465 200.951C138.292 200.767 138.01 200.726 137.806 200.873L137.603 201.019C137.497 201.095 137.349 201.071 137.273 200.965L137.163 200.813ZM139.787 199.859C139.767 199.846 139.748 199.832 139.728 199.818C139.612 199.733 139.628 199.562 139.745 199.477L140.602 198.861C140.73 198.768 140.913 198.826 140.95 198.98C140.954 198.998 140.958 199.015 140.962 199.033C141.011 199.239 141.017 199.413 140.98 199.555C140.946 199.696 140.866 199.813 140.741 199.906C140.604 200.002 140.453 200.045 140.289 200.038C140.125 200.031 139.957 199.971 139.787 199.859ZM143.099 195.923C143.216 196.006 143.2 196.178 143.083 196.262L142.147 196.935C142.092 196.975 142.015 196.95 141.996 196.885C141.962 196.764 141.938 196.651 141.927 196.545L141.921 196.463C141.919 196.336 141.94 196.222 141.983 196.121C142.028 196.022 142.103 195.939 142.206 195.871C142.28 195.82 142.357 195.785 142.439 195.764C142.494 195.751 142.55 195.745 142.608 195.746C142.754 195.746 142.905 195.797 143.059 195.897C143.073 195.905 143.086 195.914 143.099 195.923ZM132.976 184.491L134.123 182.908C134.39 182.539 134.033 182.044 133.599 182.18L131.734 182.765L130.588 181.166C130.319 180.791 129.727 180.985 129.731 181.446L129.75 183.383L127.907 183.953C127.47 184.088 127.461 184.703 127.894 184.851L129.767 185.49L129.778 187.469C129.781 187.927 130.368 188.113 130.634 187.742L131.76 186.176L133.591 186.808C134.027 186.959 134.398 186.459 134.128 186.085L132.976 184.491ZM129.587 210.969C125.262 210.183 121.229 207.788 118.458 203.939C115.688 200.09 114.698 195.505 115.326 191.153C115.399 190.649 115.879 190.318 116.381 190.4L118.945 190.818C119.476 190.904 119.825 191.416 119.754 191.95C119.334 195.142 120.081 198.494 122.109 201.312C124.137 204.129 127.078 205.902 130.238 206.517C130.766 206.62 131.141 207.113 131.055 207.644L130.637 210.207C130.555 210.71 130.088 211.06 129.587 210.969Z" fill="#F9F8E4"/>
<path fill-rule="evenodd" clip-rule="evenodd" d="M108.59 210.872C117.087 222.678 133.545 225.36 145.351 216.863C157.157 208.367 159.839 191.909 151.343 180.103C142.846 168.297 126.388 165.614 114.582 174.111C102.776 182.608 100.094 199.066 108.59 210.872ZM111.994 208.422C104.85 198.496 107.106 184.658 117.031 177.515C126.957 170.371 140.795 172.626 147.939 182.552C155.083 192.478 152.827 206.316 142.901 213.46C132.976 220.604 119.138 218.348 111.994 208.422Z" fill="#F5D268"/>
<g clip-path="url(#clip3_1317_13226)">
<g style="mix-blend-mode:lighten" opacity="0.36" filter="url(#filter9_f_1317_13226)">
<path fill-rule="evenodd" clip-rule="evenodd" d="M158.714 182.294L182.021 196.698L173.957 209.746C172.774 206.793 171.216 203.934 169.274 201.235C165.35 195.783 160.307 191.613 154.685 188.813L158.714 182.294ZM149.371 186.629L153.892 179.314L144.147 173.292L137.151 184.613C141.302 184.649 145.428 185.33 149.371 186.629ZM101.226 242.742C102.137 244.522 103.192 246.256 104.396 247.928C105.653 249.675 107.025 251.29 108.495 252.771L96.8978 271.536L87.1532 265.514L101.226 242.742ZM112.825 256.546C120.725 262.483 130.508 265.215 140.171 264.415L125.027 288.92L101.72 274.516L112.825 256.546Z" fill="white"/>
</g>
</g>
</g>
<g filter="url(#filter10_df_1317_13226)">
<ellipse cx="763.417" cy="140.298" rx="26.3367" ry="27.3194" transform="rotate(-10.4532 763.417 140.298)" fill="#E9A400"/>
<circle cx="763.239" cy="139.332" r="26.3367" transform="rotate(-10.4532 763.239 139.332)" fill="#FAC139"/>
<g style="mix-blend-mode:multiply" opacity="0.24">
<path d="M759.493 119.571C745.139 122.219 741.23 136.309 741.424 142.957L740.222 140.414L741.051 130.102L747.188 121.841L754.954 115.911L769.703 115.689L780.784 121.405L785.854 133.361L784.912 134.934C782.874 128.581 773.848 116.923 759.493 119.571Z" fill="#E9A400"/>
</g>
<g style="mix-blend-mode:multiply" opacity="0.24">
<path fill-rule="evenodd" clip-rule="evenodd" d="M771.284 135.937C771.156 135.961 771.032 135.876 771.009 135.748L770.963 135.5C770.918 135.253 770.686 135.088 770.435 135.1C770.059 135.119 769.709 135.095 769.382 135.028C768.841 134.918 768.392 134.68 768.036 134.317C767.771 134.047 767.57 133.703 767.433 133.284C767.351 133.034 767.525 132.782 767.784 132.735L768.752 132.556C768.998 132.511 769.225 132.673 769.356 132.886C769.404 132.963 769.458 133.031 769.52 133.091C769.676 133.243 769.871 133.344 770.104 133.394C770.172 133.408 770.241 133.418 770.313 133.424C770.455 133.435 770.558 133.303 770.532 133.163L770.284 131.821C770.265 131.713 770.173 131.633 770.063 131.628L769.644 131.608C768.912 131.576 768.311 131.417 767.841 131.132C767.37 130.844 767.08 130.392 766.969 129.775C766.873 129.274 766.927 128.808 767.128 128.38C767.33 127.951 767.652 127.587 768.093 127.287C768.343 127.117 768.619 126.978 768.924 126.868C769.158 126.783 769.312 126.548 769.266 126.304L769.221 126.056C769.197 125.927 769.282 125.804 769.41 125.78L769.595 125.746C769.723 125.723 769.846 125.807 769.87 125.936L769.915 126.181C769.96 126.426 770.189 126.591 770.438 126.585C770.77 126.578 771.081 126.612 771.371 126.686C771.635 126.752 771.875 126.848 772.091 126.972C772.286 127.084 772.461 127.22 772.616 127.38C772.838 127.608 773.008 127.875 773.124 128.182C773.218 128.427 773.043 128.679 772.785 128.727L771.803 128.908C771.562 128.953 771.341 128.793 771.186 128.603C771.109 128.508 771.014 128.431 770.901 128.373C770.803 128.321 770.693 128.286 770.57 128.267C770.428 128.246 770.321 128.38 770.347 128.522L770.542 129.578C770.582 129.794 770.766 129.955 770.987 129.964L771.047 129.966C771.465 129.98 771.84 130.031 772.173 130.12C772.508 130.208 772.799 130.334 773.044 130.497C773.292 130.658 773.495 130.861 773.651 131.102C773.808 131.344 773.917 131.628 773.98 131.953C774.03 132.231 774.039 132.496 774.006 132.745C773.978 132.955 773.922 133.156 773.836 133.345C773.648 133.76 773.331 134.11 772.887 134.394C772.622 134.565 772.314 134.707 771.964 134.82C771.725 134.897 771.567 135.134 771.613 135.382L771.658 135.628C771.682 135.756 771.597 135.879 771.469 135.903L771.284 135.937ZM771.542 133.157C771.522 133.17 771.501 133.182 771.48 133.193C771.353 133.262 771.205 133.174 771.179 133.033L770.988 131.994C770.959 131.839 771.089 131.698 771.244 131.73L771.274 131.737L771.297 131.742C771.505 131.786 771.664 131.855 771.777 131.949C771.89 132.04 771.961 132.162 771.992 132.315C772.02 132.48 771.995 132.635 771.918 132.78C771.841 132.926 771.716 133.051 771.542 133.157ZM769.399 128.482C769.524 128.411 769.671 128.499 769.698 128.641L769.907 129.775C769.919 129.841 769.864 129.9 769.797 129.889C769.673 129.869 769.561 129.842 769.46 129.807L769.383 129.777C769.267 129.725 769.173 129.657 769.101 129.575C769.031 129.492 768.987 129.389 768.97 129.267C768.955 129.178 768.956 129.093 768.973 129.011C768.984 128.955 769.003 128.902 769.028 128.85C769.091 128.718 769.201 128.603 769.358 128.506L769.376 128.495C769.383 128.49 769.391 128.486 769.399 128.482ZM754.736 132.751L753.795 131.037C753.576 130.638 752.975 130.749 752.913 131.2L752.645 133.136L750.71 133.49C750.256 133.573 750.178 134.19 750.597 134.383L752.357 135.194L752.085 137.103C752.02 137.556 752.573 137.827 752.891 137.499L754.269 136.079L756.063 136.914C756.478 137.107 756.898 136.656 756.676 136.256L755.74 134.569L757.094 133.185C757.417 132.855 757.124 132.306 756.67 132.39L754.736 132.751ZM777.23 147.126C774.672 150.701 770.783 153.324 766.12 154.185C761.456 155.045 756.887 153.982 753.221 151.555C752.796 151.274 752.702 150.698 752.991 150.279L754.464 148.139C754.769 147.696 755.381 147.6 755.833 147.891C758.54 149.635 761.889 150.392 765.304 149.762C768.717 149.132 771.577 147.23 773.483 144.635C773.801 144.201 774.407 144.073 774.851 144.378L776.99 145.851C777.41 146.14 777.527 146.711 777.23 147.126Z" fill="#FDB002"/>
</g>
<path fill-rule="evenodd" clip-rule="evenodd" d="M771.129 135.1C771 135.123 770.877 135.039 770.854 134.91L770.808 134.663C770.762 134.416 770.531 134.25 770.28 134.263C769.904 134.282 769.553 134.258 769.227 134.191C768.686 134.08 768.237 133.843 767.88 133.48C767.616 133.21 767.415 132.865 767.278 132.447C767.196 132.197 767.37 131.945 767.629 131.897L768.597 131.719C768.843 131.673 769.07 131.836 769.201 132.048C769.248 132.125 769.303 132.194 769.365 132.254C769.521 132.406 769.716 132.507 769.949 132.556C770.016 132.57 770.086 132.58 770.158 132.586C770.299 132.598 770.402 132.465 770.377 132.326L770.129 130.984C770.109 130.876 770.018 130.796 769.908 130.791L769.488 130.771C768.757 130.739 768.156 130.58 767.686 130.295C767.215 130.007 766.924 129.555 766.813 128.938C766.718 128.436 766.771 127.971 766.973 127.542C767.175 127.114 767.497 126.75 767.938 126.45C768.187 126.28 768.464 126.14 768.769 126.03C769.003 125.946 769.156 125.711 769.111 125.466L769.065 125.218C769.042 125.09 769.127 124.967 769.255 124.943L769.439 124.909C769.568 124.885 769.691 124.97 769.715 125.098L769.76 125.343C769.805 125.589 770.034 125.753 770.283 125.748C770.615 125.741 770.926 125.774 771.216 125.849C771.48 125.915 771.72 126.01 771.935 126.135C772.131 126.247 772.306 126.383 772.461 126.542C772.683 126.771 772.853 127.038 772.969 127.344C773.063 127.59 772.888 127.842 772.63 127.89L771.647 128.071C771.407 128.115 771.186 127.955 771.031 127.766C770.954 127.671 770.859 127.594 770.746 127.536C770.648 127.484 770.538 127.448 770.415 127.43C770.273 127.408 770.166 127.543 770.192 127.685L770.386 128.74C770.426 128.957 770.611 129.117 770.831 129.127L770.892 129.129C771.309 129.142 771.684 129.194 772.017 129.282C772.353 129.371 772.643 129.497 772.889 129.659C773.137 129.821 773.339 130.023 773.496 130.265C773.652 130.507 773.762 130.79 773.825 131.115C773.874 131.394 773.883 131.658 773.851 131.908C773.823 132.118 773.767 132.318 773.681 132.508C773.492 132.923 773.176 133.272 772.732 133.557C772.467 133.727 772.159 133.869 771.809 133.982C771.569 134.06 771.412 134.297 771.457 134.545L771.503 134.79C771.526 134.919 771.442 135.042 771.313 135.066L771.129 135.1ZM771.387 132.32C771.367 132.332 771.346 132.344 771.324 132.356C771.198 132.425 771.05 132.337 771.024 132.195L770.832 131.157C770.804 131.001 770.934 130.861 771.089 130.893C771.107 130.897 771.125 130.901 771.142 130.904C771.349 130.948 771.509 131.017 771.622 131.111C771.734 131.203 771.806 131.325 771.837 131.478C771.865 131.642 771.84 131.797 771.763 131.943C771.686 132.088 771.561 132.214 771.387 132.32ZM769.243 127.644C769.369 127.574 769.516 127.662 769.542 127.803L769.752 128.938C769.764 129.004 769.709 129.063 769.642 129.052C769.517 129.031 769.405 129.004 769.305 128.97L769.228 128.94C769.112 128.887 769.018 128.82 768.945 128.737C768.876 128.654 768.832 128.552 768.815 128.429C768.8 128.341 768.801 128.255 768.818 128.173C768.829 128.118 768.847 128.064 768.873 128.012C768.936 127.88 769.046 127.766 769.202 127.669C769.216 127.66 769.229 127.652 769.243 127.644ZM754.582 131.913L753.641 130.2C753.422 129.801 752.821 129.912 752.759 130.362L752.491 132.299L750.556 132.652C750.102 132.735 750.024 133.353 750.443 133.546L752.202 134.356L751.93 136.266C751.866 136.719 752.418 136.99 752.737 136.662L754.115 135.242L755.909 136.076C756.324 136.269 756.743 135.819 756.521 135.419L755.586 133.732L756.94 132.347C757.263 132.018 756.969 131.468 756.516 131.553L754.582 131.913ZM777.075 146.288C774.516 149.864 770.628 152.487 765.964 153.348C761.3 154.208 756.732 153.145 753.066 150.718C752.641 150.437 752.547 149.861 752.836 149.442L754.309 147.302C754.614 146.859 755.226 146.763 755.678 147.054C758.384 148.798 761.734 149.554 765.148 148.924C768.562 148.295 771.422 146.393 773.328 143.798C773.646 143.364 774.252 143.236 774.695 143.541L776.835 145.014C777.254 145.303 777.371 145.874 777.075 146.288Z" fill="#F9F8E4"/>
<path fill-rule="evenodd" clip-rule="evenodd" d="M768.017 165.232C782.321 162.593 791.778 148.858 789.138 134.554C786.499 120.25 772.765 110.793 758.461 113.432C744.157 116.071 734.7 129.806 737.339 144.11C739.978 158.415 753.713 167.871 768.017 165.232ZM767.256 161.108C755.23 163.327 743.682 155.376 741.463 143.35C739.244 131.323 747.195 119.775 759.221 117.556C771.248 115.337 782.796 123.288 785.015 135.315C787.234 147.341 779.283 158.889 767.256 161.108Z" fill="#F5D268"/>
<g clip-path="url(#clip4_1317_13226)">
<g style="mix-blend-mode:lighten" opacity="0.36" filter="url(#filter11_f_1317_13226)">
<path fill-rule="evenodd" clip-rule="evenodd" d="M763.591 107.703L786.571 92.7835L794.924 105.649C791.748 105.457 788.497 105.644 785.228 106.247C778.622 107.466 772.697 110.244 767.764 114.131L763.591 107.703ZM763.519 118.002L758.836 110.79L749.229 117.028L756.476 128.191C758.282 124.453 760.66 121.013 763.519 118.002ZM793.687 185.505C795.685 185.442 797.704 185.228 799.73 184.854C801.847 184.463 803.893 183.913 805.86 183.217L817.872 201.719L808.264 207.957L793.687 185.505ZM811.123 180.914C819.866 176.308 826.515 168.63 829.92 159.551L845.606 183.712L822.627 198.632L811.123 180.914Z" fill="white"/>
</g>
</g>
</g>
<defs>
<filter id="filter0_f_1317_13226" x="36.9614" y="114.54" width="342.862" height="389.058" filterUnits="userSpaceOnUse" color-interpolation-filters="sRGB">
<feFlood flood-opacity="0" result="BackgroundImageFix"/>
<feBlend mode="normal" in="SourceGraphic" in2="BackgroundImageFix" result="shape"/>
<feGaussianBlur stdDeviation="6" result="effect1_foregroundBlur_1317_13226"/>
</filter>
<filter id="filter1_f_1317_13226" x="611.475" y="137.413" width="333.486" height="382.552" filterUnits="userSpaceOnUse" color-interpolation-filters="sRGB">
<feFlood flood-opacity="0" result="BackgroundImageFix"/>
<feBlend mode="normal" in="SourceGraphic" in2="BackgroundImageFix" result="shape"/>
<feGaussianBlur stdDeviation="6" result="effect1_foregroundBlur_1317_13226"/>
</filter>
<filter id="filter2_d_1317_13226" x="12.6523" y="314.938" width="100.319" height="100.319" filterUnits="userSpaceOnUse" color-interpolation-filters="sRGB">
<feFlood flood-opacity="0" result="BackgroundImageFix"/>
<feColorMatrix in="SourceAlpha" type="matrix" values="0 0 0 0 0 0 0 0 0 0 0 0 0 0 0 0 0 0 127 0" result="hardAlpha"/>
<feOffset dy="1.12357"/>
<feGaussianBlur stdDeviation="0.561783"/>
<feComposite in2="hardAlpha" operator="out"/>
<feColorMatrix type="matrix" values="0 0 0 0 0 0 0 0 0 0 0 0 0 0 0 0 0 0 0.25 0"/>
<feBlend mode="normal" in2="BackgroundImageFix" result="effect1_dropShadow_1317_13226"/>
<feBlend mode="normal" in="SourceGraphic" in2="effect1_dropShadow_1317_13226" result="shape"/>
</filter>
<filter id="filter3_f_1317_13226" x="38.6634" y="294.333" width="138.131" height="190.046" filterUnits="userSpaceOnUse" color-interpolation-filters="sRGB">
<feFlood flood-opacity="0" result="BackgroundImageFix"/>
<feBlend mode="normal" in="SourceGraphic" in2="BackgroundImageFix" result="shape"/>
<feGaussianBlur stdDeviation="5.42855" result="effect1_foregroundBlur_1317_13226"/>
</filter>
<filter id="filter4_d_1317_13226" x="805.274" y="244.68" width="98.044" height="98.0441" filterUnits="userSpaceOnUse" color-interpolation-filters="sRGB">
<feFlood flood-opacity="0" result="BackgroundImageFix"/>
<feColorMatrix in="SourceAlpha" type="matrix" values="0 0 0 0 0 0 0 0 0 0 0 0 0 0 0 0 0 0 127 0" result="hardAlpha"/>
<feOffset dy="1.12357"/>
<feGaussianBlur stdDeviation="0.561783"/>
<feComposite in2="hardAlpha" operator="out"/>
<feColorMatrix type="matrix" values="0 0 0 0 0 0 0 0 0 0 0 0 0 0 0 0 0 0 0.25 0"/>
<feBlend mode="normal" in2="BackgroundImageFix" result="effect1_dropShadow_1317_13226"/>
<feBlend mode="normal" in="SourceGraphic" in2="effect1_dropShadow_1317_13226" result="shape"/>
</filter>
<filter id="filter5_f_1317_13226" x="831.945" y="225.336" width="131.871" height="189.7" filterUnits="userSpaceOnUse" color-interpolation-filters="sRGB">
<feFlood flood-opacity="0" result="BackgroundImageFix"/>
<feBlend mode="normal" in="SourceGraphic" in2="BackgroundImageFix" result="shape"/>
<feGaussianBlur stdDeviation="5.42855" result="effect1_foregroundBlur_1317_13226"/>
</filter>
<filter id="filter6_d_1317_13226" x="246.082" y="13.7652" width="541.475" height="541.475" filterUnits="userSpaceOnUse" color-interpolation-filters="sRGB">
<feFlood flood-opacity="0" result="BackgroundImageFix"/>
<feColorMatrix in="SourceAlpha" type="matrix" values="0 0 0 0 0 0 0 0 0 0 0 0 0 0 0 0 0 0 127 0" result="hardAlpha"/>
<feOffset dx="12" dy="18"/>
<feGaussianBlur stdDeviation="12"/>
<feComposite in2="hardAlpha" operator="out"/>
<feColorMatrix type="matrix" values="0 0 0 0 0.760784 0 0 0 0 0.513726 0 0 0 0 0.0156863 0 0 0 0.24 0"/>
<feBlend mode="normal" in2="BackgroundImageFix" result="effect1_dropShadow_1317_13226"/>
<feBlend mode="normal" in="SourceGraphic" in2="effect1_dropShadow_1317_13226" result="shape"/>
</filter>
<filter id="filter7_f_1317_13226" x="355.497" y="-102.118" width="762.977" height="873.467" filterUnits="userSpaceOnUse" color-interpolation-filters="sRGB">
<feFlood flood-opacity="0" result="BackgroundImageFix"/>
<feBlend mode="normal" in="SourceGraphic" in2="BackgroundImageFix" result="shape"/>
<feGaussianBlur stdDeviation="25.4578" result="effect1_foregroundBlur_1317_13226"/>
</filter>
<filter id="filter8_df_1317_13226" x="89.7173" y="155.239" width="114.499" height="114.498" filterUnits="userSpaceOnUse" color-interpolation-filters="sRGB">
<feFlood flood-opacity="0" result="BackgroundImageFix"/>
<feColorMatrix in="SourceAlpha" type="matrix" values="0 0 0 0 0 0 0 0 0 0 0 0 0 0 0 0 0 0 127 0" result="hardAlpha"/>
<feOffset dx="20" dy="20"/>
<feGaussianBlur stdDeviation="9"/>
<feComposite in2="hardAlpha" operator="out"/>
<feColorMatrix type="matrix" values="0 0 0 0 0 0 0 0 0 0 0 0 0 0 0 0 0 0 0.25 0"/>
<feBlend mode="normal" in2="BackgroundImageFix" result="effect1_dropShadow_1317_13226"/>
<feBlend mode="normal" in="SourceGraphic" in2="effect1_dropShadow_1317_13226" result="shape"/>
<feGaussianBlur stdDeviation="2" result="effect2_foregroundBlur_1317_13226"/>
</filter>
<filter id="filter9_f_1317_13226" x="79.5952" y="165.734" width="109.984" height="130.744" filterUnits="userSpaceOnUse" color-interpolation-filters="sRGB">
<feFlood flood-opacity="0" result="BackgroundImageFix"/>
<feBlend mode="normal" in="SourceGraphic" in2="BackgroundImageFix" result="shape"/>
<feGaussianBlur stdDeviation="3.77908" result="effect1_foregroundBlur_1317_13226"/>
</filter>
<filter id="filter10_df_1317_13226" x="722.809" y="98.901" width="114.862" height="114.862" filterUnits="userSpaceOnUse" color-interpolation-filters="sRGB">
<feFlood flood-opacity="0" result="BackgroundImageFix"/>
<feColorMatrix in="SourceAlpha" type="matrix" values="0 0 0 0 0 0 0 0 0 0 0 0 0 0 0 0 0 0 127 0" result="hardAlpha"/>
<feOffset dx="20" dy="20"/>
<feGaussianBlur stdDeviation="9"/>
<feComposite in2="hardAlpha" operator="out"/>
<feColorMatrix type="matrix" values="0 0 0 0 0 0 0 0 0 0 0 0 0 0 0 0 0 0 0.25 0"/>
<feBlend mode="normal" in2="BackgroundImageFix" result="effect1_dropShadow_1317_13226"/>
<feBlend mode="normal" in="SourceGraphic" in2="effect1_dropShadow_1317_13226" result="shape"/>
<feGaussianBlur stdDeviation="2" result="effect2_foregroundBlur_1317_13226"/>
</filter>
<filter id="filter11_f_1317_13226" x="741.67" y="85.2253" width="111.494" height="130.289" filterUnits="userSpaceOnUse" color-interpolation-filters="sRGB">
<feFlood flood-opacity="0" result="BackgroundImageFix"/>
<feBlend mode="normal" in="SourceGraphic" in2="BackgroundImageFix" result="shape"/>
<feGaussianBlur stdDeviation="3.77908" result="effect1_foregroundBlur_1317_13226"/>
</filter>
<clipPath id="clip0_1317_13226">
<rect x="13.7759" y="342.574" width="75.6639" height="75.6639" rx="37.832" transform="rotate(-21.4227 13.7759 342.574)" fill="white"/>
</clipPath>
<clipPath id="clip1_1317_13226">
<rect x="806.397" y="268.74" width="75.6639" height="75.6639" rx="37.832" transform="rotate(-18.5414 806.397 268.74)" fill="white"/>
</clipPath>
<clipPath id="clip2_1317_13226">
<rect x="258.082" y="220.957" width="354.835" height="354.835" rx="177.417" transform="rotate(-34.5414 258.082 220.957)" fill="white"/>
</clipPath>
<clipPath id="clip3_1317_13226">
<rect x="121.409" y="159.239" width="52.6733" height="52.6733" rx="26.3367" transform="rotate(31.7165 121.409 159.239)" fill="white"/>
</clipPath>
<clipPath id="clip4_1317_13226">
<rect x="726.809" y="131.584" width="52.6733" height="52.6733" rx="26.3367" transform="rotate(-32.9938 726.809 131.584)" fill="white"/>
</clipPath>
</defs>
</svg>
