<svg width="978" height="531" viewBox="0 0 978 531" fill="none" xmlns="http://www.w3.org/2000/svg">
<rect width="978" height="530" transform="translate(0 0.5)" fill="white"/>
<path d="M579.117 384.625V311.219L719.253 91H785.92V188.875H747.825L672.314 308.5V311.219H879.117V384.625H579.117ZM748.505 439V362.195L750.546 330.25V91H838.981V439H748.505Z" fill="#44A647"/>
<path d="M495.559 439C465.198 438.891 438.973 431.872 416.883 417.944C394.793 404.015 377.763 383.938 365.793 357.713C353.823 331.488 347.893 300.039 348.001 263.368C348.11 226.587 354.095 195.356 365.956 169.675C377.926 143.994 394.902 124.462 416.883 111.077C438.973 97.6923 465.198 91 495.559 91C525.919 91 552.144 97.7467 574.234 111.24C596.324 124.625 613.354 144.158 625.324 169.839C637.294 195.52 643.225 226.696 643.116 263.368C643.116 300.257 637.131 331.814 625.161 358.039C613.191 384.265 596.161 404.341 574.071 418.27C552.09 432.09 525.919 439 495.559 439ZM495.559 365.221C511.228 365.221 524.069 357.06 534.08 340.737C544.2 324.306 549.206 298.516 549.097 263.368C549.097 240.407 546.812 221.636 542.242 207.054C537.671 192.473 531.36 181.7 523.307 174.735C515.255 167.662 506.005 164.126 495.559 164.126C479.889 164.126 467.103 172.069 457.2 187.957C447.298 203.844 442.238 228.981 442.02 263.368C441.911 286.764 444.142 306.024 448.713 321.15C453.283 336.167 459.594 347.266 467.647 354.448C475.808 361.63 485.112 365.221 495.559 365.221Z" fill="#172033"/>
<path d="M112 384.625V311.219L252.136 91H318.803V188.875H280.707L205.197 308.5V311.219H412V384.625H112ZM281.388 439V362.195L283.429 330.25V91H371.864V439H281.388Z" fill="#44A647"/>
</svg>
