<svg width="12" height="17" viewBox="0 0 12 17" fill="none" xmlns="http://www.w3.org/2000/svg">
<path d="M5.45881 16.6364V0.272726H6.5071V16.6364H5.45881ZM8.23935 5.67401C8.18821 5.15838 7.96875 4.75781 7.58097 4.4723C7.19318 4.18679 6.6669 4.04403 6.00213 4.04403C5.55043 4.04403 5.16903 4.10795 4.85795 4.2358C4.54688 4.35938 4.30824 4.53196 4.14205 4.75355C3.98011 4.97514 3.89915 5.22656 3.89915 5.50781C3.89063 5.74219 3.93963 5.94673 4.04616 6.12145C4.15696 6.29616 4.30824 6.44744 4.5 6.57528C4.69176 6.69886 4.91335 6.80753 5.16477 6.90128C5.41619 6.99077 5.68466 7.06747 5.97017 7.13139L7.14631 7.41264C7.71733 7.54048 8.24148 7.71094 8.71875 7.92401C9.19602 8.13707 9.60938 8.39915 9.95881 8.71023C10.3082 9.02131 10.5788 9.38778 10.7706 9.80966C10.9666 10.2315 11.0668 10.7152 11.071 11.2607C11.0668 12.0618 10.8622 12.7564 10.4574 13.3445C10.0568 13.9283 9.47727 14.3821 8.71875 14.706C7.96449 15.0256 7.05469 15.1854 5.98935 15.1854C4.93253 15.1854 4.01207 15.0234 3.22798 14.6996C2.44815 14.3757 1.83878 13.8963 1.39986 13.2614C0.965199 12.6222 0.737216 11.8317 0.715909 10.8899H3.39418C3.42401 11.3288 3.54972 11.6953 3.77131 11.9893C3.99716 12.2791 4.29759 12.4986 4.67259 12.6477C5.05185 12.7926 5.48011 12.8651 5.95739 12.8651C6.42614 12.8651 6.8331 12.7969 7.17827 12.6605C7.5277 12.5241 7.7983 12.3345 7.99006 12.0916C8.18182 11.8487 8.2777 11.5696 8.2777 11.2543C8.2777 10.9602 8.19034 10.7131 8.01562 10.5128C7.84517 10.3125 7.59375 10.142 7.26136 10.0014C6.93324 9.8608 6.53054 9.73295 6.05327 9.6179L4.62784 9.25994C3.52415 8.99148 2.6527 8.57173 2.01349 8.00071C1.37429 7.42969 1.05682 6.66051 1.06108 5.69318C1.05682 4.90057 1.26776 4.2081 1.69389 3.61577C2.12429 3.02344 2.71449 2.56108 3.46449 2.22869C4.21449 1.89631 5.06676 1.73011 6.02131 1.73011C6.9929 1.73011 7.84091 1.89631 8.56534 2.22869C9.29403 2.56108 9.8608 3.02344 10.2656 3.61577C10.6705 4.2081 10.8793 4.89418 10.892 5.67401H8.23935Z" fill="#404040"/>
</svg>
