<svg width="143" height="35" viewBox="0 0 143 35" fill="none" xmlns="http://www.w3.org/2000/svg">
<path d="M0.78125 34V2H21.9687V7.57812H7.54688V15.2031H20.5625V20.7812H7.54688V34H0.78125ZM26.3945 34V10H33.0508V34H26.3945ZM29.7383 6.90625C28.7487 6.90625 27.8997 6.57812 27.1914 5.92187C26.4935 5.25521 26.1445 4.45833 26.1445 3.53125C26.1445 2.61458 26.4935 1.82812 27.1914 1.17188C27.8997 0.505207 28.7487 0.171873 29.7383 0.171873C30.7279 0.171873 31.5716 0.505207 32.2695 1.17188C32.9779 1.82812 33.332 2.61458 33.332 3.53125C33.332 4.45833 32.9779 5.25521 32.2695 5.92187C31.5716 6.57812 30.7279 6.90625 29.7383 6.90625ZM45.0391 20.125V34H38.3828V10H44.7266V14.2344H45.0078C45.5391 12.8385 46.4297 11.7344 47.6797 10.9219C48.9297 10.099 50.4453 9.6875 52.2266 9.6875C53.8932 9.6875 55.3464 10.0521 56.5859 10.7812C57.8255 11.5104 58.7891 12.5521 59.4766 13.9062C60.1641 15.25 60.5078 16.8542 60.5078 18.7187V34H53.8516V19.9062C53.862 18.4375 53.487 17.2917 52.7266 16.4688C51.9661 15.6354 50.9193 15.2187 49.5859 15.2187C48.6901 15.2187 47.8984 15.4115 47.2109 15.7969C46.5339 16.1823 46.0026 16.7448 45.6172 17.4844C45.2422 18.2135 45.0495 19.0938 45.0391 20.125ZM72.4102 2V34H65.7539V2H72.4102ZM88.6797 34.4688C86.2109 34.4688 84.0859 33.9688 82.3047 32.9688C80.5339 31.9583 79.1693 30.5312 78.2109 28.6875C77.2526 26.8333 76.7734 24.6406 76.7734 22.1094C76.7734 19.6406 77.2526 17.474 78.2109 15.6094C79.1693 13.7448 80.5182 12.2917 82.2578 11.25C84.0078 10.2083 86.0599 9.6875 88.4141 9.6875C89.9974 9.6875 91.4714 9.94271 92.8359 10.4531C94.2109 10.9531 95.4089 11.7083 96.4297 12.7187C97.4609 13.7292 98.263 15 98.8359 16.5312C99.4089 18.0521 99.6953 19.8333 99.6953 21.875V23.7031H79.4297V19.5781H93.4297C93.4297 18.6198 93.2214 17.7708 92.8047 17.0313C92.388 16.2917 91.8099 15.7135 91.0703 15.2969C90.3411 14.8698 89.4922 14.6562 88.5234 14.6562C87.513 14.6562 86.6172 14.8906 85.8359 15.3594C85.0651 15.8177 84.4609 16.4375 84.0234 17.2187C83.5859 17.9896 83.362 18.849 83.3516 19.7969V23.7187C83.3516 24.9062 83.5703 25.9323 84.0078 26.7969C84.4557 27.6615 85.0859 28.3281 85.8984 28.7969C86.7109 29.2656 87.6745 29.5 88.7891 29.5C89.5286 29.5 90.2057 29.3958 90.8203 29.1875C91.4349 28.9792 91.9609 28.6667 92.3984 28.25C92.8359 27.8333 93.1693 27.3229 93.3984 26.7188L99.5547 27.125C99.2422 28.6042 98.6016 29.8958 97.6328 31C96.6745 32.0937 95.4349 32.9479 93.9141 33.5625C92.4036 34.1667 90.6589 34.4688 88.6797 34.4688ZM116.805 10V15H102.352V10H116.805ZM105.633 4.25H112.289V26.625C112.289 27.2396 112.383 27.7187 112.57 28.0625C112.758 28.3958 113.018 28.6302 113.352 28.7656C113.695 28.901 114.091 28.9687 114.539 28.9687C114.852 28.9687 115.164 28.9427 115.477 28.8906C115.789 28.8281 116.029 28.7812 116.195 28.75L117.242 33.7031C116.909 33.8073 116.44 33.9271 115.836 34.0625C115.232 34.2083 114.497 34.2969 113.633 34.3281C112.029 34.3906 110.622 34.1771 109.414 33.6875C108.216 33.1979 107.284 32.4375 106.617 31.4062C105.951 30.375 105.622 29.0729 105.633 27.5V4.25ZM131.82 34.4688C129.352 34.4688 127.227 33.9688 125.445 32.9688C123.674 31.9583 122.31 30.5312 121.352 28.6875C120.393 26.8333 119.914 24.6406 119.914 22.1094C119.914 19.6406 120.393 17.474 121.352 15.6094C122.31 13.7448 123.659 12.2917 125.398 11.25C127.148 10.2083 129.201 9.6875 131.555 9.6875C133.138 9.6875 134.612 9.94271 135.977 10.4531C137.352 10.9531 138.549 11.7083 139.57 12.7187C140.602 13.7292 141.404 15 141.977 16.5312C142.549 18.0521 142.836 19.8333 142.836 21.875V23.7031H122.57V19.5781H136.57C136.57 18.6198 136.362 17.7708 135.945 17.0313C135.529 16.2917 134.951 15.7135 134.211 15.2969C133.482 14.8698 132.633 14.6562 131.664 14.6562C130.654 14.6562 129.758 14.8906 128.977 15.3594C128.206 15.8177 127.602 16.4375 127.164 17.2187C126.727 17.9896 126.503 18.849 126.492 19.7969V23.7187C126.492 24.9062 126.711 25.9323 127.148 26.7969C127.596 27.6615 128.227 28.3281 129.039 28.7969C129.852 29.2656 130.815 29.5 131.93 29.5C132.669 29.5 133.346 29.3958 133.961 29.1875C134.576 28.9792 135.102 28.6667 135.539 28.25C135.977 27.8333 136.31 27.3229 136.539 26.7188L142.695 27.125C142.383 28.6042 141.742 29.8958 140.773 31C139.815 32.0937 138.576 32.9479 137.055 33.5625C135.544 34.1667 133.799 34.4688 131.82 34.4688Z" fill="#059C69"/>
</svg>
