<svg width="176" height="49" viewBox="0 0 176 49" fill="none" xmlns="http://www.w3.org/2000/svg">
<path d="M17.5797 17.0971H26.1534H34.7271L39.014 9.67258H30.4403H21.8665H13.291L9.00415 17.0971L13.291 24.5233L17.5797 17.0971Z" fill="#1B2A39"/>
<path d="M36.8319 20.8102L32.545 28.2347H23.9713L19.7095 35.6161L19.6826 35.6609L17.567 39.3274L13.2783 31.903L15.3958 28.2347L15.4227 28.1898L19.6826 20.8102H36.8319Z" fill="#44A647"/>
<path d="M59.9875 21.5202H52.4196L51.3349 29.1508H46.8364L49.4433 10.5403H63.0892L62.5621 14.4184H53.4182L52.9216 18.015H60.4895L59.9875 21.5202Z" fill="#1B2A39"/>
<path d="M69.5401 29.1508H65.0435L67.6486 10.5403H72.1452L69.5401 29.1508Z" fill="#1B2A39"/>
<path d="M91.8098 29.1508H88.3352L80.9232 18.2947L79.4028 29.1508H74.9438L77.5418 10.5403H81.0165L88.4607 21.21L89.9488 10.5403H94.4149L91.8098 29.1508Z" fill="#1B2A39"/>
<path d="M97.2065 29.1508L99.8117 10.5403H104.31L102.263 25.2728H110.575L110.017 29.1508H97.2065Z" fill="#1B2A39"/>
<path d="M127.476 21.4897H119.91L119.383 25.2728H128.409L127.851 29.1508H114.327L116.932 10.5403H130.456L129.929 14.4184H120.904L120.407 17.9845H127.975L127.476 21.4897Z" fill="#1B2A39"/>
<path d="M133.836 10.5403H148.812L148.253 14.4184H143.017L140.939 29.1508H136.441L138.519 14.4184H133.278L133.836 10.5403Z" fill="#1B2A39"/>
<path d="M163.514 21.4897H155.95L155.423 25.2728H164.448L163.891 29.1508H150.368L152.974 10.5403H166.496L165.969 14.4184H156.943L156.446 17.9845H164.014L163.514 21.4897Z" fill="#1B2A39"/>
<path d="M51.4728 38.3539H50.2985L50.1335 37.5417H48.4087L48.0179 38.3539H46.8435L49.1922 33.8483H50.3809L51.4728 38.3539ZM48.8157 36.69H49.9596L49.6207 35.0208L48.8157 36.69Z" fill="#1B2A39"/>
<path d="M52.1113 33.8483H55.7473L55.6111 34.7878H54.3399L53.8361 38.3628H52.7442L53.2498 34.7788H51.9768L52.1113 33.8483Z" fill="#1B2A39"/>
<path d="M60.1561 38.361H59.0642L59.3206 36.5251H57.4703L57.2139 38.361H56.1184L56.7549 33.8483H57.845L57.5904 35.6842H59.4407L59.7042 33.8483H60.78L60.1561 38.361Z" fill="#1B2A39"/>
<path d="M61.4648 38.3539L62.0977 33.8483H63.1878L62.6912 37.4216H64.7082L64.572 38.3628L61.4648 38.3539Z" fill="#1B2A39"/>
<path d="M68.8087 36.4946H66.9727L66.8454 37.4126H69.0274L68.8929 38.3539H65.6208L66.2502 33.8483H69.5312L69.4039 34.7878H67.213L67.0928 35.6537H68.9288L68.8087 36.4946Z" fill="#1B2A39"/>
<path d="M70.3505 33.8483H73.9866L73.8503 34.7878H72.5791L72.0753 38.3539H70.9834L71.4872 34.7788H70.2161L70.3505 33.8483Z" fill="#1B2A39"/>
<path d="M77.5527 36.4946H75.7168L75.5895 37.4126H77.7786L77.6424 38.3539H74.3613L74.9942 33.8483H78.2753L78.1462 34.7878H75.957L75.8405 35.6412H77.6764L77.5527 36.4946Z" fill="#1B2A39"/>
<path d="M81.7051 38.3539H80.615L81.2461 33.8483H82.338L81.7051 38.3539Z" fill="#1B2A39"/>
<path d="M87.109 38.3539H86.2663L84.4734 35.7201L84.1041 38.3539H83.0283L83.6469 33.8483H84.4895L86.295 36.4354L86.6536 33.8483H87.7294L87.109 38.3539Z" fill="#1B2A39"/>
<path d="M88.5164 33.8483H89.6889L90.3631 37.1867L91.9767 33.8483H93.151L90.7952 38.3628H89.6064L88.5164 33.8483Z" fill="#1B2A39"/>
<path d="M96.484 36.4946H94.6481L94.5208 37.4126H96.71L96.5737 38.3539H93.2944L93.9255 33.8483H97.2066L97.0793 34.7878H94.8883L94.7682 35.6537H96.6042L96.484 36.4946Z" fill="#1B2A39"/>
<path d="M98.1765 37.0146C98.2944 37.0958 98.4178 37.1689 98.5458 37.2333C98.6678 37.2956 98.795 37.3472 98.9259 37.3875C99.0685 37.4297 99.2165 37.4508 99.3652 37.4502C99.5151 37.4633 99.6647 37.4219 99.7865 37.3337C99.8316 37.2956 99.8673 37.2477 99.8909 37.1936C99.9146 37.1395 99.9255 37.0807 99.9228 37.0217C99.9216 36.9705 99.9079 36.9204 99.8829 36.8757C99.8579 36.831 99.8224 36.7931 99.7794 36.7654C99.606 36.6618 99.4189 36.5833 99.2235 36.5323C98.8742 36.436 98.5459 36.2755 98.2554 36.0589C98.1431 35.9676 98.0537 35.8513 97.9942 35.7193C97.9348 35.5874 97.9069 35.4434 97.9129 35.2987C97.9115 35.0884 97.9523 34.8799 98.0331 34.6856C98.1131 34.4958 98.2358 34.3271 98.3916 34.1925C98.5713 34.0433 98.7784 33.9306 99.0012 33.8608C99.2801 33.7763 99.5704 33.7357 99.8618 33.7407C100.121 33.7359 100.381 33.7611 100.635 33.816C100.809 33.855 100.979 33.9108 101.142 33.9827C101.275 34.0413 101.396 34.1226 101.501 34.223L100.783 35.1105C100.692 35.0406 100.593 34.9805 100.489 34.9312C100.382 34.8767 100.27 34.8329 100.154 34.8003C100.014 34.7606 99.868 34.7413 99.722 34.7429C99.5717 34.7256 99.4203 34.7645 99.2971 34.8523C99.2622 34.886 99.2345 34.9264 99.2157 34.9711C99.1969 35.0158 99.1874 35.0638 99.1877 35.1123C99.1874 35.1616 99.2011 35.2099 99.2271 35.2518C99.2531 35.2937 99.2904 35.3273 99.3347 35.3489C99.4938 35.4313 99.6616 35.4956 99.8349 35.5408C100.205 35.6369 100.553 35.8017 100.862 36.0267C100.98 36.1201 101.073 36.24 101.135 36.3764C101.198 36.5129 101.227 36.6621 101.221 36.812C101.221 37.0223 101.181 37.2306 101.101 37.4251C101.021 37.6249 100.899 37.8049 100.742 37.9523C100.565 38.1153 100.356 38.241 100.129 38.3216C99.8516 38.4194 99.5588 38.4662 99.2648 38.4597C98.9911 38.4652 98.7179 38.4338 98.4526 38.3664C98.2593 38.3139 98.0719 38.2418 97.8932 38.1513C97.7346 38.0718 97.5879 37.9704 97.4575 37.8501L98.1765 37.0146Z" fill="#1B2A39"/>
<path d="M102.413 33.8483H106.048L105.913 34.7878H104.64L104.136 38.3628H103.044L103.55 34.7878H102.277L102.413 33.8483Z" fill="#1B2A39"/>
<path d="M110.264 35.8635L109.106 37.158H108.651L107.86 35.8563L107.502 38.3539H106.426L107.055 33.8483H107.934L109.061 35.781L110.736 33.8483H111.616L110.991 38.3628H109.915L110.264 35.8635Z" fill="#1B2A39"/>
<path d="M115.484 36.4946H113.648L113.52 37.4126H115.71L115.573 38.3539H112.292L112.925 33.8483H116.206L116.077 34.7878H113.888L113.768 35.6537H115.604L115.484 36.4946Z" fill="#1B2A39"/>
<path d="M120.773 38.3539H119.93L118.137 35.7201L117.768 38.3539H116.692L117.312 33.8483H118.153L119.959 36.4354L120.317 33.8483H121.393L120.773 38.3539Z" fill="#1B2A39"/>
<path d="M122.428 33.8483H126.064L125.927 34.7878H124.656L124.152 38.3628H123.061L123.564 34.7878H122.293L122.428 33.8483Z" fill="#1B2A39"/>
<path d="M130.767 33.8483C130.983 33.8453 131.199 33.878 131.405 33.9451C131.584 34.0043 131.749 34.0995 131.891 34.2248C132.022 34.3431 132.127 34.4879 132.199 34.6497C132.274 34.8191 132.311 35.0025 132.308 35.1876C132.312 35.4276 132.262 35.6653 132.161 35.8832C132.066 36.0908 131.926 36.2746 131.751 36.4211C131.568 36.5736 131.357 36.6899 131.13 36.7636C130.877 36.8463 130.612 36.8869 130.345 36.8837H129.449L129.237 38.3664H128.14L128.771 33.8483H130.767ZM131.172 35.2826C131.177 35.2116 131.164 35.1405 131.134 35.0757C131.105 35.0109 131.06 34.9545 131.003 34.9115C130.874 34.8225 130.719 34.7784 130.562 34.786H129.736L129.569 35.9532H130.404C130.597 35.9571 130.786 35.8979 130.942 35.7846C131.019 35.7261 131.08 35.6497 131.12 35.5622C131.16 35.4747 131.177 35.3787 131.172 35.2826Z" fill="#1B2A39"/>
<path d="M132.864 38.3539L133.497 33.8483H134.589L134.092 37.4216H136.108L135.973 38.3628L132.864 38.3539Z" fill="#1B2A39"/>
<path d="M141.119 38.3539H139.946L139.78 37.5417H138.055L137.664 38.3539H136.49L138.84 33.8483H140.027L141.119 38.3539ZM138.464 36.69H139.607L139.269 35.0208L138.464 36.69Z" fill="#1B2A39"/>
<path d="M141.759 33.8483H145.393L145.259 34.7878H143.986L143.482 38.3628H142.392L142.895 34.7788H141.624L141.759 33.8483Z" fill="#1B2A39"/>
<path d="M148.959 36.5018H147.123L146.861 38.3539H145.764L146.402 33.8483H149.709L149.581 34.7878H147.365L147.245 35.6609H149.081L148.959 36.5018Z" fill="#1B2A39"/>
<path d="M152.127 38.4597C151.842 38.464 151.56 38.4084 151.297 38.2965C151.057 38.1953 150.842 38.0444 150.664 37.8537C150.49 37.6627 150.354 37.4391 150.266 37.1957C150.172 36.9378 150.125 36.6652 150.127 36.3906C150.125 36.0412 150.195 35.6952 150.333 35.374C150.467 35.0594 150.66 34.7734 150.901 34.5314C151.145 34.2893 151.432 34.0942 151.747 33.9559C152.076 33.8115 152.432 33.7382 152.791 33.7407C153.08 33.7365 153.367 33.7914 153.633 33.9021C153.873 34.0027 154.09 34.152 154.269 34.3405C154.449 34.5291 154.587 34.7528 154.675 34.9975C154.77 35.2554 154.817 35.528 154.815 35.8026C154.816 36.1521 154.745 36.4982 154.607 36.8191C154.337 37.4638 153.828 37.9782 153.185 38.2535C152.851 38.3949 152.491 38.4652 152.127 38.4597ZM152.278 37.3983C152.463 37.3995 152.646 37.3623 152.816 37.2889C152.984 37.2185 153.137 37.1149 153.264 36.9841C153.395 36.8485 153.498 36.689 153.569 36.5143C153.646 36.3217 153.684 36.1158 153.682 35.9083C153.696 35.611 153.591 35.3202 153.391 35.0997C153.297 34.9991 153.182 34.9199 153.054 34.8674C152.926 34.8148 152.789 34.7901 152.651 34.7949C152.472 34.7944 152.295 34.8316 152.131 34.9043C151.966 34.9761 151.817 35.0797 151.692 35.2091C151.559 35.3442 151.455 35.5037 151.383 35.6788C151.303 35.8707 151.264 36.077 151.267 36.2849C151.253 36.5813 151.355 36.8715 151.552 37.0935C151.644 37.1928 151.757 37.2714 151.882 37.324C152.007 37.3765 152.142 37.4018 152.278 37.3983Z" fill="#1B2A39"/>
<path d="M158.148 33.8483C158.365 33.8456 158.581 33.8783 158.788 33.9451C158.967 34.0047 159.131 34.0999 159.272 34.2248C159.404 34.3431 159.509 34.4879 159.581 34.6497C159.655 34.8191 159.692 35.0025 159.69 35.1876C159.697 35.5174 159.597 35.8406 159.405 36.1091C159.211 36.3747 158.948 36.5818 158.645 36.708L158.629 36.7904L159.434 38.2875V38.3628H158.261L157.529 36.8801H156.83L156.62 38.3628H155.529L156.163 33.8483H158.148ZM158.553 35.2826C158.558 35.2116 158.545 35.1405 158.516 35.0757C158.486 35.0109 158.441 34.9545 158.385 34.9115C158.256 34.8229 158.102 34.7788 157.945 34.786H157.117L156.952 35.9532H157.786C157.979 35.9573 158.168 35.8981 158.324 35.7846C158.4 35.7261 158.461 35.6497 158.501 35.5622C158.541 35.4747 158.559 35.3787 158.553 35.2826Z" fill="#1B2A39"/>
<path d="M164.249 35.8635L163.091 37.158H162.632L161.841 35.8563L161.483 38.3539H160.407L161.045 33.8483H161.926L163.053 35.781L164.724 33.8483H165.605L164.981 38.3628H163.905L164.249 35.8635Z" fill="#1B2A39"/>
</svg>
