<svg width="290" height="56" viewBox="0 0 290 56" fill="none" xmlns="http://www.w3.org/2000/svg">
<g clip-path="url(#clip0_1233_13528)">
<path d="M28.6562 0H27.3438C12.2422 0 0 12.2422 0 27.3438V28.6562C0 43.7578 12.2422 56 27.3438 56H28.6562C43.7578 56 56 43.7578 56 28.6562V27.3438C56 12.2422 43.7578 0 28.6562 0Z" fill="url(#paint0_linear_1233_13528)"/>
<path fill-rule="evenodd" clip-rule="evenodd" d="M34.1184 23.8929C34.0603 23.9096 33.9998 23.876 33.9831 23.8179L33.8551 23.3714C33.823 23.2595 33.7089 23.1928 33.5944 23.2143C33.2226 23.2838 32.8743 23.3014 32.5495 23.2672C32.0907 23.2188 31.6986 23.058 31.3733 22.7847C31.0936 22.5498 30.8768 22.225 30.7229 21.8106C30.6806 21.6963 30.7484 21.573 30.8656 21.5394L31.9856 21.2182C32.0968 21.1864 32.2113 21.2481 32.2661 21.3499C32.3311 21.4709 32.4117 21.5698 32.5078 21.6466C32.6499 21.76 32.8196 21.8282 33.0173 21.8509C33.1056 21.8606 33.1974 21.8617 33.2927 21.854C33.3583 21.8487 33.3997 21.7836 33.3816 21.7203L33.021 20.4629C33.007 20.414 32.9613 20.3813 32.9106 20.3837L32.4906 20.4043C31.8803 20.437 31.368 20.3535 30.9545 20.1546C30.5403 19.9532 30.2623 19.6012 30.1202 19.0976C30.0005 18.6883 30.0073 18.2974 30.1405 17.9251C30.2737 17.5528 30.5115 17.2244 30.8539 16.9393C31.0862 16.7461 31.3549 16.5853 31.6602 16.457C31.7664 16.4123 31.8264 16.2966 31.7947 16.1858L31.667 15.7409C31.6504 15.6828 31.684 15.6222 31.742 15.6056L32.0615 15.514C32.1195 15.4973 32.1801 15.5309 32.1967 15.5889L32.3238 16.032C32.3556 16.143 32.4683 16.2094 32.5823 16.1904C32.9183 16.1346 33.2336 16.1295 33.5288 16.1758C33.7537 16.2094 33.9607 16.2691 34.1497 16.3551C34.3211 16.4325 34.4777 16.5313 34.6194 16.6513C34.8656 16.8599 35.052 17.1224 35.1785 17.4386C35.2237 17.5516 35.1555 17.6747 35.0385 17.7083L33.9123 18.0312C33.8035 18.0624 33.6918 18.0032 33.6302 17.9082C33.5419 17.7722 33.4232 17.6746 33.2741 17.6151C33.1617 17.5686 33.0334 17.5478 32.8894 17.5532C32.8227 17.5557 32.7796 17.6218 32.7981 17.686L33.1116 18.7796C33.1397 18.8777 33.232 18.9433 33.3339 18.9377L33.5245 18.9272C33.8722 18.9045 34.1878 18.9169 34.4717 18.9639C34.7576 19.0102 35.0092 19.0913 35.2262 19.2065C35.4455 19.3209 35.6298 19.4726 35.7795 19.6609C35.929 19.8493 36.0428 20.0759 36.1211 20.3407C36.185 20.5681 36.2137 20.7871 36.2069 20.9971C36.2009 21.174 36.17 21.3449 36.1138 21.5095C35.991 21.8692 35.7564 22.1852 35.4104 22.4574C35.1669 22.6497 34.8711 22.8136 34.5233 22.9489C34.4146 22.9912 34.3529 23.1082 34.385 23.2204L34.5128 23.666C34.5295 23.7241 34.4959 23.7847 34.4378 23.8013L34.1184 23.8929ZM34.1928 21.5383C34.1516 21.5696 34.1065 21.599 34.0575 21.6265C33.9992 21.6591 33.9278 21.6259 33.9094 21.5617L33.6059 20.5032C33.5857 20.4327 33.6393 20.3625 33.7125 20.367C33.7703 20.3705 33.8245 20.3756 33.8753 20.3821C34.0511 20.4018 34.1895 20.4462 34.2909 20.5152C34.3916 20.5822 34.4611 20.6779 34.499 20.8023C34.5354 20.9369 34.5273 21.0675 34.4752 21.1946C34.423 21.3217 34.3289 21.4362 34.1928 21.5383ZM32.1206 17.7726C32.1785 17.7397 32.2498 17.773 32.2681 17.837L32.5615 18.8601C32.577 18.9142 32.5358 18.9675 32.4796 18.964C32.3745 18.957 32.2791 18.9436 32.1932 18.9227L32.1267 18.9041C32.026 18.8699 31.9424 18.8216 31.8755 18.7589C31.8108 18.6956 31.7663 18.6138 31.7421 18.5134C31.7228 18.4409 31.7168 18.37 31.7238 18.3006C31.7287 18.2536 31.7398 18.2075 31.7568 18.1623C31.7985 18.0475 31.8804 17.9434 32.0027 17.85C32.0385 17.8228 32.0777 17.7969 32.1206 17.7726ZM20.1977 22.5565L18.9785 20.771C18.8597 20.5971 18.5878 20.675 18.5793 20.8855L18.4915 23.0457L16.3781 23.6475C16.1726 23.706 16.1643 23.9942 16.3661 24.0645L18.4176 24.7783L18.3218 26.926C18.3123 27.1376 18.5791 27.2378 18.7113 27.0722L20.0782 25.3595L22.1453 26.0876C22.3451 26.158 22.5183 25.9316 22.3981 25.7571L21.1787 23.9866L22.5401 22.2941C22.674 22.1276 22.5142 21.8875 22.3089 21.9468L20.1977 22.5565ZM40.2125 32.3892C38.3941 35.7067 35.3071 38.3217 31.3843 39.4465C27.4614 40.5714 23.4577 39.9896 20.1576 38.1398C19.9518 38.0244 19.8822 37.7639 19.9966 37.5576L21.3904 35.0431C21.5113 34.8252 21.7891 34.7527 22.0067 34.8742C24.4605 36.2431 27.4369 36.6725 30.3494 35.8374C33.2618 35.0023 35.5584 33.0608 36.9138 30.5997C37.034 30.3814 37.308 30.2955 37.526 30.4163L40.0404 31.8101C40.2468 31.9245 40.3259 32.1823 40.2125 32.3892Z" fill="white"/>
<path fill-rule="evenodd" clip-rule="evenodd" d="M34.0597 49.1327C45.731 45.7861 52.4795 33.6118 49.1327 21.9403C45.786 10.2688 33.6115 3.52057 21.9403 6.86728C10.269 10.2139 3.52052 22.3882 6.86728 34.0597C10.214 45.7312 22.3884 52.4794 34.0597 49.1327ZM33.0949 45.768C23.2818 48.5819 13.0458 42.9078 10.232 33.0949C7.41815 23.282 13.092 13.0458 22.9051 10.232C32.7182 7.41809 42.9543 13.0922 45.768 22.9051C48.5818 32.718 42.908 42.9541 33.0949 45.768Z" fill="white"/>
<path d="M69.125 45.5V10.5H93.0163V17.3701H77.5846V24.5479H91.4955V31.4351H77.5846V45.5H69.125Z" fill="#2E2E2E"/>
<path d="M110.548 10.5V45.5H102.089V10.5H110.548Z" fill="#2E2E2E"/>
<path d="M150.459 10.5V45.5H143.281L129.353 25.2998H129.131V45.5H120.671V10.5H127.952L141.726 30.666H142.016V10.5H150.459Z" fill="#2E2E2E"/>
<path d="M160.591 45.5V10.5H169.05V38.6299H183.611V45.5H160.591Z" fill="#2E2E2E"/>
<path d="M192.802 45.5V10.5H217.207V17.3701H201.262V24.5479H215.959V31.4351H201.262V38.6299H217.207V45.5H192.802Z" fill="#2E2E2E"/>
<path d="M226.172 17.3701V10.5H255.755V17.3701H245.142V45.5H236.802V17.3701H226.172Z" fill="#2E2E2E"/>
<path d="M264.698 45.5V10.5H289.103V17.3701H273.158V24.5479H287.855V31.4351H273.158V38.6299H289.103V45.5H264.698Z" fill="#2E2E2E"/>
</g>
<defs>
<linearGradient id="paint0_linear_1233_13528" x1="57.348" y1="-10.3704" x2="0.63131" y2="-7.20584" gradientUnits="userSpaceOnUse">
<stop stop-color="#009EBE"/>
<stop offset="1" stop-color="#049C69"/>
</linearGradient>
<clipPath id="clip0_1233_13528">
<rect width="289.133" height="56" fill="white"/>
</clipPath>
</defs>
</svg>
