<svg width="28" height="28" viewBox="0 0 28 28" fill="none" xmlns="http://www.w3.org/2000/svg">
<path d="M25.6668 11.6433V22.1667C25.6668 23.45 24.6168 24.5 23.3335 24.5H4.66683C3.3835 24.5 2.3335 23.45 2.3335 22.1667L2.34516 8.16667C2.34516 6.88333 3.3835 5.83333 4.66683 5.83333H16.4502C16.3802 6.20667 16.3335 6.60333 16.3335 7C16.3335 7.39667 16.3802 7.79333 16.4502 8.16667H4.66683L14.0002 14L18.2818 11.3283C18.8302 11.83 19.4718 12.215 20.1835 12.4717L14.0002 16.3333L4.66683 10.5V22.1667H23.3335V12.7167C24.1968 12.5417 24.9902 12.1567 25.6668 11.6433ZM18.6668 7C18.6668 8.93667 20.2302 10.5 22.1668 10.5C24.1035 10.5 25.6668 8.93667 25.6668 7C25.6668 5.06333 24.1035 3.5 22.1668 3.5C20.2302 3.5 18.6668 5.06333 18.6668 7Z" fill="white"/>
</svg>
