<svg width="18" height="18" viewBox="0 0 18 18" fill="none" xmlns="http://www.w3.org/2000/svg">
<path d="M16.6485 6.29464L11.8085 5.87464L9.91849 1.42464C9.57849 0.614639 8.41849 0.614639 8.07849 1.42464L6.18849 5.88464L1.35849 6.29464C0.478486 6.36464 0.118486 7.46464 0.788486 8.04464L4.45849 11.2246L3.35849 15.9446C3.15849 16.8046 4.08849 17.4846 4.84849 17.0246L8.99849 14.5246L13.1485 17.0346C13.9085 17.4946 14.8385 16.8146 14.6385 15.9546L13.5385 11.2246L17.2085 8.04464C17.8785 7.46464 17.5285 6.36464 16.6485 6.29464ZM8.99849 12.6546L5.23849 14.9246L6.23849 10.6446L2.91849 7.76464L7.29849 7.38464L8.99849 3.35464L10.7085 7.39464L15.0885 7.77464L11.7685 10.6546L12.7685 14.9346L8.99849 12.6546Z" fill="#787878"/>
</svg>
