<svg width="33" height="25" viewBox="0 0 33 25" fill="none" xmlns="http://www.w3.org/2000/svg">
<path d="M27.4856 2.53348C31.04 7.75937 32.7953 13.654 32.1391 20.4402C32.1364 20.4689 32.1214 20.4952 32.0978 20.5125C29.4062 22.489 26.7983 23.6884 24.2271 24.4839C24.2071 24.49 24.1856 24.4896 24.1658 24.4829C24.146 24.4762 24.1288 24.4635 24.1165 24.4465C23.5225 23.62 22.9828 22.7486 22.5099 21.8336C22.4828 21.7797 22.5076 21.7148 22.5634 21.6935C23.4206 21.3705 24.2358 20.9834 25.0198 20.5251C25.0816 20.4889 25.0855 20.4004 25.0284 20.3579C24.862 20.2344 24.6972 20.1046 24.5395 19.9748C24.5099 19.9508 24.4702 19.946 24.4368 19.9622C19.3466 22.3127 13.7706 22.3127 8.62022 19.9622C8.58678 19.9472 8.54705 19.9523 8.51833 19.9759C8.36097 20.1058 8.19574 20.2344 8.03091 20.3579C7.97387 20.4004 7.97859 20.4889 8.04074 20.5251C8.82479 20.9748 9.6399 21.3705 10.4959 21.6951C10.5514 21.7163 10.5778 21.7797 10.5502 21.8336C10.0876 22.7498 9.54785 23.6212 8.9428 24.4477C8.91645 24.4811 8.87317 24.4965 8.83226 24.4839C6.27321 23.6884 3.66537 22.489 0.973745 20.5125C0.951322 20.4952 0.935193 20.4677 0.932832 20.439C0.384436 14.5691 1.50208 8.62563 5.58201 2.53229C5.59184 2.51617 5.60679 2.50358 5.6241 2.4961C7.63161 1.57476 9.78232 0.89694 12.0302 0.509837C12.0711 0.503543 12.112 0.522426 12.1333 0.558618C12.411 1.05037 12.7285 1.68098 12.9433 2.19633C15.3127 1.83441 17.7191 1.83441 20.1381 2.19633C20.3529 1.692 20.6594 1.05037 20.9359 0.558618C20.9458 0.540664 20.961 0.526279 20.9796 0.517519C20.9981 0.508758 21.0189 0.50607 21.039 0.509837C23.2881 0.898121 25.4388 1.57595 27.4447 2.4961C27.4624 2.50358 27.477 2.51617 27.4856 2.53348ZM14.1479 13.6942C14.1726 11.9589 12.9075 10.523 11.3193 10.523C9.74415 10.523 8.49118 11.9463 8.49118 13.6942C8.49118 15.4416 9.76894 16.865 11.3193 16.865C12.8949 16.865 14.1479 15.4416 14.1479 13.6942ZM24.6051 13.6942C24.6299 11.9589 23.3648 10.523 21.777 10.523C20.2015 10.523 18.9485 11.9463 18.9485 13.6942C18.9485 15.4416 20.2262 16.865 21.777 16.865C23.3648 16.865 24.6051 15.4416 24.6051 13.6942Z" fill="white"/>
</svg>
