<svg width="24" height="25" viewBox="0 0 24 25" fill="none" xmlns="http://www.w3.org/2000/svg">
<g clip-path="url(#clip0_1006_6710)">
<path d="M22.5406 6.92C22.4218 6.44541 22.1799 6.01057 21.8392 5.65941C21.4986 5.30824 21.0713 5.05318 20.6006 4.92C18.8806 4.5 12.0006 4.5 12.0006 4.5C12.0006 4.5 5.12057 4.5 3.40057 4.96C2.92982 5.09318 2.50255 5.34824 2.16192 5.69941C1.82129 6.05057 1.57936 6.48541 1.46057 6.96C1.14579 8.70556 0.991808 10.4763 1.00057 12.25C0.989351 14.037 1.14334 15.8213 1.46057 17.58C1.59153 18.0398 1.83888 18.4581 2.17872 18.7945C2.51855 19.1308 2.93939 19.3738 3.40057 19.5C5.12057 19.96 12.0006 19.96 12.0006 19.96C12.0006 19.96 18.8806 19.96 20.6006 19.5C21.0713 19.3668 21.4986 19.1118 21.8392 18.7606C22.1799 18.4094 22.4218 17.9746 22.5406 17.5C22.8529 15.7676 23.0069 14.0103 23.0006 12.25C23.0118 10.463 22.8578 8.6787 22.5406 6.92V6.92Z" stroke="white" stroke-width="2" stroke-linecap="round" stroke-linejoin="round"/>
<path d="M9.75 15.52L15.5 12.25L9.75 8.97998V15.52Z" stroke="white" stroke-width="2" stroke-linecap="round" stroke-linejoin="round"/>
</g>
<defs>
<clipPath id="clip0_1006_6710">
<rect width="24" height="24" fill="white" transform="translate(0 0.5)"/>
</clipPath>
</defs>
</svg>
