<svg width="80" height="81" viewBox="0 0 80 81" fill="none" xmlns="http://www.w3.org/2000/svg">
<rect y="0.895508" width="80" height="80" rx="40" fill="#44A647" fill-opacity="0.32"/>
<rect x="8" y="8.89551" width="64" height="64" rx="32" fill="#388B3E"/>
<mask id="mask0_6262_12235" style="mask-type:alpha" maskUnits="userSpaceOnUse" x="8" y="8" width="64" height="65">
<circle cx="40" cy="40.8955" r="32" fill="#388B3E"/>
</mask>
<g mask="url(#mask0_6262_12235)">
<path fill-rule="evenodd" clip-rule="evenodd" d="M38.1012 7.4981C38.1012 6.36549 39.0194 5.44727 40.1521 5.44727C41.2847 5.44727 42.2029 6.36549 42.2029 7.4981V11.158C42.2029 12.2906 41.2847 13.2088 40.1521 13.2088C39.0194 13.2088 38.1012 12.2906 38.1012 11.158V7.4981ZM52.1647 27.8895C52.1647 30.5078 51.5454 32.9116 50.1226 34.8856L44.6457 45.875H41.8131V36.7123C43.4135 36.0572 44.5418 34.4838 44.5418 32.6474C44.5418 30.2241 42.5754 28.2588 40.1521 28.2588C37.7266 28.2588 35.7624 30.2241 35.7624 32.6474C35.7624 33.1217 35.8382 33.5786 35.9767 34.0063C36.0049 34.0929 36.0374 34.1785 36.072 34.2629L36.1825 34.5239C36.2475 34.6603 36.3189 34.7924 36.3969 34.9202C36.882 35.7226 37.6183 36.356 38.4954 36.7144V45.875H35.5198L30.1881 34.8856C29.5275 33.9349 29.023 32.8488 28.6786 31.6891C28.3213 30.4785 28.1394 29.1889 28.1394 27.8895C28.1394 21.2552 33.5166 15.8769 40.1521 15.8769C46.7875 15.8769 52.1647 21.2552 52.1647 27.8895ZM53.9925 12.3935C54.7938 11.5922 56.0932 11.5922 56.8944 12.3935C57.3211 12.819 57.5203 13.3853 57.4921 13.943C57.4683 14.4346 57.2691 14.9197 56.8944 15.2943L54.3065 17.8811C53.5052 18.6824 52.2059 18.6824 51.4068 17.8811C50.6055 17.0799 50.6055 15.7816 51.4068 14.9803L53.9925 12.3935ZM53.9925 46.085C54.7938 46.8863 56.0932 46.8863 56.8944 46.085C57.6957 45.2848 57.6957 43.9855 56.8944 43.1842L54.3065 40.5974C53.5052 39.7961 52.2059 39.7961 51.4068 40.5974C50.6055 41.3986 50.6055 42.6969 51.4068 43.4982L53.9925 46.085ZM23.4097 15.2943C23.0567 14.9424 22.8596 14.4941 22.8185 14.035C22.7643 13.4481 22.9614 12.8418 23.4097 12.3924C24.211 11.5922 25.5082 11.5922 26.3094 12.3924L28.8974 14.9803C29.3348 15.4167 29.534 16.0014 29.4929 16.5731C29.4756 16.8406 29.4041 17.1048 29.2807 17.3495C29.1854 17.5411 29.0576 17.7209 28.8974 17.8811C28.0961 18.6824 26.7967 18.6824 25.9954 17.8811L23.4097 15.2943ZM23.4097 43.1842C22.6084 43.9855 22.6084 45.2848 23.4097 46.0861C23.4985 46.1749 23.5938 46.254 23.6934 46.3222C23.7778 46.3806 23.8645 46.4326 23.9554 46.477C24.722 46.8527 25.6728 46.7228 26.3094 46.0861L28.8974 43.4982C29.6986 42.6969 29.6986 41.3986 28.8974 40.5974C28.0961 39.7961 26.7967 39.7961 25.9954 40.5974L23.4097 43.1842ZM18.4959 31.2906C17.3633 31.2906 16.4451 30.3724 16.4451 29.2398C16.4451 28.9323 16.5122 28.641 16.6335 28.38C16.7331 28.1646 16.8674 27.9697 17.0298 27.8029C17.4023 27.4228 17.922 27.1879 18.4959 27.1879H22.1558C23.2884 27.1879 24.2066 28.1061 24.2066 29.2398C24.2066 30.3724 23.2884 31.2906 22.1558 31.2906H18.4959ZM58.1483 31.2906C57.0157 31.2906 56.0975 30.3724 56.0975 29.2398C56.0975 28.1061 57.0157 27.1879 58.1483 27.1879H61.8082C62.9408 27.1879 63.859 28.1061 63.859 29.2398C63.859 30.3724 62.9408 31.2906 61.8082 31.2906H58.1483ZM15.856 70.0069V55.755C18.0493 54.9076 22.8303 53.0188 24.4088 52.2434C25.9872 51.468 27.7497 51.4989 28.4336 51.6113C28.4336 51.6113 44.4676 54.2975 45.8757 54.5322C47.0022 54.7199 46.9513 55.4122 46.7851 55.7349C46.3157 56.3412 44.9077 57.7766 43.0302 58.6684C41.2107 59.5327 38.7034 58.951 37.212 58.6049C36.7798 58.5047 36.4329 58.4242 36.2128 58.4044C35.233 58.3164 34.7871 58.9324 34.6991 59.7538C34.6287 60.4109 35.6789 61.0738 36.2128 61.3231L53.96 63.4799C58.2607 59.6816 66.9616 52.0103 67.3594 51.7121C67.8566 51.3392 69.373 51.1403 70.3923 51.7121C71.2077 52.1695 71.3619 53.3775 71.337 53.9243L69.373 57.4544L70.9641 57.6036C71.936 58.0179 73.9081 59.0008 74.0219 59.6173C74.1357 60.2338 73.9745 60.5959 73.8797 60.6999C73.201 61.112 70.2585 62.7359 63.9179 65.9353C55.9921 69.9346 42.3219 73.7157 40.2132 74.152C38.5262 74.501 36.5533 74.2974 35.7777 74.152L15.856 70.0069ZM5.9375 54.5374C5.9375 53.9251 6.43392 53.4286 7.0463 53.4286H12.0359C12.6482 53.4286 13.1447 53.9251 13.1447 54.5374V72.2782C13.1447 72.8905 12.6482 73.387 12.0359 73.387H7.0463C6.43392 73.387 5.9375 72.8905 5.9375 72.2782V54.5374Z" fill="#F3FAF3"/>
</g>
<mask id="mask1_6262_12235" style="mask-type:alpha" maskUnits="userSpaceOnUse" x="43" y="49" width="32" height="24">
<path d="M60.5117 69.0908L47.1055 72.0468L43.7578 70.2653V66.1935L45.4003 60.4772H53.8572L61.5311 54.6044L65.9945 49.5929L70.6928 49.2012L72.807 52.0984L72.3372 56.4051L74.608 58.4411V60.947L60.5117 69.0908Z" fill="#D9D9D9"/>
</mask>
<g mask="url(#mask1_6262_12235)">
<path d="M15.8555 55.7546V70.0065L35.7771 74.1515C36.5527 74.297 38.5257 74.5006 40.2126 74.1515C42.3213 73.7152 55.9915 69.9341 63.9173 65.9349C70.258 62.7355 73.2005 61.1115 73.8791 60.6995C73.9739 60.5955 74.1351 60.2334 74.0213 59.6168C73.9076 59.0003 71.9354 58.0175 70.9635 57.6031L69.3725 57.454L71.3364 53.9238C71.3613 53.377 71.2072 52.169 70.3918 51.7116C69.3725 51.1398 67.856 51.3388 67.3588 51.7116C66.9611 52.0099 58.2601 59.6811 53.9594 63.4794L36.2122 61.3227C35.6784 61.0733 34.6282 60.4104 34.6986 59.7533C34.7866 58.932 35.2324 58.3159 36.2122 58.4039C36.4324 58.4237 36.7793 58.5042 37.2114 58.6045C38.7029 58.9505 41.2101 59.5322 43.0297 58.668C44.9071 57.7762 46.3152 56.3407 46.7845 55.7345C46.9508 55.4118 47.0016 54.7195 45.8752 54.5317C44.4671 54.2971 28.433 51.6108 28.433 51.6108C27.7491 51.4985 25.9867 51.4676 24.4082 52.243C22.8298 53.0183 18.0487 54.9071 15.8555 55.7546Z" fill="#F3FAF3"/>
</g>
<path d="M40.1523 5.44727C39.0197 5.44727 38.1015 6.36549 38.1015 7.4981V11.158C38.1015 12.2906 39.0197 13.2088 40.1523 13.2088C41.2849 13.2088 42.2031 12.2906 42.2031 11.158V7.4981C42.2031 6.36549 41.2849 5.44727 40.1523 5.44727Z" fill="#F3FAF3"/>
<path d="M50.1228 34.8856C51.5456 32.9116 52.165 30.5078 52.165 27.8895C52.165 21.2552 46.7877 15.8769 40.1523 15.8769C33.5169 15.8769 28.1396 21.2552 28.1396 27.8895C28.1396 29.1889 28.3215 30.4785 28.6789 31.6891C29.0232 32.8488 29.5278 33.9349 30.1883 34.8856L35.5201 45.875H38.4956V36.7144C37.6185 36.356 36.8822 35.7226 36.3971 34.9202C36.3192 34.7924 36.2477 34.6603 36.1827 34.5239L36.0723 34.2629C36.0376 34.1785 36.0051 34.0929 35.977 34.0063C35.8384 33.5786 35.7626 33.1217 35.7626 32.6474C35.7626 30.2241 37.7268 28.2588 40.1523 28.2588C42.5756 28.2588 44.542 30.2241 44.542 32.6474C44.542 34.4838 43.4137 36.0572 41.8133 36.7123V45.875H44.646L50.1228 34.8856Z" fill="#F3FAF3"/>
<path d="M53.9928 12.3935C54.794 11.5922 56.0934 11.5922 56.8947 12.3935C57.3213 12.819 57.5205 13.3853 57.4924 13.943C57.4686 14.4346 57.2693 14.9197 56.8947 15.2943L54.3068 17.8811C53.5055 18.6824 52.2061 18.6824 51.407 17.8811C50.6057 17.0799 50.6057 15.7816 51.407 14.9803L53.9928 12.3935Z" fill="#F3FAF3"/>
<path d="M56.8947 46.085C56.0934 46.8863 54.794 46.8863 53.9928 46.085L51.407 43.4982C50.6057 42.6969 50.6057 41.3986 51.407 40.5974C52.2061 39.7961 53.5055 39.7961 54.3068 40.5974L56.8947 43.1842C57.696 43.9855 57.696 45.2848 56.8947 46.085Z" fill="#F3FAF3"/>
<path d="M23.4099 15.2943C23.0569 14.9424 22.8599 14.4941 22.8187 14.035C22.7646 13.4481 22.9616 12.8418 23.4099 12.3924C24.2112 11.5922 25.5084 11.5922 26.3097 12.3924L28.8976 14.9803C29.3351 15.4167 29.5343 16.0014 29.4931 16.5731C29.4758 16.8406 29.4044 17.1048 29.2809 17.3495C29.1856 17.5411 29.0579 17.7209 28.8976 17.8811C28.0963 18.6824 26.797 18.6824 25.9957 17.8811L23.4099 15.2943Z" fill="#F3FAF3"/>
<path d="M23.4099 46.0861C22.6087 45.2848 22.6087 43.9855 23.4099 43.1842L25.9957 40.5974C26.797 39.7961 28.0963 39.7961 28.8976 40.5974C29.6989 41.3986 29.6989 42.6969 28.8976 43.4982L26.3097 46.0861C25.673 46.7228 24.7223 46.8527 23.9557 46.477C23.8647 46.4326 23.7781 46.3806 23.6936 46.3222C23.594 46.254 23.4987 46.1749 23.4099 46.0861Z" fill="#F3FAF3"/>
<path d="M18.4962 31.2906C17.3635 31.2906 16.4453 30.3724 16.4453 29.2398C16.4453 28.9323 16.5124 28.641 16.6337 28.38C16.7333 28.1646 16.8676 27.9697 17.03 27.8029C17.4025 27.4228 17.9223 27.1879 18.4962 27.1879H22.156C23.2887 27.1879 24.2069 28.1061 24.2069 29.2398C24.2069 30.3724 23.2887 31.2906 22.156 31.2906H18.4962Z" fill="#F3FAF3"/>
<path d="M56.0977 29.2398C56.0977 30.3724 57.0159 31.2906 58.1486 31.2906H61.8085C62.9411 31.2906 63.8593 30.3724 63.8593 29.2398C63.8593 28.1061 62.9411 27.1879 61.8085 27.1879H58.1486C57.0159 27.1879 56.0977 28.1061 56.0977 29.2398Z" fill="#F3FAF3"/>
</svg>
