<svg width="80" height="81" viewBox="0 0 80 81" fill="none" xmlns="http://www.w3.org/2000/svg">
<rect y="0.895508" width="80" height="80" rx="40" fill="#44A647" fill-opacity="0.32"/>
<rect x="8" y="8.89551" width="64" height="64" rx="32" fill="#388B3E"/>
<mask id="mask0_6294_12425" style="mask-type:alpha" maskUnits="userSpaceOnUse" x="8" y="7" width="65" height="66">
<circle cx="40.2969" cy="40.1924" r="32.2969" fill="#388B3E"/>
</mask>
<g mask="url(#mask0_6294_12425)">
<path fill-rule="evenodd" clip-rule="evenodd" d="M54.2544 56.7502C50.4208 59.9865 45.4667 61.9371 40.0569 61.9371C27.8946 61.9371 18.0352 52.0776 18.0352 39.9153C18.0352 27.753 27.8946 17.8936 40.0569 17.8936C52.2192 17.8936 62.0787 27.753 62.0787 39.9153C62.0787 44.6758 60.5682 49.0835 58.0003 52.6852L58.1354 52.5501L64.8624 59.2771L65.2726 58.8669C66.0869 58.0526 67.4072 58.0526 68.2215 58.8669L80.1138 70.7592C80.9281 71.5736 80.9281 72.8938 80.1138 73.7081L75.6439 78.1781C74.8296 78.9924 73.5093 78.9924 72.695 78.1781L60.8027 66.2858C59.9883 65.4714 59.9883 64.1512 60.8027 63.3368L60.8218 63.3177L54.2544 56.7502ZM27.1832 53.5316C28.3817 47.5181 33.689 42.9861 40.0549 42.9861C46.4208 42.9861 51.7281 47.5181 52.9266 53.5316C56.5385 50.116 58.7921 45.2789 58.7921 39.9153C58.7921 29.5671 50.4032 21.1781 40.0549 21.1781C29.7066 21.1781 21.3177 29.5671 21.3177 39.9153C21.3177 45.2789 23.5713 50.116 27.1832 53.5316ZM46.6495 35.0221C46.6495 38.6636 43.6975 41.6157 40.0559 41.6157C36.4144 41.6157 33.4623 38.6636 33.4623 35.0221C33.4623 31.3805 36.4144 28.4285 40.0559 28.4285C43.6975 28.4285 46.6495 31.3805 46.6495 35.0221Z" fill="#F3FAF3"/>
<path d="M41.5197 49.3331C40.8955 47.412 38.1777 47.412 37.5535 49.3331L35.8277 54.6446H30.2428C28.2228 54.6446 27.383 57.2294 29.0172 58.4167L33.5354 61.6994L31.8096 67.0109C31.1854 68.932 33.3842 70.5295 35.0184 69.3422L39.5366 66.0595L44.0548 69.3422C45.689 70.5295 47.8878 68.932 47.2636 67.0109L45.5378 61.6994L50.056 58.4167C51.6902 57.2294 50.8504 54.6446 48.8304 54.6446L43.2455 54.6446L41.5197 49.3331Z" fill="#F3FAF3" stroke="#388B3E" stroke-width="2.08519"/>
</g>
</svg>
