<svg width="80" height="81" viewBox="0 0 80 81" fill="none" xmlns="http://www.w3.org/2000/svg">
<rect y="0.895508" width="80" height="80" rx="40" fill="#44A647" fill-opacity="0.32"/>
<rect x="8" y="8.89551" width="64" height="64" rx="32" fill="#388B3E"/>
<mask id="mask0_6294_12581" style="mask-type:alpha" maskUnits="userSpaceOnUse" x="8" y="8" width="64" height="65">
<circle cx="40" cy="40.8955" r="32" fill="#388B3E"/>
</mask>
<g mask="url(#mask0_6294_12581)">
<path fill-rule="evenodd" clip-rule="evenodd" d="M20.2812 20.5093C20.2812 17.4841 22.7332 15.0312 25.7593 15.0312H54.986C58.0121 15.0312 60.464 17.4841 60.464 20.5093V64.3298C60.464 67.355 58.0121 69.8078 54.986 69.8078H25.7593C22.7332 69.8078 20.2812 67.355 20.2812 64.3298V20.5093ZM27.143 27.0545C27.143 26.1121 27.9062 25.348 28.8496 25.348H51.9207C52.445 25.348 52.9139 25.5834 53.226 25.9543C53.4756 26.2512 53.6272 26.6355 53.6272 27.0545C53.6272 27.4352 53.5024 27.7865 53.292 28.0709C52.9799 28.49 52.4824 28.7611 51.9207 28.7611H28.8496C27.9062 28.7611 27.143 27.9969 27.143 27.0545ZM28.4983 32.2133C28.2647 32.2624 28.0489 32.3587 27.8617 32.4924C27.4266 32.8018 27.143 33.31 27.143 33.8842C27.143 34.8266 27.9062 35.5907 28.8496 35.5907H51.9207C52.864 35.5907 53.6272 34.8266 53.6272 33.8842C53.6272 32.9418 52.864 32.1777 51.9207 32.1777H28.8496C28.7301 32.1777 28.6124 32.1902 28.4983 32.2133ZM27.143 40.713C27.143 40.3671 27.2465 40.0452 27.423 39.7768C27.7279 39.3132 28.2522 39.0065 28.8496 39.0065H51.9207C52.864 39.0065 53.6272 39.7706 53.6272 40.713C53.6272 41.6554 52.864 42.4195 51.9207 42.4195H28.8496C27.9062 42.4195 27.143 41.6554 27.143 40.713ZM28.8496 45.8353C27.9062 45.8353 27.143 46.5994 27.143 47.5418C27.143 48.0553 27.3695 48.5154 27.7279 48.8284C27.892 48.9719 28.0846 49.0843 28.2968 49.1565C28.4697 49.2162 28.6552 49.2483 28.8496 49.2483H51.9207C52.864 49.2483 53.6272 48.4842 53.6272 47.5418C53.6272 46.5994 52.864 45.8353 51.9207 45.8353H28.8496ZM27.143 54.3706C27.143 53.4282 27.9062 52.664 28.8496 52.664H51.9207C52.4931 52.664 52.9995 52.9467 53.3098 53.3791C53.5095 53.6582 53.6272 54.0006 53.6272 54.3706C53.6272 54.7147 53.5256 55.0357 53.3508 55.3041C53.0459 55.7695 52.5198 56.0771 51.9207 56.0771H28.8496C27.9062 56.0771 27.143 55.313 27.143 54.3706ZM28.8496 59.4928C27.9062 59.4928 27.143 60.2569 27.143 61.1994C27.143 62.1418 27.9062 62.9059 28.8496 62.9059H51.9207C52.864 62.9059 53.6272 62.1418 53.6272 61.1994C53.6272 60.2569 52.864 59.4928 51.9207 59.4928H28.8496Z" fill="#F3FAF3"/>
<rect x="31.3538" y="10.3509" width="17.975" height="9.09463" rx="3.0283" fill="#F3FAF3" stroke="#388B3E" stroke-width="2.01887"/>
<path d="M63.157 49.9421L63.1573 49.9413C63.8085 48.5318 64.1705 46.9628 64.1705 45.3122C64.1705 39.2013 59.2159 34.2468 53.1044 34.2468C46.9942 34.2468 42.0398 39.2014 42.0398 45.3122C42.0398 51.423 46.9942 56.3775 53.1044 56.3775C54.2538 56.3775 55.3644 56.202 56.4092 55.8749C57.2144 55.6236 57.9791 55.283 58.6921 54.8652L61.7208 57.8933C61.3907 58.8589 61.6111 59.9705 62.3807 60.7401L68.4613 66.8207C69.5393 67.8987 71.2878 67.8987 72.3658 66.8207L72.366 66.8206L74.4681 64.7176C75.5461 63.6396 75.5461 61.8919 74.4681 60.8139L68.3875 54.7333C67.6547 54.0005 66.6132 53.7657 65.6822 54.0293L62.618 50.9646C62.8145 50.6344 62.9944 50.2932 63.157 49.9421ZM51.744 48.5702V48.5701L51.73 48.5703C51.6484 48.5713 51.5685 48.5416 51.5038 48.4769L48.7007 45.6738L48.7002 45.6733C48.576 45.5493 48.576 45.348 48.7002 45.2241L48.7013 45.223C48.8245 45.0996 49.0265 45.0996 49.1497 45.223L49.1503 45.2235L50.6831 46.7563C51.2681 47.3414 52.2167 47.3414 52.8019 46.7564L57.2024 42.3566L57.203 42.3559C57.3262 42.2326 57.5283 42.2326 57.6515 42.3559L57.6526 42.357C57.7767 42.481 57.7767 42.6823 57.6526 42.8063L57.6521 42.8068L51.9812 48.4769L51.9799 48.4782C51.9264 48.5318 51.8608 48.5613 51.7901 48.5683L51.7896 48.5684C51.781 48.5692 51.7654 48.5702 51.744 48.5702Z" fill="#F3FAF3" stroke="#388B3E" stroke-width="2.3657"/>
</g>
<path fill-rule="evenodd" clip-rule="evenodd" d="M61.1126 51.127C61.4915 50.6049 61.8211 50.0442 62.0953 49.4521C62.6759 48.1953 62.9993 46.7953 62.9993 45.319C62.9993 39.8614 58.5744 35.4365 53.1161 35.4365C47.6593 35.4365 43.2344 39.8614 43.2344 45.319C43.2344 50.7766 47.6593 55.2015 53.1161 55.2015C54.1449 55.2015 55.1368 55.0444 56.0686 54.7525C57.0805 54.4368 58.0215 53.9624 58.864 53.3595L63.2073 57.702C62.6128 58.3196 62.6205 59.3022 63.2288 59.9106L69.3094 65.9911C69.9255 66.6072 70.9251 66.6072 71.5411 65.9911L73.6434 63.888C74.2595 63.272 74.2595 62.2732 73.6434 61.6571L67.5629 55.5765C66.9853 54.999 66.072 54.9628 65.4528 55.4679L61.1126 51.127ZM50.6792 49.3202C50.9764 49.6174 51.3661 49.7645 51.7557 49.7599C51.8096 49.7599 51.8651 49.7576 51.919 49.7522C52.2517 49.7191 52.5751 49.5751 52.8292 49.3202L58.5001 43.65C59.0869 43.064 59.0869 42.113 58.5001 41.5269C57.9149 40.9409 56.963 40.9409 56.3778 41.5269L51.9772 45.9267C51.8541 46.0499 51.6544 46.0499 51.5312 45.9267L49.9984 44.3939C49.4131 43.8079 48.4613 43.8079 47.8761 44.3939C47.2893 44.98 47.2893 45.931 47.8761 46.5171L50.6792 49.3202Z" fill="#F3FAF3"/>
</svg>
