<svg width="80" height="81" viewBox="0 0 80 81" fill="none" xmlns="http://www.w3.org/2000/svg">
<rect y="0.895508" width="80" height="80" rx="40" fill="#44A647" fill-opacity="0.32"/>
<rect x="8" y="8.89551" width="64" height="64" rx="32" fill="#388B3E"/>
<mask id="mask0_6294_12508" style="mask-type:alpha" maskUnits="userSpaceOnUse" x="8" y="8" width="64" height="65">
<circle cx="40" cy="40.8955" r="32" fill="#388B3E"/>
</mask>
<g mask="url(#mask0_6294_12508)">
<circle cx="30.1584" cy="26.6301" r="15.2405" fill="#F3FAF3"/>
<mask id="mask1_6294_12508" style="mask-type:alpha" maskUnits="userSpaceOnUse" x="16" y="13" width="28" height="28">
<circle cx="30.2041" cy="26.6797" r="13.501" fill="#404040"/>
</mask>
<g mask="url(#mask1_6294_12508)">
<circle cx="30.1455" cy="23.29" r="5.04002" fill="#388B3E"/>
<circle cx="30.1419" cy="39.3587" r="9.96225" fill="#388B3E"/>
</g>
<circle cx="50.4163" cy="53.7532" r="15.2405" fill="#F3FAF3"/>
<mask id="mask2_6294_12508" style="mask-type:alpha" maskUnits="userSpaceOnUse" x="36" y="40" width="28" height="28">
<circle cx="50.4619" cy="53.8018" r="13.501" fill="#404040"/>
</mask>
<g mask="url(#mask2_6294_12508)">
<circle cx="50.4033" cy="50.4121" r="5.04002" fill="#388B3E"/>
<circle cx="50.3998" cy="66.4808" r="9.96225" fill="#388B3E"/>
</g>
<path d="M28.5716 55.4098L20.0338 41.9404L11.4961 55.4098H15.0437V61.2277C15.0298 63.8167 16.7165 68.9948 23.5742 68.9948H28.484V65.7349H27.0146C25.866 65.7349 25.1035 65.1255 25.1035 63.7425V55.4098H28.5716Z" fill="#F3FAF3"/>
<path d="M52.0261 25.0443L60.5638 38.5137L69.1016 25.0443L65.554 25.0443L65.554 19.2264C65.5678 16.6374 63.8812 11.4593 57.0234 11.4593L52.1136 11.4593L52.1136 14.7192L53.5831 14.7192C54.7317 14.7192 55.4942 15.3287 55.4942 16.7116L55.4942 25.0443L52.0261 25.0443Z" fill="#F3FAF3"/>
</g>
<path d="M28.5599 55.3981L20.0221 41.9287L11.4844 55.3981H15.032V61.216C15.0181 63.805 16.7048 68.983 23.5625 68.983H28.4723V65.7232H27.0029C25.8543 65.7232 25.0917 65.1137 25.0917 63.7307V55.3981H28.5599Z" fill="#F3FAF3"/>
<path d="M51.9792 25.0375L60.5169 38.5068L69.0547 25.0375L65.5071 25.0375L65.5071 19.2196C65.521 16.6306 63.8343 11.4525 56.9766 11.4525L52.0667 11.4525L52.0667 14.7124L53.5362 14.7124C54.6848 14.7124 55.4473 15.3218 55.4473 16.7048L55.4473 25.0375L51.9792 25.0375Z" fill="#F3FAF3"/>
</svg>
