<svg width="176" height="48" viewBox="0 0 176 48" fill="none" xmlns="http://www.w3.org/2000/svg">
<g id="Logo">
<path id="Vector" d="M17.5794 16.5963H26.1532H34.7269L39.0138 9.17188H30.44H21.8663H13.2908L9.00391 16.5963L13.2908 24.0226L17.5794 16.5963Z" fill="#FAFAFA"/>
<path id="Vector_2" d="M36.8309 20.3105L32.544 27.735H23.9703L19.7085 35.1165L19.6816 35.1613L17.566 38.8278L13.2773 31.4033L15.3948 27.735L15.4217 27.6902L19.6816 20.3105H36.8309Z" fill="#44A647"/>
<path id="Vector_3" d="M59.987 25.6751H52.4191L51.3344 33.3058H46.8359L49.4428 14.6953H63.0887L62.5616 18.5734H53.4177L52.9211 22.17H60.489L59.987 25.6751Z" fill="#FAFAFA"/>
<path id="Vector_4" d="M69.5396 33.3058H65.043L67.6481 14.6953H72.1447L69.5396 33.3058Z" fill="#FAFAFA"/>
<path id="Vector_5" d="M91.8113 33.3058H88.3366L80.9247 22.4497L79.4043 33.3058H74.9453L77.5432 14.6953H81.0179L88.4621 25.365L89.9502 14.6953H94.4164L91.8113 33.3058Z" fill="#FAFAFA"/>
<path id="Vector_6" d="M97.207 33.3058L99.8121 14.6953H104.311L102.263 29.4277H110.575L110.017 33.3058H97.207Z" fill="#FAFAFA"/>
<path id="Vector_7" d="M127.477 25.6447H119.911L119.384 29.4277H128.41L127.852 33.3058H114.328L116.933 14.6953H130.457L129.93 18.5734H120.905L120.408 22.1395H127.976L127.477 25.6447Z" fill="#FAFAFA"/>
<path id="Vector_8" d="M133.835 14.6953H148.811L148.252 18.5734H143.016L140.938 33.3058H136.44L138.518 18.5734H133.277L133.835 14.6953Z" fill="#FAFAFA"/>
<path id="Vector_9" d="M163.513 25.6447H155.949L155.421 29.4277H164.447L163.889 33.3058H150.367L152.972 14.6953H166.494L165.967 18.5734H156.942L156.445 22.1395H164.013L163.513 25.6447Z" fill="#FAFAFA"/>
</g>
</svg>
