<svg width="104" height="105" viewBox="0 0 104 105" fill="none" xmlns="http://www.w3.org/2000/svg">
<rect y="0.5" width="104" height="104" rx="52" fill="#44A647" fill-opacity="0.32"/>
<rect x="10.3984" y="10.9004" width="83.2" height="83.2" rx="41.6" fill="#388B3E"/>
<mask id="mask0_6294_12607" style="mask-type:alpha" maskUnits="userSpaceOnUse" x="10" y="9" width="85" height="85">
<circle cx="52.3883" cy="51.5855" r="41.9859" fill="#388B3E"/>
</mask>
<g mask="url(#mask0_6294_12607)">
<path fill-rule="evenodd" clip-rule="evenodd" d="M55.4062 40.9468C50.5997 41.6615 39.9605 41.7658 35.8555 36.4657C30.7242 29.8405 30.2696 27.3719 30.2696 23.0851V13.6663C30.2479 13.2764 30.4384 12.3147 31.3738 11.5872C32.3091 10.8597 33.9719 11.7175 34.6863 12.2374C35.6823 13.4282 38.6484 15.8617 42.5456 16.0696C47.417 16.3294 61.5767 19.9012 59.2384 38.0885C59.823 38.5648 61.2 39.9202 62.0314 41.531C62.551 40.6433 63.7981 38.7121 64.6295 38.0885C64.0666 34.711 64.0449 26.8517 68.4617 22.4349C73.93 16.9666 77.1044 16.5959 82.0241 16.0213L82.1667 16.0046C86.1678 15.537 88.3805 13.6014 88.9867 12.6921C89.4197 12.1941 90.5456 11.1852 91.5848 11.1332C92.8839 11.0682 94.053 12.3672 94.053 13.991C94.053 14.3847 94.095 15.1906 94.1485 16.2162C94.3155 19.4209 94.5943 24.7709 94.053 26.3946C93.3385 28.5381 89.7012 39.4477 81.0625 40.4893C74.1515 41.3227 69.7824 41.1416 68.4617 40.9468C67.6287 41.8281 66.1083 43.8176 65.2332 46.0802C73.0146 47.3851 76.4739 53.0721 77.2311 55.7545C80.4008 55.3386 82.5356 56.8803 83.2068 57.7031C80.8165 58.8461 77.1878 63.8952 75.6723 66.2769C74.685 63.5105 70.4974 61.3139 68.527 60.5613H52.4842C49.9121 57.9892 46.2267 56.6317 44.7055 56.2745L46.9056 55.7545C48.8152 51.1653 52.694 47.0901 58.6404 46.0386C57.9639 44.4 56.8513 42.2824 55.4062 40.9468ZM25.2153 94.871V64.5659C35.2 54.5812 47.8539 62.7932 49.1057 64.045C50.1071 65.0464 51.192 65.4738 51.6092 65.5623H68.527C69.665 65.9922 71.9409 67.4285 71.9409 69.7348C71.9409 72.0411 69.665 74.2361 68.527 75.0453H46.9056C45.54 75.0453 44.7055 76.4109 44.7055 77.8523C44.7055 79.0055 46.1722 79.9007 46.9056 80.2041H68.527C70.6512 80.2041 72.2444 78.6363 72.7754 77.8523L85.7483 61.769C85.7483 61.769 90.6289 59.9474 92.5761 61.769C94.1698 63.26 93.8246 67.2163 93.8246 67.2163C89.4353 73.8565 79.941 87.8527 77.0778 90.7158C74.2146 93.579 69.2221 94.6789 67.0837 94.871H25.2153ZM10.4023 62.3247V63.9058V92.7705C10.4023 94.3389 11.7018 94.8243 12.3516 94.871H20.0066V63.9058C20.0066 61.3975 17.2572 60.639 15.8825 60.5733H12.3516C10.8149 60.5733 10.4118 61.7409 10.4023 62.3247Z" fill="#F3FAF3"/>
</g>
<path d="M35.857 36.3524C39.962 41.6525 50.6013 41.5482 55.4078 40.8336C57.4344 42.7065 58.807 46.1173 59.24 47.5886L64.631 48.2353C65.0468 45.1176 67.3591 42.0018 68.4632 40.8336C69.7839 41.0283 74.1531 41.2094 81.064 40.3761C89.7027 39.3344 93.3401 28.4248 94.0546 26.2813C94.769 24.1379 94.0546 15.5016 94.0546 13.8777C94.0546 12.2539 92.8854 10.955 91.5864 11.0199C90.5471 11.0719 89.4213 12.0808 88.9883 12.5788C88.382 13.4881 86.1693 15.4237 82.1682 15.8914L82.0257 15.908C77.106 16.4826 73.9316 16.8533 68.4632 22.3217C64.0465 26.7384 64.0681 34.5977 64.631 37.9752C63.7996 38.5988 62.5526 40.53 62.0329 41.4177C61.2015 39.8069 59.8245 38.4516 59.24 37.9752C61.5783 19.7879 47.4186 16.2161 42.5472 15.9563C38.65 15.7485 35.6838 13.3149 34.6879 12.1241C33.9734 11.6042 32.3106 10.7465 31.3753 11.4739C30.44 12.2014 30.2495 13.1631 30.2711 13.553V22.9718C30.2711 27.2587 30.7258 29.7272 35.857 36.3524Z" fill="#F3FAF3"/>
</svg>
