<svg width="104" height="105" viewBox="0 0 104 105" fill="none" xmlns="http://www.w3.org/2000/svg">
<rect y="0.5" width="104" height="104" rx="52" fill="#44A647" fill-opacity="0.32"/>
<rect x="10.3984" y="10.9004" width="83.2" height="83.2" rx="41.6" fill="#388B3E"/>
<mask id="mask0_6301_12679" style="mask-type:alpha" maskUnits="userSpaceOnUse" x="10" y="10" width="84" height="85">
<circle cx="52.0023" cy="52.5004" r="41.6" fill="#388B3E"/>
</mask>
<g mask="url(#mask0_6301_12679)">
<path d="M14.9451 50.8058C12.5566 48.0586 12.8481 43.8955 15.5951 41.5074C18.3424 39.1193 22.5054 39.4104 24.8935 42.1576L37.0554 56.1482C38.1268 57.3807 39.3459 58.4823 40.7434 59.3273C44.1744 61.4016 48.4883 63.4372 52.2054 63.4372C55.5301 63.4372 59.3322 61.8087 62.553 59.9805C64.0815 59.113 65.405 57.936 66.5581 56.6095L79.1205 42.1577C81.509 39.4104 85.672 39.1193 88.419 41.5074C91.1663 43.8956 91.4574 48.0586 89.0693 50.8058L73.104 69.1718C71.0008 71.5912 69.8426 74.6891 69.8426 77.8949V94.0995H34.5682V78.3512C34.5682 75.1454 33.41 72.0475 31.3068 69.628L14.9451 50.8058Z" fill="#F3FAF3"/>
<circle cx="52.36" cy="46.7877" r="11.9576" fill="#F3FAF3"/>
<path d="M51.5284 6.2569C51.8671 5.57062 52.8457 5.57062 53.1844 6.2569L56.5868 13.1509C56.7213 13.4234 56.9813 13.6123 57.2821 13.656L64.89 14.7615C65.6474 14.8716 65.9498 15.8023 65.4018 16.3365L59.8966 21.7027C59.679 21.9148 59.5797 22.2205 59.631 22.52L60.9306 30.0972C61.06 30.8515 60.2683 31.4267 59.5909 31.0706L52.7861 27.4931C52.5171 27.3517 52.1958 27.3517 51.9268 27.4931L45.122 31.0706C44.4446 31.4267 43.6529 30.8515 43.7822 30.0972L45.0818 22.52C45.1332 22.2205 45.0339 21.9148 44.8163 21.7027L39.3111 16.3365C38.7631 15.8023 39.0655 14.8716 39.8228 14.7615L47.4308 13.656C47.7316 13.6123 47.9915 13.4234 48.126 13.1509L51.5284 6.2569Z" fill="#F3FAF3"/>
<path d="M80.13 20.8217C80.8548 20.576 81.5468 21.2679 81.301 21.9927L80.1614 25.3533C80.0638 25.6411 80.1141 25.9585 80.2958 26.202L82.4181 29.0459C82.8758 29.6593 82.4315 30.5312 81.6663 30.5215L78.1181 30.4761C77.8142 30.4722 77.5279 30.6181 77.3524 30.8662L75.3035 33.7635C74.8616 34.3883 73.895 34.2352 73.6679 33.5044L72.6145 30.1158C72.5243 29.8256 72.2971 29.5984 72.0069 29.5082L68.6183 28.4549C67.8875 28.2277 67.7344 27.2611 68.3593 26.8192L71.2565 24.7703C71.5046 24.5949 71.6505 24.3085 71.6466 24.0046L71.6013 20.4564C71.5915 19.6912 72.4634 19.2469 73.0768 19.7046L75.9207 21.8269C76.1643 22.0087 76.4817 22.0589 76.7695 21.9613L80.13 20.8217Z" fill="#F3FAF3"/>
<path d="M23.4116 21.9927C23.1658 21.2679 23.8578 20.576 24.5826 20.8217L27.9431 21.9613C28.2309 22.0589 28.5483 22.0087 28.7919 21.8269L31.6358 19.7046C32.2491 19.2469 33.1211 19.6912 33.1113 20.4564L33.0659 24.0046C33.0621 24.3085 33.208 24.5949 33.4561 24.7703L36.3533 26.8192C36.9782 27.2611 36.8251 28.2277 36.0942 28.4549L32.7057 29.5082C32.4155 29.5984 32.1882 29.8256 32.098 30.1158L31.0447 33.5044C30.8175 34.2352 29.851 34.3883 29.4091 33.7635L27.3602 30.8662C27.1847 30.6181 26.8984 30.4722 26.5945 30.4761L23.0463 30.5215C22.281 30.5312 21.8367 29.6593 22.2945 29.0459L24.4167 26.202C24.5985 25.9585 24.6488 25.6411 24.5512 25.3533L23.4116 21.9927Z" fill="#F3FAF3"/>
</g>
<path d="M51.5362 6.24518C51.8749 5.5589 52.8536 5.5589 53.1923 6.24518L56.5946 13.1392C56.7291 13.4117 56.9891 13.6006 57.2899 13.6443L64.8978 14.7498C65.6552 14.8598 65.9576 15.7906 65.4096 16.3247L59.9044 21.691C59.6868 21.9031 59.5875 22.2087 59.6388 22.5083L60.9384 30.0855C61.0678 30.8398 60.2761 31.415 59.5987 31.0589L52.7939 27.4814C52.5249 27.34 52.2036 27.34 51.9346 27.4814L45.1298 31.0589C44.4524 31.415 43.6607 30.8398 43.7901 30.0855L45.0896 22.5083C45.141 22.2087 45.0417 21.9031 44.8241 21.691L39.3189 16.3248C38.7709 15.7906 39.0733 14.8598 39.8306 14.7498L47.4386 13.6443C47.7394 13.6006 47.9994 13.4117 48.1339 13.1392L51.5362 6.24518Z" fill="#F3FAF3"/>
<path d="M80.1378 20.81C80.8626 20.5642 81.5546 21.2562 81.3088 21.981L80.1692 25.3415C80.0716 25.6293 80.1219 25.9467 80.3036 26.1903L82.4259 29.0342C82.8836 29.6476 82.4393 30.5195 81.6741 30.5097L78.1259 30.4644C77.822 30.4605 77.5357 30.6064 77.3602 30.8545L75.3113 33.7517C74.8694 34.3766 73.9028 34.2235 73.6757 33.4927L72.6223 30.1041C72.5321 29.8139 72.3049 29.5867 72.0147 29.4965L68.6261 28.4431C67.8953 28.216 67.7422 27.2494 68.3671 26.8075L71.2643 24.7586C71.5124 24.5831 71.6583 24.2968 71.6544 23.9929L71.6091 20.4447C71.5993 19.6795 72.4712 19.2352 73.0846 19.6929L75.9285 21.8152C76.1721 21.9969 76.4895 22.0472 76.7773 21.9496L80.1378 20.81Z" fill="#F3FAF3"/>
<path d="M23.4194 21.981C23.1736 21.2562 23.8656 20.5642 24.5904 20.81L27.9509 21.9496C28.2387 22.0472 28.5561 21.9969 28.7997 21.8152L31.6436 19.6929C32.2569 19.2352 33.1289 19.6795 33.1191 20.4447L33.0738 23.9929C33.0699 24.2968 33.2158 24.5831 33.4639 24.7586L36.3611 26.8075C36.986 27.2494 36.8329 28.216 36.1021 28.4431L32.7135 29.4965C32.4233 29.5867 32.196 29.8139 32.1058 30.1041L31.0525 33.4927C30.8253 34.2235 29.8588 34.3766 29.4169 33.7517L27.368 30.8545C27.1925 30.6064 26.9062 30.4605 26.6023 30.4644L23.0541 30.5097C22.2888 30.5195 21.8446 29.6476 22.3023 29.0342L24.4246 26.1903C24.6063 25.9467 24.6566 25.6293 24.559 25.3415L23.4194 21.981Z" fill="#F3FAF3"/>
</svg>
