<svg width="104" height="104" viewBox="0 0 104 104" fill="none" xmlns="http://www.w3.org/2000/svg">
<rect width="104" height="104" rx="52" fill="#44A647" fill-opacity="0.32"/>
<rect x="10.3984" y="10.4004" width="83.2" height="83.2" rx="41.6" fill="#388B3E"/>
<mask id="mask0_6294_12615" style="mask-type:alpha" maskUnits="userSpaceOnUse" x="10" y="10" width="84" height="84">
<circle cx="52.0023" cy="52.0004" r="41.6" fill="#388B3E"/>
</mask>
<g mask="url(#mask0_6294_12615)">
<path fill-rule="evenodd" clip-rule="evenodd" d="M49.6766 49.3101C50.4918 49.8388 52.1704 51.1154 52.3634 51.9928C52.6876 51.0986 54.5691 49.3101 54.9211 49.3101V22.7311H70.5271C71.787 22.6091 74.0263 21.7801 72.9046 19.4392C71.7829 17.0983 70.2426 14.1558 69.6127 12.9772L72.9046 6.33308C73.1484 5.19536 73.0143 2.91992 70.5271 2.91992H54.9211H51.995C51.2432 3.02122 49.7395 3.84568 49.7395 6.33308C49.7395 8.82049 49.6975 36.0209 49.6766 49.3101ZM36.3189 51.3506C41.1976 51.3506 45.1526 47.3956 45.1526 42.5169C45.1526 37.6382 41.1976 33.6832 36.3189 33.6832C31.4401 33.6832 27.4852 37.6382 27.4852 42.5169C27.4852 47.3956 31.4401 51.3506 36.3189 51.3506ZM29.1108 71.0179C29.1108 75.8966 25.1558 79.8516 20.2771 79.8516C15.3983 79.8516 11.4434 75.8966 11.4434 71.0179C11.4434 66.1392 15.3983 62.1842 20.2771 62.1842C25.1558 62.1842 29.1108 66.1392 29.1108 71.0179ZM61.1995 71.0179C61.1995 75.8966 57.2445 79.8516 52.3657 79.8516C47.487 79.8516 43.532 75.8966 43.532 71.0179C43.532 66.1392 47.487 62.1842 52.3657 62.1842C57.2445 62.1842 61.1995 66.1392 61.1995 71.0179ZM84.4493 79.8516C89.3281 79.8516 93.2831 75.8966 93.2831 71.0179C93.2831 66.1392 89.3281 62.1842 84.4493 62.1842C79.5706 62.1842 75.6156 66.1392 75.6156 71.0179C75.6156 75.8966 79.5706 79.8516 84.4493 79.8516ZM20.3739 85.0951C16.3977 85.0951 10.8504 81.4938 10.8504 81.4938C8.50997 83.0311 7.27443 86.0983 6.94922 87.4397V91.8996C6.94922 93.8322 9.55002 94.1295 10.8504 94.0366H29.8974C32.9438 94.0366 33.7074 92.6119 33.7083 91.8996V87.4397C33.7083 84.8382 31.1677 82.3918 29.8974 81.4938C29.8974 81.4938 24.3501 85.0951 20.3739 85.0951ZM42.8883 81.4938C42.8883 81.4938 48.4356 85.0951 52.4118 85.0951C56.388 85.0951 61.9353 81.4938 61.9353 81.4938C63.2056 82.3918 65.7462 84.8382 65.7462 87.4397V91.8996C65.7453 92.6119 64.9817 94.0366 61.9353 94.0366H42.8883C41.5879 94.1295 38.9871 93.8322 38.9871 91.8996V87.4397C39.3123 86.0983 40.5479 83.0311 42.8883 81.4938ZM84.4954 85.0951C80.5192 85.0951 74.9719 81.4938 74.9719 81.4938C72.6314 83.0311 71.3959 86.0983 71.0707 87.4397V91.8996C71.0707 93.8322 73.6715 94.1295 74.9719 94.0366H94.0189C97.0653 94.0366 97.8288 92.6119 97.8298 91.8996V87.4397C97.8298 84.8382 95.2892 82.3918 94.0189 81.4938C94.0189 81.4938 88.4716 85.0951 84.4954 85.0951ZM77.2413 42.5169C77.2413 47.3956 73.2863 51.3506 68.4075 51.3506C63.5288 51.3506 59.5738 47.3956 59.5738 42.5169C59.5738 37.6382 63.5288 33.6832 68.4075 33.6832C73.2863 33.6832 77.2413 37.6382 77.2413 42.5169ZM23.6207 57.1952C23.8671 56.2714 24.8686 54.1413 26.9028 53.0105C26.9028 53.0105 32.3819 56.8564 36.374 56.8564C40.366 56.8564 45.8452 53.0105 45.8452 53.0105C46.8254 53.7643 48.8424 55.6566 49.0686 57.1952C49.0686 57.1952 44.0805 59.2346 41.8867 61.7198C39.749 64.1413 38.324 69.1845 38.324 69.1845H34.3654C34.3654 69.1845 33.0718 64.1377 30.9724 61.7198C28.7621 59.1742 23.6207 57.1952 23.6207 57.1952ZM58.961 53.0105C56.9268 54.1413 55.9253 56.2714 55.6789 57.1952C55.6789 57.1952 60.8203 59.1742 63.0306 61.7198C65.13 64.1377 66.4236 69.1845 66.4236 69.1845H70.3822C70.3822 69.1845 71.8072 64.1413 73.9449 61.7198C76.1387 59.2346 81.1268 57.1952 81.1268 57.1952C80.9006 55.6566 78.8836 53.7643 77.9034 53.0105C77.9034 53.0105 72.4242 56.8564 68.4322 56.8564C64.4401 56.8564 58.961 53.0105 58.961 53.0105Z" fill="#F3FAF3"/>
</g>
<path d="M52.3626 51.9928C52.1696 51.1154 50.491 49.8388 49.6758 49.3101C49.6968 36.0209 49.7387 8.82049 49.7387 6.33308C49.7387 3.84568 51.2424 3.02122 51.9943 2.91992H54.9204H70.5263C73.0135 2.91992 73.1476 5.19536 72.9038 6.33308L69.6119 12.9772C70.2418 14.1558 71.7821 17.0983 72.9038 19.4392C74.0255 21.7801 71.7862 22.6091 70.5263 22.7311H54.9204V49.3101C54.5683 49.3101 52.6869 51.0986 52.3626 51.9928Z" fill="#F3FAF3"/>
</svg>
